<svg xmlns="http://www.w3.org/2000/svg" viewBox="0 0 1024 1024">
  <g id="background">
    <rect x="0" y="0" width="1024" height="1024" rx="180" ry="180" fill="#1F5F66"/>
  </g>
  <g id="inner-outline">
    <rect x="18" y="18" width="988" height="988" rx="164" ry="164" fill="none" stroke="#D2E7E8" stroke-width="16" stroke-opacity="0.40"/>
  </g>
  <g id="spiral">
    <path d="M 552.0 512.0 L 552.4 514.1 L 552.8 516.3 L 553.0 518.5 L 553.1 520.7 L 553.1 523.0 L 552.9 525.3 L 552.6 527.6 L 552.2 529.9 L 551.6 532.2 L 551.0 534.5 L 550.2 536.8 L 549.2 539.0 L 548.1 541.3 L 546.9 543.4 L 545.6 545.6 L 544.1 547.7 L 542.5 549.7 L 540.8 551.6 L 539.0 553.5 L 537.0 555.3 L 534.9 557.0 L 532.7 558.6 L 530.5 560.1 L 528.1 561.5 L 525.6 562.7 L 523.0 563.8 L 520.4 564.8 L 517.6 565.7 L 514.9 566.4 L 512.0 567.0 L 509.1 567.4 L 506.1 567.7 L 503.2 567.8 L 500.1 567.8 L 497.1 567.5 L 494.1 567.2 L 491.0 566.6 L 488.0 565.9 L 485.0 565.0 L 482.0 564.0 L 479.0 562.7 L 476.1 561.4 L 473.3 559.8 L 470.5 558.1 L 467.8 556.2 L 465.2 554.2 L 462.7 552.0 L 460.2 549.6 L 457.9 547.1 L 455.7 544.5 L 453.6 541.7 L 451.7 538.8 L 449.9 535.8 L 448.3 532.7 L 446.8 529.5 L 445.5 526.1 L 444.3 522.7 L 443.4 519.2 L 442.6 515.6 L 442.0 512.0 L 441.6 508.3 L 441.4 504.6 L 441.4 500.8 L 441.6 497.0 L 442.0 493.2 L 442.6 489.4 L 443.4 485.7 L 444.4 481.9 L 445.6 478.2 L 447.0 474.5 L 448.7 470.9 L 450.5 467.3 L 452.5 463.9 L 454.8 460.5 L 457.2 457.2 L 459.8 454.0 L 462.6 451.0 L 465.6 448.1 L 468.7 445.3 L 472.0 442.7 L 475.5 440.3 L 479.1 438.0 L 482.8 435.9 L 486.7 434.0 L 490.6 432.3 L 494.7 430.8 L 498.9 429.5 L 503.2 428.5 L 507.6 427.6 L 512.0 427.0 L 516.5 426.6 L 521.0 426.5 L 525.5 426.6 L 530.1 426.9 L 534.6 427.5 L 539.2 428.3 L 543.7 429.4 L 548.2 430.7 L 552.6 432.3 L 557.0 434.1 L 561.3 436.1 L 565.5 438.4 L 569.6 440.9 L 573.6 443.6 L 577.4 446.6 L 581.1 449.8 L 584.7 453.2 L 588.0 456.7 L 591.3 460.5 L 594.3 464.5 L 597.1 468.6 L 599.7 473.0 L 602.1 477.4 L 604.3 482.0 L 606.2 486.8 L 607.9 491.6 L 609.3 496.6 L 610.5 501.7 L 611.4 506.8 L 612.0 512.0 L 612.4 517.3 L 612.4 522.6 L 612.3 527.9 L 611.8 533.2 L 611.0 538.5 L 610.0 543.8 L 608.6 549.1 L 607.0 554.3 L 605.1 559.4 L 602.9 564.5 L 600.5 569.5 L 597.8 574.3 L 594.8 579.0 L 591.5 583.6 L 588.0 588.0 L 584.3 592.3 L 580.3 596.3 L 576.1 600.2 L 571.6 603.8 L 567.0 607.3 L 562.2 610.5 L 557.1 613.4 L 552.0 616.1 L 546.6 618.5 L 541.1 620.7 L 535.5 622.5 L 529.8 624.1 L 523.9 625.4 L 518.0 626.3 L 512.0 627.0 L 506.0 627.3 L 499.9 627.4 L 493.8 627.1 L 487.7 626.4 L 481.6 625.5 L 475.5 624.2 L 469.5 622.6 L 463.6 620.7 L 457.7 618.5 L 452.0 615.9 L 446.4 613.1 L 440.9 609.9 L 435.5 606.4 L 430.4 602.7 L 425.4 598.6 L 420.6 594.3 L 416.0 589.7 L 411.7 584.9 L 407.6 579.8 L 403.7 574.5 L 400.2 569.0 L 396.9 563.2 L 393.9 557.3 L 391.2 551.2 L 388.8 545.0 L 386.8 538.6 L 385.1 532.1 L 383.7 525.5 L 382.7 518.8 L 382.0 512.0 L 381.7 505.2 L 381.7 498.3 L 382.1 491.4 L 382.9 484.6 L 384.0 477.7 L 385.5 470.9 L 387.4 464.2 L 389.6 457.5 L 392.2 450.9 L 395.1 444.5 L 398.4 438.2 L 402.0 432.1 L 405.9 426.1 L 410.2 420.3 L 414.8 414.8 L 419.7 409.4 L 424.8 404.4 L 430.3 399.5 L 436.0 395.0 L 442.0 390.8 L 448.2 386.8 L 454.7 383.2 L 461.3 379.9 L 468.1 376.9 L 475.1 374.4 L 482.3 372.1 L 489.6 370.3 L 496.9 368.8 L 504.4 367.7 L 512.0 367.0 L 519.6 366.7 L 527.3 366.8 L 534.9 367.3 L 542.6 368.2 L 550.2 369.5 L 557.7 371.2 L 565.2 373.4 L 572.6 375.9 L 579.9 378.8 L 587.0 382.1 L 594.0 385.8 L 600.8 389.8 L 607.3 394.3 L 613.7 399.0 L 619.8 404.2 L 625.7 409.6 L 631.3 415.4 L 636.6 421.5 L 641.6 427.9 L 646.2 434.5 L 650.6 441.4 L 654.5 448.5 L 658.1 455.9 L 661.3 463.5 L 664.1 471.2 L 666.5 479.1 L 668.5 487.2 L 670.1 495.4 L 671.3 503.7 L 672.0 512.0 L 672.3 520.4 L 672.1 528.8 L 671.5 537.3 L 670.5 545.7 L 669.0 554.1 L 667.0 562.4 L 664.6 570.6 L 661.8 578.7 L 658.6 586.7 L 654.9 594.5 L 650.8 602.1 L 646.3 609.6 L 641.4 616.8 L 636.1 623.7 L 630.4 630.4 L 624.4 636.8 L 618.0 642.9 L 611.3 648.7 L 604.3 654.2 L 597.0 659.2 L 589.4 663.9 L 581.6 668.2 L 573.5 672.1 L 565.2 675.6 L 556.6 678.6 L 548.0 681.2 L 539.1 683.4 L 530.2 685.0 L 521.1 686.3 L 512.0 687.0 L 502.8 687.3 L 493.6 687.0 L 484.4 686.3 L 475.2 685.1 L 466.1 683.5 L 457.0 681.3 L 448.0 678.6 L 439.2 675.5 L 430.5 671.9 L 422.0 667.9 L 413.7 663.4 L 405.6 658.4 L 397.8 653.1 L 390.2 647.3 L 383.0 641.0 L 376.0 634.5 L 369.4 627.5 L 363.1 620.2 L 357.3 612.5 L 351.8 604.5 L 346.7 596.2 L 342.1 587.7 L 337.9 578.8 L 334.2 569.8 L 330.9 560.5 L 328.1 551.1 L 325.8 541.5 L 324.0 531.8 L 322.8 521.9 L 322.0 512.0 L 321.8 502.0 L 322.0 492.0 L 322.9 482.0 L 324.2 472.1 L 326.1 462.2 L 328.4 452.4 L 331.4 442.7 L 334.8 433.1 L 338.7 423.7 L 343.1 414.5 L 348.0 405.5 L 353.4 396.8 L 359.3 388.3 L 365.6 380.2 L 372.3 372.3 L 379.5 364.9 L 387.1 357.7 L 395.0 351.0 L 403.3 344.7 L 412.0 338.8 L 421.0 333.4 L 430.2 328.4 L 439.8 323.9 L 449.6 319.9 L 459.6 316.4 L 469.8 313.4 L 480.2 311.0 L 490.7 309.1 L 501.3 307.8 L 512.0 307.0 L 522.8 306.8 L 533.5 307.1 L 544.3 308.0 L 555.0 309.5 L 565.7 311.6 L 576.3 314.2 L 586.7 317.3 L 597.0 321.1 L 607.1 325.3 L 617.0 330.1 L 626.6 335.5 L 636.0 341.3 L 645.1 347.6 L 653.9 354.5 L 662.3 361.7 L 670.3 369.5 L 677.9 377.6 L 685.1 386.2 L 691.9 395.2 L 698.2 404.5 L 704.0 414.2 L 709.3 424.1 L 714.1 434.4 L 718.4 444.9 L 722.1 455.7 L 725.2 466.7 L 727.8 477.8 L 729.8 489.1 L 731.2 500.5 L 732.0 512.0 L 732.2 523.5 L 731.8 535.1 L 730.8 546.7 L 729.1 558.2 L 726.9 569.6 L 724.1 580.9 L 720.7 592.1 L 716.6 603.1 L 712.0 613.9 L 706.9 624.5 L 701.1 634.8 L 694.8 644.8 L 688.0 654.5 L 680.7 663.9 L 672.9 672.9 L 664.6 681.4 L 655.8 689.6 L 646.6 697.3 L 637.0 704.5 L 627.0 711.2 L 616.6 717.4 L 606.0 723.0 L 595.0 728.1 L 583.7 732.6 L 572.2 736.6 L 560.4 739.9 L 548.5 742.6 L 536.5 744.7 L 524.3 746.2 L 512.0 747.0 L 499.7 747.2 L 487.3 746.7 L 475.0 745.6 L 462.7 743.8 L 450.5 741.4 L 438.5 738.4 L 426.5 734.7 L 414.8 730.3 L 403.3 725.4 L 392.0 719.8 L 381.0 713.7 L 370.3 707.0 L 360.0 699.7 L 350.1 691.8 L 340.5 683.5 L 331.4 674.6 L 322.8 665.2 L 314.6 655.4 L 306.9 645.2 L 299.8 634.5 L 293.3 623.5 L 287.3 612.1 L 281.9 600.3 L 277.1 588.3 L 272.9 576.1 L 269.4 563.6 L 266.6 550.9 L 264.4 538.0 L 262.8 525.1 L 262.0 512.0 L 261.8 498.9 L 262.4 485.8 L 263.6 472.7 L 265.5 459.6 L 268.1 446.6 L 271.4 433.8 L 275.3 421.2 L 280.0 408.7 L 285.2 396.5 L 291.2 384.5 L 297.7 372.8 L 304.9 361.5 L 312.7 350.6 L 321.0 340.0 L 329.9 329.9 L 339.4 320.3 L 349.3 311.1 L 359.8 302.5 L 370.7 294.4 L 382.0 286.8 L 393.7 279.9 L 405.8 273.6 L 418.3 267.9 L 431.0 262.8 L 444.1 258.4 L 457.3 254.7 L 470.8 251.7 L 484.4 249.4 L 498.2 247.9 L 512.0 247.0 L 525.9 246.9 L 539.8 247.5 L 553.7 248.8 L 567.5 250.8 L 581.2 253.6 L 594.8 257.1 L 608.2 261.3 L 621.4 266.3 L 634.4 271.9 L 647.0 278.2 L 659.3 285.1 L 671.3 292.8 L 682.9 301.0 L 694.0 309.9 L 704.7 319.3 L 714.9 329.3 L 724.5 339.9 L 733.7 350.9 L 742.2 362.5 L 750.2 374.5 L 757.5 386.9 L 764.1 399.7 L 770.1 412.9 L 775.4 426.4 L 780.0 440.2 L 783.9 454.2 L 787.1 468.4 L 789.5 482.8 L 791.1 497.4 L 792.0 512.0 L 792.1 526.7 L 791.5 541.4 L 790.0 556.0 L 787.8 570.6 L 784.9 585.1 L 781.1 599.5 L 776.7 613.6 L 771.4 627.5 L 765.5 641.2 L 758.8 654.5 L 751.4 667.5 L 743.4 680.1 L 734.7 692.3 L 725.3 704.0 L 715.3 715.3 L 704.7 726.0 L 693.6 736.2 L 681.9 745.8 L 669.7 754.8 L 657.0 763.1 L 643.9 770.8 L 630.4 777.8 L 616.5 784.1 L 602.2 789.7 L 587.7 794.5 L 572.9 798.6 L 557.9 801.9 L 542.7 804.4 L 527.4 806.1 L 512.0 807.0 L 496.5 807.1 L 481.1 806.4 L 465.6 804.8 L 450.3 802.5 L 435.0 799.4 L 419.9 795.4 L 405.0 790.7 L 390.4 785.2 L 376.0 778.9 L 362.0 771.8 L 348.3 764.0 L 335.1 755.5 L 322.3 746.3 L 309.9 736.4 L 298.1 725.9 L 286.8 714.7 L 276.1 703.0 L 266.1 690.7 L 256.6 677.8 L 247.9 664.5 L 239.8 650.7 L 232.5 636.5 L 225.9 621.8 L 220.0 606.9 L 215.0 591.6 L 210.7 576.0 L 207.3 560.3 L 204.7 544.3 L 202.9 528.2 L 202.0 512.0 L 201.9 495.7 L 202.7 479.5 L 204.3 463.3 L 206.8 447.1 L 210.1 431.1 L 214.3 415.3 L 219.3 399.7 L 225.1 384.3 L 231.8 369.2 L 239.2 354.5 L 247.4 340.2 L 256.4 326.3 L 266.0 312.8 L 276.4 299.9 L 287.5 287.5 L 299.2 275.7 L 311.6 264.5 L 324.5 253.9 L 338.0 244.0 L 352.0 234.9 L 366.5 226.4 L 381.4 218.8 L 396.8 211.9 L 412.5 205.8 L 428.5 200.5 L 444.8 196.1 L 461.4 192.5 L 478.1 189.8 L 495.0 187.9 L 512.0 187.0 L 529.0 186.9 L 546.1 187.8 L 563.1 189.5 L 580.0 192.1 L 596.8 195.7 L 613.4 200.1 L 629.7 205.3 L 645.8 211.4 L 661.6 218.4 L 677.0 226.2 L 692.0 234.8 L 706.6 244.2 L 720.6 254.4 L 734.2 265.3 L 747.1 276.9 L 759.5 289.2 L 771.2 302.1 L 782.2 315.7 L 792.5 329.8 L 802.1 344.5 L 810.9 359.7 L 819.0 375.3 L 826.1 391.4 L 832.5 407.9 L 838.0 424.6 L 842.6 441.7 L 846.3 459.0 L 849.1 476.6 L 851.0 494.2 L 852.0 512.0 L 852.0 529.8 L 851.1 547.6 L 849.3 565.4 L 846.5 583.1 L 842.8 600.6 L 838.2 618.0 L 832.7 635.1 L 826.3 651.9 L 819.0 668.4 L 810.8 684.5 L 801.8 700.2 L 791.9 715.4 L 781.3 730.1 L 769.9 744.2 L 757.7 757.7 L 744.9 770.6 L 731.3 782.8 L 717.1 794.3 L 702.4 805.1 L 687.0 815.1 L 671.1 824.3 L 654.8 832.7 L 638.0 840.2 L 620.8 846.8 L 603.2 852.5 L 585.4 857.3 L 567.3 861.1 L 549.0 864.1 L 530.6 866.0 L 512.0 867.0 L 493.4 867.0 L 474.8 866.0 L 456.2 864.1 L 437.8 861.2 L 419.5 857.3 L 401.4 852.5 L 383.5 846.7 L 366.0 840.0 L 348.8 832.3 L 332.0 823.8 L 315.7 814.3 L 299.8 804.1 L 284.5 792.9 L 269.8 781.0 L 255.7 768.3 L 242.2 754.9 L 229.5 740.8 L 217.5 726.0 L 206.3 710.5 L 195.9 694.5 L 186.3 677.9 L 177.6 660.9 L 169.8 643.3 L 163.0 625.4 L 157.0 607.1 L 152.0 588.5 L 148.0 569.6 L 145.0 550.6 L 143.0 531.3 L 142.0 512.0 L 142.0 492.6 L 143.0 473.2 L 145.1 453.9 L 148.1 434.7 L 152.2 415.6 L 157.3 396.7 L 163.3 378.1 L 170.3 359.9 L 178.3 342.0 L 187.2 324.5 L 197.1 307.5 L 207.8 291.0 L 219.4 275.1 L 231.8 259.7 L 245.1 245.1 L 259.1 231.1 L 273.8 217.9 L 289.2 205.4 L 305.3 193.7 L 322.0 182.9 L 339.3 173.0 L 357.0 163.9 L 375.3 155.8 L 394.0 148.7 L 413.0 142.5 L 432.4 137.4 L 452.0 133.2 L 471.9 130.1 L 491.9 128.0 L 512.0 127.0 L 532.2 127.0 L 552.3 128.1 L 572.5 130.3 L 592.5 133.5 L 612.3 137.7 L 631.9 143.0 L 651.2 149.3 L 670.2 156.6 L 688.8 165.0 L 707.0 174.3 L 724.7 184.5 L 741.8 195.7 L 758.4 207.7 L 774.3 220.7 L 789.5 234.5 L 804.1 249.0 L 817.8 264.4 L 830.8 280.4 L 842.9 297.1 L 854.1 314.5 L 864.4 332.4 L 873.8 350.9 L 882.2 369.9 L 889.6 389.3 L 896.0 409.1 L 901.3 429.3 L 905.6 449.7 L 908.8 470.3 L 911.0 491.1 L 912.0 512.0 L 912.0 533.0 L 910.8 553.9 L 908.6 574.8 L 905.2 595.6 L 900.8 616.2 L 895.3 636.5 L 888.7 656.6 L 881.1 676.3 L 872.4 695.6 L 862.7 714.5 L 852.1 732.9 L 840.5 750.6 L 827.9 767.8 L 814.5 784.3 L 800.1 800.1 L 785.0 815.2 L 769.1 829.5 L 752.4 842.9 L 735.0 855.4 L 717.0 867.1 L 698.4 877.8 L 679.2 887.5 L 659.5 896.2 L 639.3 903.8 L 618.8 910.4 L 597.9 916.0 L 576.7 920.4 L 555.3 923.7 L 533.7 925.9 L 512.0 927.0 L 490.3 926.9 L 468.5 925.7 L 446.8 923.4 L 425.3 919.9 L 403.9 915.3 L 382.8 909.5 L 362.0 902.7 L 341.6 894.8 L 321.6 885.8 L 302.0 875.7 L 283.0 864.7 L 264.5 852.6 L 246.7 839.6 L 229.6 825.6 L 213.2 810.8 L 197.6 795.0 L 182.9 778.5 L 169.0 761.2 L 156.0 743.2 L 143.9 724.5 L 132.9 705.2 L 122.8 685.3 L 113.8 664.8 L 105.9 644.0 L 99.1 622.6 L 93.4 601.0 L 88.8 579.0 L 85.4 556.8 L 83.1 534.5 L 82.0 512.0 L 82.1 489.5 L 83.4 466.9 L 85.8 444.5 L 89.4 422.2 L 94.2 400.1 L 100.2 378.2 L 107.3 356.6 L 115.5 335.5 L 124.9 314.7 L 135.3 294.5 L 146.8 274.8 L 159.3 255.7 L 172.8 237.3 L 187.2 219.6 L 202.6 202.6 L 218.9 186.5 L 236.0 171.2 L 254.0 156.8 L 272.6 143.4 L 292.0 130.9 L 312.0 119.5 L 332.6 109.1 L 353.8 99.8 L 375.4 91.6 L 397.5 84.6 L 419.9 78.7 L 442.6 74.0 L 465.6 70.4 L 488.7 68.1 L 512.0 67.0 L 535.3 67.1 L 558.6 68.4 L 581.8 71.0 L 604.9 74.8 L 627.8 79.7 L 650.4 85.9 L 672.7 93.3 L 694.6 101.8 L 716.1 111.5 L 737.0 122.3 L 757.4 134.2 L 777.1 147.1 L 796.1 161.1 L 814.4 176.1 L 832.0 192.0 L 848.6 208.9 L 864.4 226.6 L 879.3 245.1 L 893.2 264.5 L 906.0 284.5 L 917.9 305.2 L 928.6 326.5 L 938.2 348.4 L 946.6 370.8 L 953.9 393.6 L 960.0 416.8 L 964.9 440.3 L 968.5 464.0 L 970.9 488.0 L 972.0 512.0" fill="none" stroke="#FBB83D" stroke-width="32" stroke-linecap="round"/>
  </g>
  <g id="center-dot">
    <circle cx="512" cy="512" r="22" fill="#FBB83D"/>
  </g>
</svg>
