<svg xmlns="http://www.w3.org/2000/svg" viewBox="0 0 1024 1024">
  <defs>
    <linearGradient id="foilFace" x1="172" y1="312" x2="852" y2="712" gradientUnits="userSpaceOnUse">
      <stop offset="0%" stop-color="#F2F5F7"/>
      <stop offset="30%" stop-color="#D5DCE0"/>
      <stop offset="55%" stop-color="#ABB4BA"/>
      <stop offset="78%" stop-color="#D5DCE0"/>
      <stop offset="100%" stop-color="#ECEFF2"/>
    </linearGradient>
  </defs>
  <g id="background">
    <rect x="0" y="0" width="1024" height="1024" rx="180" ry="180" fill="#1F5F66"/>
  </g>
  <g id="foil">
    <rect x="172" y="312" width="680" height="400" rx="34" ry="34" fill="url(#foilFace)"/>
  </g>
  <g id="edge">
    <rect x="172" y="312" width="680" height="14" rx="7" ry="7" fill="#FFFFFF" fill-opacity="0.50"/>
    <line x1="270" y1="312" x2="270" y2="712" stroke="#8E9AA2" stroke-width="3" stroke-opacity="0.45"/>
  </g>
  <g id="indentations" fill="#5A6066">
    <ellipse cx="212" cy="512" rx="8" ry="7"/>
    <ellipse cx="234" cy="512" rx="8" ry="9"/>
    <ellipse cx="256" cy="512" rx="8" ry="12"/>
    <ellipse cx="278" cy="512" rx="8" ry="18"/>
    <ellipse cx="300" cy="512" rx="8" ry="14"/>
    <ellipse cx="322" cy="512" rx="8" ry="10"/>
    <ellipse cx="344" cy="512" rx="8" ry="8"/>
    <ellipse cx="366" cy="512" rx="8" ry="11"/>
    <ellipse cx="388" cy="512" rx="8" ry="16"/>
    <ellipse cx="410" cy="512" rx="8" ry="22"/>
    <ellipse cx="432" cy="512" rx="8" ry="19"/>
    <ellipse cx="454" cy="512" rx="8" ry="13"/>
    <ellipse cx="476" cy="512" rx="8" ry="9"/>
    <ellipse cx="498" cy="512" rx="8" ry="7"/>
    <ellipse cx="520" cy="512" rx="8" ry="10"/>
    <ellipse cx="542" cy="512" rx="8" ry="15"/>
    <ellipse cx="564" cy="512" rx="8" ry="21"/>
    <ellipse cx="586" cy="512" rx="8" ry="18"/>
    <ellipse cx="608" cy="512" rx="8" ry="13"/>
    <ellipse cx="630" cy="512" rx="8" ry="11"/>
    <ellipse cx="652" cy="512" rx="8" ry="14"/>
    <ellipse cx="674" cy="512" rx="8" ry="17"/>
    <ellipse cx="696" cy="512" rx="8" ry="20"/>
    <ellipse cx="718" cy="512" rx="8" ry="16"/>
    <ellipse cx="740" cy="512" rx="8" ry="12"/>
    <ellipse cx="762" cy="512" rx="8" ry="9"/>
    <ellipse cx="784" cy="512" rx="8" ry="7"/>
    <ellipse cx="806" cy="512" rx="8" ry="6"/>
  </g>
  <g id="indentation-highlights" fill="#F2F5F7" fill-opacity="0.55">
    <ellipse cx="212" cy="509.2" rx="4" ry="2"/>
    <ellipse cx="234" cy="508.4" rx="4" ry="2"/>
    <ellipse cx="256" cy="507.2" rx="4" ry="2"/>
    <ellipse cx="278" cy="504.8" rx="4" ry="2"/>
    <ellipse cx="300" cy="506.4" rx="4" ry="2"/>
    <ellipse cx="322" cy="508" rx="4" ry="2"/>
    <ellipse cx="344" cy="508.8" rx="4" ry="2"/>
    <ellipse cx="366" cy="507.6" rx="4" ry="2"/>
    <ellipse cx="388" cy="505.6" rx="4" ry="2"/>
    <ellipse cx="410" cy="503.2" rx="4" ry="2"/>
    <ellipse cx="432" cy="504.4" rx="4" ry="2"/>
    <ellipse cx="454" cy="506.8" rx="4" ry="2"/>
    <ellipse cx="476" cy="508.4" rx="4" ry="2"/>
    <ellipse cx="498" cy="509.2" rx="4" ry="2"/>
    <ellipse cx="520" cy="508" rx="4" ry="2"/>
    <ellipse cx="542" cy="506" rx="4" ry="2"/>
    <ellipse cx="564" cy="503.6" rx="4" ry="2"/>
    <ellipse cx="586" cy="504.8" rx="4" ry="2"/>
    <ellipse cx="608" cy="506.8" rx="4" ry="2"/>
    <ellipse cx="630" cy="507.6" rx="4" ry="2"/>
    <ellipse cx="652" cy="506.4" rx="4" ry="2"/>
    <ellipse cx="674" cy="505.2" rx="4" ry="2"/>
    <ellipse cx="696" cy="504" rx="4" ry="2"/>
    <ellipse cx="718" cy="505.6" rx="4" ry="2"/>
    <ellipse cx="740" cy="507.2" rx="4" ry="2"/>
    <ellipse cx="762" cy="508.4" rx="4" ry="2"/>
    <ellipse cx="784" cy="509.2" rx="4" ry="2"/>
    <ellipse cx="806" cy="509.6" rx="4" ry="2"/>
  </g>
</svg>
