<svg viewBox="0 0 1024 1024" xmlns="http://www.w3.org/2000/svg">
  <defs>
    <clipPath id="face-clip">
      <ellipse cx="130" cy="512" rx="70" ry="350"/>
    </clipPath>
  </defs>
  <rect x="0" y="0" width="1024" height="1024" rx="180" ry="180" fill="#1F5F66"/>
  <path d="M 130 162 L 894 162 A 70 350 0 0 1 894 862 L 130 862 Z" fill="#D5DCE0"/>
  <g clip-path="url(#face-clip)">
    <rect x="60" y="162" width="140" height="350" fill="#0F4046"/>
    <rect x="60" y="512" width="140" height="350" fill="#1F5F66"/>
  </g>
  <rect x="218" y="442.00" width="44" height="140.00" rx="22" ry="22" fill="#0F4046"/>
  <rect x="276" y="391.83" width="44" height="215.62" rx="22" ry="22" fill="#0F4046"/>
  <rect x="334" y="336.94" width="44" height="303.10" rx="22" ry="22" fill="#0F4046"/>
  <rect x="392" y="275.66" width="44" height="407.97" rx="22" ry="22" fill="#0F4046"/>
  <rect x="450" y="336.34" width="44" height="275.23" rx="22" ry="22" fill="#0F4046"/>
  <rect x="508" y="253.17" width="44" height="437.67" rx="22" ry="22" fill="#0F4046"/>
  <rect x="566" y="247.94" width="44" height="452.04" rx="22" ry="22" fill="#FBB83D"/>
  <rect x="624" y="313.01" width="44" height="333.26" rx="22" ry="22" fill="#0F4046"/>
  <rect x="682" y="378.07" width="44" height="220.85" rx="22" ry="22" fill="#0F4046"/>
  <rect x="740" y="437.43" width="44" height="124.43" rx="22" ry="22" fill="#0F4046"/>
  <rect x="798" y="482.00" width="44" height="60.00" rx="22" ry="22" fill="#0F4046"/>
</svg>
