<svg xmlns="http://www.w3.org/2000/svg" viewBox="0 0 1024 1024">
  <defs>
    <clipPath id="face-clip">
      <ellipse cx="130" cy="512" rx="70" ry="350"/>
    </clipPath>
  </defs>
  <rect x="0" y="0" width="1024" height="1024" rx="180" ry="180" fill="#1F5F66"/>
  <path d="M 130 162 L 894 162 A 70 350 0 0 1 894 862 L 130 862 Z" fill="#D5DCE0"/>
  <g clip-path="url(#face-clip)">
    <rect x="60" y="162" width="140" height="350" fill="#0F4046"/>
    <rect x="60" y="512" width="140" height="350" fill="#1F5F66"/>
  </g>
  <rect x="218" y="442" width="44" height="140" rx="22" ry="22" fill="#0F4046"/>
  <rect x="276" y="402" width="44" height="220" rx="22" ry="22" fill="#0F4046"/>
  <rect x="334" y="352" width="44" height="320" rx="22" ry="22" fill="#0F4046"/>
  <rect x="392" y="287" width="44" height="450" rx="22" ry="22" fill="#0F4046"/>
  <rect x="450" y="352" width="44" height="320" rx="22" ry="22" fill="#0F4046"/>
  <rect x="508" y="242" width="44" height="540" rx="22" ry="22" fill="#0F4046"/>
  <rect x="566" y="218" width="44" height="588" rx="22" ry="22" fill="#FBB83D"/>
  <rect x="624" y="291.2" width="44" height="441.6" rx="22" ry="22" fill="#0F4046"/>
  <rect x="682" y="368.5" width="44" height="287" rx="22" ry="22" fill="#0F4046"/>
  <rect x="740" y="437.2" width="44" height="149.6" rx="22" ry="22" fill="#0F4046"/>
  <rect x="798" y="482" width="44" height="60" rx="22" ry="22" fill="#0F4046"/>
</svg>
