<svg xmlns="http://www.w3.org/2000/svg" viewBox="0 0 1024 1024" width="1024" height="1024">
  <defs>
    <clipPath id="face-clip">
      <ellipse cx="130" cy="512" rx="70" ry="350"/>
    </clipPath>
  </defs>
  <rect x="0" y="0" width="1024" height="1024" rx="180" ry="180" fill="#1F5F66"/>
  <path d="M 130 162 L 894 162 A 70 350 0 0 1 894 862 L 130 862 Z" fill="#D5DCE0"/>
  <g clip-path="url(#face-clip)">
    <rect x="60" y="162" width="140" height="350" fill="#0F4046"/>
    <rect x="60" y="512" width="140" height="350" fill="#1F5F66"/>
  </g>
  <path d="M 275.000 464.000 A 22 22 0 0 1 319.000 464.000 Q 369.000 512.000 319.000 560.000 A 22 22 0 0 1 275.000 560.000 Q 325.000 512.000 275.000 464.000 Z" fill="#0F4046"/>
  <path d="M 333.000 424.000 A 22 22 0 0 1 377.000 424.000 Q 427.000 512.000 377.000 600.000 A 22 22 0 0 1 333.000 600.000 Q 383.000 512.000 333.000 424.000 Z" fill="#0F4046"/>
  <path d="M 391.000 374.000 A 22 22 0 0 1 435.000 374.000 Q 485.000 512.000 435.000 650.000 A 22 22 0 0 1 391.000 650.000 Q 441.000 512.000 391.000 374.000 Z" fill="#0F4046"/>
  <path d="M 449.000 309.000 A 22 22 0 0 1 493.000 309.000 Q 543.000 512.000 493.000 715.000 A 22 22 0 0 1 449.000 715.000 Q 499.000 512.000 449.000 309.000 Z" fill="#0F4046"/>
  <path d="M 507.000 374.000 A 22 22 0 0 1 551.000 374.000 Q 601.000 512.000 551.000 650.000 A 22 22 0 0 1 507.000 650.000 Q 557.000 512.000 507.000 374.000 Z" fill="#0F4046"/>
  <path d="M 565.000 264.000 A 22 22 0 0 1 609.000 264.000 Q 659.000 512.000 609.000 760.000 A 22 22 0 0 1 565.000 760.000 Q 615.000 512.000 565.000 264.000 Z" fill="#0F4046"/>
  <path d="M 623.000 239.400 A 22 22 0 0 1 667.000 239.400 Q 717.000 512.000 667.000 784.600 A 22 22 0 0 1 623.000 784.600 Q 673.000 512.000 623.000 239.400 Z" fill="#FBB83D"/>
  <path d="M 681.000 311.280 A 22 22 0 0 1 725.000 311.280 Q 775.000 512.000 725.000 712.720 A 22 22 0 0 1 681.000 712.720 Q 731.000 512.000 681.000 311.280 Z" fill="#0F4046"/>
  <path d="M 739.000 387.350 A 22 22 0 0 1 783.000 387.350 Q 833.000 512.000 783.000 636.650 A 22 22 0 0 1 739.000 636.650 Q 789.000 512.000 739.000 387.350 Z" fill="#0F4046"/>
  <path d="M 797.000 455.680 A 22 22 0 0 1 841.000 455.680 Q 891.000 512.000 841.000 568.320 A 22 22 0 0 1 797.000 568.320 Q 847.000 512.000 797.000 455.680 Z" fill="#0F4046"/>
  <path d="M 855.000 501.000 A 22 22 0 0 1 899.000 501.000 Q 949.000 512.000 899.000 523.000 A 22 22 0 0 1 855.000 523.000 Q 905.000 512.000 855.000 501.000 Z" fill="#0F4046"/>
</svg>
