<svg xmlns="http://www.w3.org/2000/svg" viewBox="0 0 1024 1024">
  <defs>
    <clipPath id="face-clip">
      <ellipse cx="130" cy="512" rx="70" ry="350"/>
    </clipPath>
  </defs>
  <rect x="0" y="0" width="1024" height="1024" rx="180" ry="180" fill="#1F5F66"/>
  <path d="M 130 162 L 894 162 A 70 350 0 0 1 894 862 L 130 862 Z" fill="#D5DCE0"/>
  <g clip-path="url(#face-clip)">
    <rect x="60" y="162" width="140" height="350" fill="#0F4046"/>
    <rect x="60" y="512" width="140" height="350" fill="#1F5F66"/>
  </g>
  <path d="M 275.00 464.00 A 22 22 0 0 1 319.00 464.00 Q 399.00 512.00 319.00 560.00 A 22 22 0 0 1 275.00 560.00 Q 355.00 512.00 275.00 464.00 Z" fill="#0F4046"/>
  <path d="M 333.00 424.00 A 22 22 0 0 1 377.00 424.00 Q 457.00 512.00 377.00 600.00 A 22 22 0 0 1 333.00 600.00 Q 413.00 512.00 333.00 424.00 Z" fill="#0F4046"/>
  <path d="M 391.00 374.00 A 22 22 0 0 1 435.00 374.00 Q 515.00 512.00 435.00 650.00 A 22 22 0 0 1 391.00 650.00 Q 471.00 512.00 391.00 374.00 Z" fill="#0F4046"/>
  <path d="M 449.00 309.00 A 22 22 0 0 1 493.00 309.00 Q 573.00 512.00 493.00 715.00 A 22 22 0 0 1 449.00 715.00 Q 529.00 512.00 449.00 309.00 Z" fill="#0F4046"/>
  <path d="M 507.00 374.00 A 22 22 0 0 1 551.00 374.00 Q 631.00 512.00 551.00 650.00 A 22 22 0 0 1 507.00 650.00 Q 587.00 512.00 507.00 374.00 Z" fill="#0F4046"/>
  <path d="M 565.00 264.00 A 22 22 0 0 1 609.00 264.00 Q 689.00 512.00 609.00 760.00 A 22 22 0 0 1 565.00 760.00 Q 645.00 512.00 565.00 264.00 Z" fill="#0F4046"/>
  <path d="M 623.00 239.40 A 22 22 0 0 1 667.00 239.40 Q 747.00 512.00 667.00 784.60 A 22 22 0 0 1 623.00 784.60 Q 703.00 512.00 623.00 239.40 Z" fill="#FBB83D"/>
  <path d="M 681.00 311.28 A 22 22 0 0 1 725.00 311.28 Q 805.00 512.00 725.00 712.72 A 22 22 0 0 1 681.00 712.72 Q 761.00 512.00 681.00 311.28 Z" fill="#0F4046"/>
  <path d="M 739.00 387.35 A 22 22 0 0 1 783.00 387.35 Q 863.00 512.00 783.00 636.65 A 22 22 0 0 1 739.00 636.65 Q 819.00 512.00 739.00 387.35 Z" fill="#0F4046"/>
  <path d="M 797.00 455.68 A 22 22 0 0 1 841.00 455.68 Q 921.00 512.00 841.00 568.32 A 22 22 0 0 1 797.00 568.32 Q 877.00 512.00 797.00 455.68 Z" fill="#0F4046"/>
  <path d="M 855.00 501.00 A 22 22 0 0 1 899.00 501.00 Q 979.00 512.00 899.00 523.00 A 22 22 0 0 1 855.00 523.00 Q 935.00 512.00 855.00 501.00 Z" fill="#0F4046"/>
</svg>
