<svg xmlns="http://www.w3.org/2000/svg" viewBox="0 0 1024 1024">
  <g id="background">
    <rect x="0" y="0" width="1024" height="1024" rx="180" ry="180" fill="#1F5F66"/>
  </g>
  <g id="frame">
    <rect x="20" y="20" width="984" height="984" rx="162" ry="162" fill="none" stroke="#D2E7E8" stroke-width="14" stroke-opacity="0.32"/>
  </g>
  <g id="spiral">
    <polyline points="644.5,512.0 644.8,512.7 645.2,513.4 645.5,514.1 645.8,514.8 646.1,515.5 646.4,516.2 646.6,516.9 646.8,517.7 647.0,518.4 647.2,519.1 647.3,519.8 647.5,520.5 647.6,521.2 647.7,522.0 647.8,522.7 647.8,523.4 647.9,524.1 647.9,524.8 647.9,525.6 647.9,526.3 647.9,527.0 647.8,527.7 647.8,528.4 647.7,529.1 647.6,529.9 647.4,530.6 647.3,531.3 647.2,532.0 647.0,532.7 646.8,533.4 646.6,534.0 646.3,534.7 646.0,535.4 645.7,536.1 645.4,536.7 645.0,537.4 644.5,538.0 643.9,538.6 642.4,539.0 641.6,539.6 641.1,540.1 640.6,540.8 640.2,541.4 639.9,542.0 639.6,542.6 639.3,543.3 639.0,543.9 638.7,544.5 638.5,545.2 638.2,545.8 638.0,546.5 637.8,547.1 637.6,547.8 637.4,548.4 637.2,549.1 637.0,549.8 636.9,550.4 636.7,551.1 636.6,551.8 636.5,552.5 636.3,553.1 636.2,553.8 636.1,554.5 636.0,555.2 636.0,555.9 635.9,556.6 635.8,557.3 635.8,558.0 635.7,558.8 635.7,559.5 635.7,560.2 635.7,561.0 635.7,561.7 635.7,562.5 635.7,563.3 635.8,564.1 635.9,564.8 636.0,565.7 636.1,566.5 636.3,567.4 636.7,568.3 637.9,569.6 638.3,570.6 638.5,571.5 638.6,572.4 638.6,573.2 638.7,574.1 638.7,574.9 638.6,575.7 638.6,576.5 638.5,577.3 638.4,578.1 638.2,578.9 638.1,579.6 637.9,580.4 637.8,581.2 637.6,581.9 637.3,582.6 637.1,583.4 636.9,584.1 636.6,584.8 636.3,585.5 636.0,586.2 635.7,586.9 635.4,587.6 635.0,588.3 634.6,589.0 634.3,589.6 633.9,590.3 633.5,590.9 633.0,591.5 632.6,592.2 632.1,592.8 631.7,593.3 631.2,593.9 630.7,594.5 630.1,595.1 629.6,595.6 629.0,596.1 628.4,596.6 627.8,597.1 627.1,597.5 626.4,597.9 625.4,598.1 623.8,597.8 623.0,598.1 622.2,598.5 621.6,598.9 620.9,599.3 620.3,599.7 619.7,600.2 619.2,600.7 618.6,601.2 618.1,601.7 617.5,602.2 617.0,602.7 616.5,603.2 616.0,603.7 615.5,604.3 615.0,604.8 614.6,605.4 614.1,605.9 613.6,606.5 613.2,607.1 612.7,607.6 612.3,608.2 611.9,608.8 611.4,609.4 611.0,610.0 610.6,610.7 610.2,611.3 609.8,611.9 609.4,612.6 609.0,613.2 608.7,613.9 608.3,614.6 607.9,615.3 607.6,616.0 607.2,616.7 606.9,617.4 606.5,618.1 606.2,618.9 605.9,619.7 605.6,620.5 605.4,621.4 605.2,622.3 605.1,623.4 605.6,625.1 605.4,626.2 605.1,627.1 604.8,627.9 604.5,628.7 604.1,629.5 603.7,630.2 603.2,631.0 602.8,631.7 602.3,632.4 601.9,633.1 601.4,633.7 600.9,634.4 600.4,635.0 599.8,635.7 599.3,636.3 598.7,636.9 598.2,637.4 597.6,638.0 597.0,638.6 596.4,639.1 595.8,639.6 595.2,640.1 594.5,640.6 593.9,641.1 593.2,641.5 592.5,642.0 591.9,642.4 591.2,642.8 590.5,643.2 589.8,643.6 589.1,644.0 588.3,644.3 587.6,644.6 586.9,645.0 586.1,645.2 585.3,645.5 584.6,645.7 583.8,645.9 582.9,646.1 582.1,646.2 581.2,646.2 580.2,645.9 578.9,645.0 578.0,645.0 577.1,645.0 576.3,645.1 575.5,645.3 574.7,645.4 574.0,645.6 573.2,645.8 572.5,646.0 571.7,646.3 571.0,646.5 570.3,646.8 569.5,647.0 568.8,647.3 568.1,647.6 567.4,647.9 566.7,648.2 566.0,648.5 565.3,648.9 564.6,649.2 563.9,649.6 563.2,649.9 562.5,650.3 561.9,650.7 561.2,651.0 560.5,651.4 559.8,651.8 559.2,652.3 558.5,652.7 557.8,653.1 557.1,653.6 556.5,654.1 555.8,654.5 555.1,655.0 554.5,655.5 553.8,656.1 553.1,656.6 552.5,657.2 551.8,657.8 551.2,658.4 550.5,659.1 549.9,659.9 549.5,661.4 549.0,662.7 548.3,663.5 547.6,664.2 546.9,664.8 546.2,665.3 545.5,665.9 544.8,666.4 544.0,666.9 543.3,667.3 542.5,667.7 541.7,668.2 541.0,668.5 540.2,668.9 539.4,669.3 538.6,669.7 537.8,670.1 537.0,670.5 536.2,670.8 535.4,671.1 534.6,671.4 533.8,671.7 533.0,672.0 532.2,672.2 531.4,672.5 530.5,672.7 529.7,672.8 528.9,673.0 528.0,673.1 527.2,673.3 526.3,673.3 525.5,673.4 524.6,673.4 523.8,673.4 522.9,673.4 522.1,673.4 521.2,673.3 520.4,673.1 519.5,672.9 518.7,672.7 517.8,672.3 517.0,671.9 516.1,671.3 515.2,669.3 514.4,668.2 513.6,667.6 512.7,667.1 511.9,666.7 511.1,666.3 510.3,665.9 509.5,665.6 508.7,665.2 507.9,665.0 507.1,664.7 506.3,664.4 505.6,664.2 504.8,664.0 504.0,663.7 503.2,663.6 502.4,663.4 501.6,663.2 500.8,663.1 500.0,663.0 499.3,662.9 498.5,662.8 497.7,662.7 496.9,662.7 496.1,662.7 495.3,662.7 494.5,662.7 493.7,662.7 492.9,662.8 492.1,662.9 491.2,663.1 490.4,663.2 489.6,663.4 488.7,663.7 487.9,663.9 487.0,664.2 486.1,664.6 485.2,665.0 484.3,665.5 483.4,666.1 482.4,666.7 481.4,667.6 480.3,668.7 478.8,672.0 477.6,673.5 476.5,674.5 475.4,675.3 474.4,676.0 473.3,676.6 472.3,677.2 471.2,677.6 470.2,678.1 469.2,678.5 468.1,678.9 467.1,679.2 466.1,679.5 465.1,679.7 464.1,679.9 463.1,680.1 462.1,680.2 461.1,680.3 460.1,680.4 459.1,680.4 458.2,680.4 457.2,680.3 456.3,680.2 455.3,680.1 454.4,679.9 453.5,679.7 452.6,679.4 451.8,679.1 450.9,678.7 450.1,678.3 449.2,677.8 448.5,677.3 447.7,676.7 446.9,676.1 446.2,675.4 445.5,674.6 444.9,673.8 444.3,672.8 443.7,671.8 443.2,670.6 442.8,669.3 442.6,667.7 442.5,665.6 443.8,660.7 443.9,658.4 443.8,656.7 443.6,655.3 443.3,654.0 443.0,652.7 442.6,651.6 442.2,650.5 441.9,649.5 441.5,648.5 441.0,647.6 440.6,646.7 440.1,645.8 439.7,645.0 439.2,644.3 438.7,643.6 438.1,642.9 437.6,642.3 437.0,641.7 436.4,641.1 435.8,640.6 435.2,640.2 434.5,639.7 433.9,639.4 433.1,639.0 432.4,638.7 431.6,638.5 430.8,638.3 430.0,638.2 429.1,638.1 428.1,638.1 427.2,638.1 426.2,638.2 425.1,638.3 424.0,638.5 422.8,638.8 421.5,639.1 420.2,639.6 418.8,640.1 417.2,640.8 415.5,641.8 413.5,643.0 410.9,645.0 405.9,650.2 403.3,651.9 401.3,653.1 399.4,653.9 397.6,654.6 395.9,655.2 394.2,655.7 392.7,656.1 391.1,656.4 389.6,656.6 388.2,656.8 386.8,656.8 385.5,656.9 384.1,656.8 382.9,656.7 381.7,656.6 380.5,656.4 379.3,656.1 378.2,655.7 377.2,655.4 376.2,654.9 375.3,654.4 374.4,653.8 373.6,653.2 372.8,652.5 372.1,651.7 371.4,650.9 370.9,650.0 370.3,649.1 369.9,648.1 369.5,647.0 369.2,645.9 369.0,644.7 368.9,643.4 368.9,642.0 369.0,640.6 369.2,639.1 369.5,637.4 370.0,635.7 370.8,633.8 371.8,631.6 373.3,629.1 376.2,625.4 382.3,619.1 384.4,616.3 385.8,614.0 387.0,612.0 388.0,610.2 388.8,608.5 389.5,606.9 390.2,605.4 390.7,603.9 391.2,602.6 391.6,601.3 391.9,600.1 392.2,598.9 392.4,597.8 392.6,596.8 392.6,595.8 392.6,594.8 392.6,593.9 392.5,593.1 392.3,592.3 392.0,591.6 391.6,590.9 391.2,590.3 390.7,589.7 390.1,589.2 389.4,588.8 388.7,588.3 387.8,588.0 386.9,587.6 385.9,587.4 384.7,587.1 383.5,587.0 382.1,586.9 380.7,586.8 379.0,586.8 377.3,586.8 375.4,587.0 373.3,587.2 370.9,587.5 368.3,588.0 365.2,588.6 361.4,589.6 354.7,592.0 345.3,595.7 341.2,596.6 337.8,597.2 334.8,597.5 332.1,597.6 329.6,597.6 327.3,597.6 325.1,597.4 323.1,597.1 321.2,596.8 319.4,596.4 317.7,595.9 316.1,595.4 314.6,594.8 313.2,594.2 312.0,593.5 310.8,592.7 309.7,591.9 308.8,591.1 307.9,590.2 307.2,589.2 306.6,588.2 306.1,587.2 305.7,586.1 305.4,585.0 305.3,583.8 305.2,582.6 305.3,581.4 305.6,580.1 305.9,578.8 306.4,577.4 307.1,576.0 307.9,574.6 308.8,573.2 310.0,571.7 311.3,570.1 312.9,568.6 314.7,566.9 316.8,565.2 319.3,563.5 322.4,561.6 326.5,559.5 338.0,555.6 345.1,552.9 349.1,551.0 352.3,549.3 355.0,547.8 357.4,546.4 359.5,545.1 361.4,543.9 363.1,542.7 364.7,541.6 366.1,540.5 367.4,539.5 368.5,538.5 369.5,537.5 370.4,536.6 371.2,535.7 371.8,534.8 372.3,534.0 372.7,533.2 372.9,532.4 373.1,531.7 373.1,530.9 373.0,530.2 372.7,529.5 372.4,528.8 371.9,528.1 371.2,527.4 370.5,526.8 369.6,526.1 368.5,525.4 367.3,524.8 366.0,524.1 364.5,523.5 362.8,522.8 361.0,522.2 359.0,521.5 356.8,520.8 354.3,520.1 351.6,519.4 348.5,518.7 345.0,518.0 340.7,517.2 335.1,516.5 320.5,515.8 313.2,515.0 308.4,514.0 304.5,512.9 301.1,511.8 298.1,510.7 295.5,509.5 293.0,508.4 290.8,507.2 288.8,506.0 287.0,504.7 285.3,503.5 283.9,502.2 282.5,501.0 281.4,499.7 280.3,498.4 279.5,497.2 278.8,495.9 278.2,494.6 277.8,493.4 277.5,492.1 277.4,490.8 277.4,489.6 277.6,488.4 277.9,487.2 278.4,486.0 279.0,484.8 279.7,483.7 280.7,482.6 281.7,481.5 283.0,480.4 284.4,479.4 285.9,478.4 287.7,477.5 289.6,476.6 291.7,475.7 294.1,474.9 296.7,474.2 299.5,473.6 302.8,473.0 306.5,472.6 311.0,472.4 317.2,472.5 332.5,474.6 339.2,475.1 343.9,475.2 347.7,475.1 351.0,475.0 353.9,474.8 356.6,474.5 359.0,474.3 361.1,474.0 363.1,473.6 364.9,473.3 366.5,472.9 368.0,472.5 369.3,472.0 370.4,471.5 371.5,471.0 372.3,470.5 373.1,469.9 373.7,469.3 374.1,468.6 374.5,468.0 374.7,467.2 374.7,466.5 374.6,465.6 374.4,464.8 374.1,463.8 373.7,462.9 373.1,461.8 372.3,460.7 371.5,459.6 370.5,458.4 369.4,457.1 368.1,455.7 366.7,454.3 365.1,452.8 363.4,451.2 361.4,449.5 359.3,447.6 356.9,445.7 354.2,443.5 351.0,441.1 347.1,438.4 341.4,434.8 327.8,427.5 322.7,423.9 319.1,421.0 316.2,418.4 313.8,415.9 311.8,413.7 310.0,411.5 308.5,409.4 307.1,407.4 306.0,405.4 305.1,403.6 304.3,401.8 303.7,400.0 303.2,398.4 302.9,396.8 302.7,395.2 302.6,393.7 302.7,392.3 302.9,391.0 303.3,389.7 303.7,388.5 304.3,387.4 305.1,386.4 305.9,385.4 306.9,384.5 307.9,383.7 309.1,383.0 310.4,382.3 311.9,381.7 313.4,381.3 315.1,380.9 316.9,380.6 318.8,380.4 320.8,380.3 322.9,380.3 325.2,380.5 327.7,380.7 330.3,381.2 333.2,381.8 336.3,382.7 339.8,383.9 344.0,385.6 350.0,388.8 361.5,396.3 366.2,398.7 369.8,400.3 372.9,401.5 375.5,402.4 378.0,403.2 380.1,403.8 382.1,404.3 384.0,404.7 385.7,405.0 387.2,405.2 388.7,405.3 390.0,405.3 391.2,405.2 392.3,405.1 393.2,404.8 394.1,404.5 394.9,404.1 395.6,403.6 396.2,403.0 396.8,402.4 397.2,401.7 397.5,400.8 397.8,399.9 398.0,398.9 398.1,397.9 398.1,396.7 398.1,395.4 398.0,394.1 397.8,392.6 397.5,391.1 397.2,389.5 396.8,387.7 396.3,385.9 395.7,383.9 395.1,381.9 394.3,379.6 393.5,377.2 392.5,374.7 391.3,371.8 389.8,368.6 387.8,364.7 384.1,358.7 377.7,349.3 375.7,345.1 374.5,341.8 373.6,338.9 373.0,336.2 372.6,333.8 372.4,331.6 372.3,329.5 372.3,327.5 372.4,325.7 372.7,323.9 373.0,322.3 373.4,320.8 373.9,319.4 374.5,318.1 375.2,316.9 375.9,315.8 376.8,314.7 377.6,313.8 378.6,313.0 379.6,312.2 380.7,311.6 381.8,311.0 383.0,310.6 384.3,310.2 385.6,310.0 386.9,309.8 388.3,309.7 389.8,309.7 391.3,309.8 392.9,310.0 394.5,310.3 396.1,310.7 397.8,311.2 399.5,311.9 401.3,312.6 403.2,313.5 405.1,314.6 407.1,315.9 409.2,317.4 411.5,319.3 414.1,321.8 419.0,328.9 422.8,334.1 425.2,336.6 427.2,338.4 429.0,339.8 430.7,341.0 432.2,342.0 433.7,342.8 435.1,343.5 436.4,344.0 437.6,344.5 438.8,344.8 440.0,345.0 441.1,345.2 442.1,345.2 443.1,345.2 444.1,345.1 445.1,344.9 446.0,344.6 446.8,344.3 447.7,343.8 448.5,343.3 449.3,342.8 450.1,342.1 450.8,341.4 451.5,340.6 452.2,339.7 452.9,338.8 453.6,337.7 454.2,336.7 454.9,335.5 455.5,334.3 456.1,333.0 456.7,331.6 457.3,330.1 457.9,328.6 458.5,326.9 459.0,325.2 459.6,323.3 460.1,321.2 460.5,319.0 460.9,316.4 461.2,313.2 460.4,305.4 460.5,301.1 461.0,298.3 461.6,296.1 462.4,294.1 463.2,292.4 464.1,290.9 465.0,289.5 465.9,288.2 466.9,287.1 468.0,286.0 469.0,285.1 470.1,284.2 471.2,283.4 472.3,282.7 473.4,282.1 474.6,281.6 475.7,281.2 476.9,280.8 478.1,280.5 479.3,280.3 480.5,280.1 481.8,280.0 483.0,280.0 484.2,280.1 485.5,280.2 486.7,280.4 488.0,280.6 489.2,280.9 490.5,281.3 491.7,281.7 493.0,282.2 494.3,282.8 495.5,283.4 496.8,284.1 498.0,284.9 499.2,285.7 500.5,286.7 501.7,287.7 502.9,288.9 504.2,290.2 505.4,291.9 506.6,294.1 507.8,299.8 509.0,302.3 510.1,303.9 511.2,305.2 512.3,306.3 513.3,307.2 514.4,308.0 515.5,308.6 516.5,309.2 517.6,309.7 518.6,310.2 519.7,310.6 520.7,310.9 521.7,311.1 522.8,311.4 523.8,311.5 524.9,311.6 525.9,311.7 527.0,311.7 528.0,311.7 529.1,311.6 530.2,311.5 531.2,311.4 532.3,311.2 533.4,311.0 534.5,310.7 535.6,310.4 536.7,310.1 537.8,309.8 539.0,309.4 540.1,308.9 541.2,308.5 542.4,308.0 543.6,307.5 544.8,306.9 546.0,306.3 547.2,305.7 548.4,305.0 549.7,304.3 550.9,303.4 552.3,302.5 553.6,301.4 555.1,299.8 557.1,295.9 558.6,294.4 560.0,293.5 561.3,292.7 562.7,292.1 564.0,291.7 565.3,291.3 566.6,291.0 567.9,290.8 569.2,290.6 570.4,290.5 571.7,290.5 572.9,290.5 574.2,290.5 575.4,290.6 576.6,290.7 577.8,290.9 579.0,291.1 580.2,291.4 581.4,291.7 582.5,292.0 583.7,292.4 584.8,292.8 586.0,293.2 587.1,293.7 588.2,294.2 589.3,294.7 590.4,295.3 591.4,295.9 592.5,296.5 593.5,297.1 594.6,297.8 595.6,298.5 596.6,299.2 597.6,300.0 598.5,300.8 599.5,301.6 600.4,302.5 601.3,303.4 602.2,304.4 603.0,305.4 603.8,306.6 604.4,308.2 604.4,311.0 605.0,312.3 605.8,313.4 606.7,314.3 607.5,315.1 608.4,315.9 609.3,316.7 610.2,317.4 611.2,318.0 612.1,318.7 613.1,319.3 614.1,319.9 615.0,320.5 616.0,321.0 617.0,321.6 618.1,322.1 619.1,322.6 620.1,323.1 621.1,323.6 622.2,324.1 623.3,324.5 624.3,325.0 625.4,325.4 626.5,325.8 627.6,326.2 628.7,326.6 629.8,327.0 630.9,327.4 632.0,327.8 633.1,328.2 634.3,328.6 635.4,329.0 636.5,329.3 637.7,329.7 638.9,330.0 640.1,330.4 641.2,330.7 642.4,331.0 643.7,331.3 644.9,331.6 646.2,331.9 647.5,332.1 649.1,332.0 651.0,331.4 652.4,331.6 653.6,331.9 654.8,332.3 656.0,332.8 657.2,333.3 658.3,333.8 659.5,334.3 660.6,334.8 661.7,335.4 662.8,336.0 663.9,336.6 664.9,337.2 666.0,337.9 667.0,338.5 668.1,339.2 669.1,339.9 670.1,340.6 671.1,341.4 672.0,342.1 673.0,342.9 674.0,343.6 674.9,344.4 675.8,345.2 676.7,346.1 677.6,346.9 678.5,347.7 679.4,348.6 680.2,349.5 681.0,350.4 681.9,351.3 682.7,352.2 683.4,353.2 684.2,354.1 685.0,355.1 685.7,356.1 686.4,357.1 687.1,358.1 687.7,359.2 688.3,360.3 688.9,361.4 689.3,362.6 689.4,364.1 689.3,365.8 689.7,367.0 690.2,368.1 690.8,369.2 691.3,370.3 691.9,371.4 692.6,372.4 693.2,373.4 693.8,374.4 694.5,375.4 695.1,376.4 695.8,377.4 696.5,378.4 697.1,379.4 697.8,380.4 698.5,381.4 699.2,382.3 699.9,383.3 700.6,384.2 701.4,385.2 702.1,386.1 702.8,387.1 703.6,388.0 704.3,389.0 705.1,389.9 705.8,390.8 706.6,391.8 707.4,392.7 708.2,393.6 709.0,394.5 709.8,395.4 710.6,396.4 711.4,397.3 712.3,398.2 713.1,399.1 714.0,400.0 714.9,400.9 715.8,401.8 716.7,402.7 717.7,403.5 718.7,404.4 719.8,405.1 721.7,405.6 723.2,406.2 724.2,407.1 725.2,408.0 726.2,408.9 727.1,409.8 727.9,410.8 728.8,411.8 729.6,412.8 730.4,413.8 731.1,414.9 731.9,415.9 732.6,417.0 733.3,418.0 734.0,419.1 734.6,420.2 735.3,421.3 735.9,422.4 736.5,423.5 737.1,424.7 737.6,425.8 738.2,427.0 738.7,428.1 739.2,429.3 739.7,430.4 740.2,431.6 740.6,432.8 741.1,434.0 741.5,435.2 741.9,436.4 742.2,437.6 742.6,438.8 742.9,440.1 743.2,441.3 743.5,442.5 743.7,443.8 744.0,445.0 744.2,446.3 744.3,447.6 744.5,448.8 744.5,450.1 744.5,451.4 744.4,452.8 743.3,454.3 743.0,455.7 742.9,457.0 742.9,458.3 742.9,459.5 743.0,460.8 743.1,462.0 743.2,463.3 743.3,464.5 743.5,465.7 743.6,467.0 743.8,468.2 744.0,469.4 744.2,470.6 744.4,471.9 744.6,473.1 744.8,474.3 745.0,475.5 745.2,476.7 745.5,477.9 745.7,479.1 746.0,480.4 746.2,481.6 746.5,482.8 746.8,484.0 747.1,485.2 747.4,486.4 747.7,487.6 748.0,488.9 748.3,490.1 748.6,491.3 749.0,492.5 749.3,493.7 749.7,495.0 750.0,496.2 750.4,497.4 750.8,498.6 751.2,499.9 751.7,501.1 752.1,502.4 752.6,503.6 753.2,504.8 754.0,506.1 755.7,507.3 756.4,508.6 757.0,509.9 757.5,511.1 757.9,512.4 758.3,513.7 758.6,515.0 759.0,516.3 759.2,517.6 759.5,518.9 759.7,520.2 759.9,521.5 760.1,522.8 760.3,524.1 760.4,525.5 760.5,526.8 760.6,528.1 760.7,529.4 760.7,530.7 760.7,532.0 760.8,533.3 760.7,534.6 760.7,536.0 760.7,537.3 760.6,538.6 760.5,539.9 760.4,541.2 760.2,542.5 760.1,543.8 759.9,545.1 759.7,546.4 759.4,547.7 759.2,549.0 758.9,550.2 758.6,551.5 758.3,552.8 757.9,554.0 757.5,555.3 757.1,556.6 756.7,557.8 756.1,559.0 755.5,560.2 754.7,561.4 753.0,562.4 752.2,563.5 751.6,564.7 751.0,565.9 750.5,567.1 750.1,568.3 749.6,569.5 749.2,570.7 748.8,571.9 748.3,573.1 747.9,574.4 747.6,575.6 747.2,576.8 746.8,578.0 746.5,579.2 746.1,580.5 745.8,581.7 745.4,582.9 745.1,584.2 744.8,585.4 744.4,586.7 744.1,587.9 743.8,589.1 743.5,590.4 743.3,591.7 743.0,592.9 742.7,594.2 742.4,595.4 742.2,596.7 741.9,598.0 741.7,599.3 741.4,600.6 741.2,601.8 741.0,603.1 740.8,604.5 740.6,605.8 740.4,607.1 740.2,608.4 740.1,609.8 739.9,611.1 739.9,612.5 739.9,614.0 740.1,615.5 741.0,617.4 741.1,618.8 741.0,620.3 740.8,621.7 740.6,623.0 740.4,624.4 740.1,625.7 739.8,627.1 739.4,628.4 739.1,629.7 738.7,631.0 738.3,632.3 737.8,633.6 737.4,634.9 736.9,636.2 736.4,637.5 735.9,638.7 735.4,640.0 734.8,641.2 734.2,642.4 733.6,643.6 733.0,644.9 732.4,646.1 731.8,647.2 731.1,648.4 730.4,649.6 729.7,650.7 729.0,651.9 728.3,653.0 727.5,654.1 726.7,655.3 725.9,656.3 725.1,657.4 724.3,658.5 723.4,659.5 722.5,660.6 721.6,661.6 720.7,662.6 719.8,663.6 718.8,664.5 717.7,665.4 716.6,666.2 715.2,666.8 713.3,667.1 712.1,667.9 711.0,668.7 710.0,669.6 709.0,670.5 708.1,671.4 707.1,672.3 706.2,673.3 705.2,674.2 704.3,675.2 703.4,676.1 702.5,677.1 701.6,678.0 700.7,679.0 699.8,680.0 699.0,681.0 698.1,682.0 697.2,683.0 696.4,684.0 695.5,685.0 694.6,686.0 693.8,687.0 693.0,688.1 692.1,689.1 691.3,690.1 690.5,691.2 689.6,692.2 688.8,693.3 688.0,694.3 687.2,695.4 686.4,696.5 685.6,697.6 684.8,698.7 684.0,699.8 683.2,700.9 682.4,702.0 681.6,703.2 680.9,704.3 680.1,705.5 679.4,706.7 678.7,708.0 678.1,709.3 678.0,711.3 677.6,713.0 676.9,714.3 676.2,715.6 675.4,716.8 674.6,717.9 673.7,719.1 672.8,720.2 671.9,721.3 671.0,722.3 670.1,723.4 669.1,724.4 668.1,725.4 667.1,726.4 666.1,727.4 665.1,728.4 664.1,729.3 663.0,730.2 662.0,731.2 660.9,732.1 659.8,732.9 658.7,733.8 657.6,734.6 656.5,735.5 655.3,736.3 654.2,737.1 653.0,737.8 651.9,738.6 650.7,739.3 649.5,740.0 648.3,740.7 647.0,741.4 645.8,742.1 644.6,742.7 643.3,743.3 642.0,743.9 640.8,744.5 639.5,745.0 638.2,745.5 636.8,746.0 635.5,746.4 634.1,746.7 632.7,746.9 630.8,746.3 629.3,746.3 627.9,746.6 626.5,746.9 625.2,747.3 623.8,747.7 622.5,748.1 621.2,748.6 619.9,749.0 618.6,749.5 617.4,750.0 616.1,750.5 614.8,751.0 613.6,751.5 612.3,752.0 611.0,752.5 609.8,753.0 608.5,753.6 607.3,754.1 606.0,754.7 604.8,755.2 603.5,755.8 602.3,756.3 601.0,756.9 599.8,757.5 598.6,758.1 597.3,758.7 596.1,759.3 594.9,759.9 593.6,760.5 592.4,761.1 591.1,761.8 589.9,762.4 588.7,763.1 587.4,763.8 586.2,764.4 585.0,765.1 583.7,765.8 582.5,766.6 581.3,767.3 580.1,768.2 578.9,769.0 577.7,770.0 576.7,772.0 575.5,773.1 574.3,774.0 573.0,774.8 571.8,775.5 570.5,776.2 569.2,776.8 567.8,777.4 566.5,778.0 565.2,778.6 563.8,779.1 562.5,779.7 561.1,780.1 559.7,780.6 558.4,781.1 557.0,781.5 555.6,781.9 554.2,782.3 552.8,782.6 551.4,783.0 550.0,783.3 548.6,783.6 547.2,783.9 545.8,784.1 544.4,784.4 542.9,784.6 541.5,784.8 540.1,784.9 538.7,785.1 537.2,785.2 535.8,785.3 534.4,785.4 532.9,785.5 531.5,785.6 530.1,785.6 528.6,785.6 527.2,785.6 525.7,785.5 524.3,785.4 522.9,785.3 521.4,785.0 520.0,784.7 518.5,784.1 517.1,782.4 515.6,781.7 514.2,781.2 512.8,780.8 511.4,780.5 510.0,780.2 508.6,779.9 507.2,779.6 505.8,779.3 504.4,779.1 503.0,778.9 501.6,778.6 500.2,778.4 498.9,778.2 497.5,778.0 496.1,777.8 494.7,777.6 493.3,777.4 491.9,777.3 490.5,777.1 489.2,777.0 487.8,776.8 486.4,776.7 485.0,776.6 483.6,776.5 482.2,776.5 480.8,776.4 479.4,776.4 478.0,776.4 476.6,776.4 475.2,776.4 473.8,776.5 472.3,776.6 470.9,776.7 469.5,776.8 468.0,777.0 466.5,777.2 465.1,777.5 463.6,777.8 462.0,778.2 460.5,778.7 458.9,779.4 457.2,780.5 455.2,783.3 453.5,784.3 451.8,785.0 450.2,785.5 448.6,786.0 447.0,786.4 445.4,786.7 443.8,787.0 442.2,787.2 440.6,787.4 439.0,787.6 437.5,787.7 435.9,787.8 434.3,787.9 432.7,787.9 431.2,787.9 429.6,787.8 428.1,787.7 426.5,787.6 425.0,787.4 423.5,787.2 422.0,786.9 420.5,786.6 419.0,786.3 417.5,785.9 416.1,785.5 414.6,785.0 413.2,784.5 411.8,784.0 410.4,783.3 409.0,782.7 407.7,782.0 406.3,781.2 405.0,780.3 403.8,779.5 402.5,778.5 401.3,777.4 400.2,776.3 399.1,775.1 398.0,773.7 397.1,772.2 396.3,770.3 395.9,767.6 396.4,763.0 395.8,760.8 395.0,759.1 394.2,757.4 393.4,756.0 392.5,754.5 391.6,753.2 390.6,751.9 389.7,750.7 388.7,749.4 387.8,748.3 386.8,747.2 385.8,746.1 384.8,745.0 383.8,744.0 382.7,743.0 381.7,742.1 380.6,741.2 379.5,740.3 378.4,739.4 377.2,738.6 376.1,737.9 374.9,737.2 373.7,736.5 372.5,735.8 371.2,735.2 370.0,734.7 368.6,734.2 367.3,733.7 365.9,733.3 364.5,732.9 363.0,732.6 361.5,732.3 360.0,732.1 358.3,732.0 356.7,731.9 354.9,731.9 353.1,732.0 351.2,732.2 349.2,732.6 346.9,733.2 344.4,734.1 340.5,736.8 335.8,740.5 333.1,741.5 330.7,742.1 328.4,742.5 326.2,742.8 324.1,742.9 322.0,743.0 320.0,742.9 318.1,742.8 316.2,742.6 314.3,742.3 312.5,742.0 310.7,741.6 309.0,741.1 307.3,740.6 305.7,740.0 304.1,739.4 302.5,738.7 301.0,737.9 299.6,737.1 298.2,736.2 296.8,735.3 295.5,734.3 294.3,733.2 293.1,732.1 292.0,730.9 291.0,729.7 290.0,728.4 289.1,727.0 288.2,725.6 287.5,724.1 286.8,722.5 286.2,720.8 285.7,719.1 285.3,717.3 285.0,715.4 284.8,713.4 284.8,711.3 284.9,709.1 285.3,706.7 286.0,704.1 287.3,700.9 292.7,694.5 295.5,690.2 296.8,687.2 297.7,684.6 298.4,682.3 298.9,680.0 299.3,677.9 299.6,675.9 299.8,674.0 300.0,672.1 300.0,670.3 300.0,668.6 300.0,667.0 299.8,665.3 299.7,663.8 299.4,662.3 299.1,660.8 298.7,659.5 298.3,658.1 297.8,656.8 297.2,655.6 296.6,654.4 295.9,653.2 295.1,652.1 294.2,651.1 293.3,650.1 292.3,649.1 291.2,648.2 290.0,647.3 288.7,646.5 287.3,645.7 285.9,645.0 284.3,644.3 282.6,643.7 280.8,643.1 278.9,642.6 276.9,642.1 274.6,641.7 272.2,641.4 269.6,641.2 266.6,641.2 263.1,641.3 258.7,641.9 248.3,645.6 242.7,646.6 238.8,646.8 235.4,646.6 232.4,646.3 229.6,645.8 227.0,645.2 224.6,644.6 222.3,643.8 220.1,642.9 218.0,642.0 216.1,641.0 214.3,639.9 212.6,638.8 210.9,637.7 209.4,636.4 208.0,635.2 206.7,633.8 205.5,632.4 204.5,631.0 203.5,629.5 202.6,628.0 201.9,626.5 201.2,624.8 200.7,623.2 200.3,621.5 200.0,619.8 199.8,618.0 199.8,616.2 199.8,614.4 200.0,612.5 200.4,610.6 200.9,608.6 201.5,606.7 202.3,604.6 203.3,602.6 204.4,600.5 205.8,598.4 207.4,596.2 209.3,594.0 211.7,591.7 214.7,589.2 219.1,586.4 230.8,581.9 235.6,579.1 238.9,576.8 241.5,574.7 243.8,572.7 245.7,570.8 247.4,569.0 249.0,567.2 250.3,565.5 251.6,563.8 252.7,562.2 253.6,560.6 254.5,559.0 255.2,557.5 255.8,556.0 256.3,554.6 256.7,553.1 257.0,551.7 257.1,550.3 257.2,549.0 257.1,547.6 256.9,546.3 256.6,544.9 256.2,543.6 255.7,542.3 255.1,541.1 254.4,539.8 253.5,538.5 252.5,537.2 251.4,536.0 250.2,534.7 248.8,533.4 247.3,532.1 245.6,530.9 243.8,529.6 241.9,528.3 239.7,527.0 237.4,525.7 234.8,524.4 231.8,523.0 228.4,521.7 224.3,520.3 218.4,518.9 205.1,517.6 199.8,516.1 195.8,514.5 192.6,512.8 189.8,511.2 187.3,509.4 185.0,507.7 183.0,506.0 181.2,504.2 179.5,502.4 178.1,500.6 176.7,498.8 175.6,497.0 174.5,495.2 173.6,493.4 172.9,491.6 172.3,489.7 171.8,487.9 171.5,486.1 171.3,484.3 171.2,482.5 171.3,480.7 171.4,478.9 171.8,477.1 172.2,475.4 172.8,473.6 173.5,471.9 174.3,470.2 175.3,468.6 176.4,466.9 177.6,465.3 179.0,463.7 180.5,462.2 182.2,460.6 184.0,459.2 186.0,457.7 188.2,456.3 190.6,455.0 193.2,453.8 196.2,452.6 199.7,451.6 203.9,450.7 210.2,450.3 222.6,451.3 227.4,450.7 231.1,450.0 234.2,449.1 236.9,448.2 239.3,447.3 241.5,446.3 243.5,445.3 245.3,444.2 247.0,443.2 248.5,442.1 249.9,441.0 251.1,439.9 252.3,438.7 253.3,437.5 254.2,436.3 255.0,435.1 255.6,433.8 256.2,432.6 256.7,431.2 257.1,429.9 257.3,428.5 257.5,427.1 257.6,425.6 257.6,424.1 257.4,422.6 257.2,421.0 256.9,419.4 256.5,417.7 256.0,416.0 255.4,414.2 254.7,412.4 253.9,410.6 253.0,408.6 252.0,406.7 250.9,404.6 249.6,402.5 248.1,400.2 246.5,397.9 244.6,395.4 242.4,392.8 239.4,389.8 234.1,385.6 225.3,379.8 222.3,376.6 220.2,373.7 218.6,371.1 217.3,368.6 216.3,366.1 215.5,363.8 214.8,361.5 214.3,359.3 214.0,357.1 213.8,355.0 213.7,353.0 213.7,351.0 213.9,349.1 214.1,347.2 214.5,345.3 215.0,343.6 215.6,341.8 216.3,340.2 217.0,338.5 217.9,337.0 218.9,335.5 219.9,334.0 221.1,332.6 222.3,331.3 223.6,330.0 225.0,328.7 226.5,327.6 228.0,326.5 229.7,325.4 231.4,324.4 233.2,323.5 235.1,322.7 237.1,321.9 239.1,321.2 241.3,320.6 243.6,320.1 246.0,319.7 248.5,319.4 251.2,319.3 254.3,319.5 257.9,320.1 265.3,323.7 270.8,325.8 274.1,326.4 276.9,326.6 279.3,326.5 281.6,326.3 283.6,326.0 285.6,325.6 287.4,325.1 289.1,324.5 290.7,323.9 292.2,323.2 293.7,322.5 295.0,321.6 296.3,320.8 297.6,319.9 298.7,318.9 299.9,317.9 300.9,316.8 301.9,315.7 302.9,314.5 303.8,313.3 304.6,312.0 305.4,310.7 306.2,309.3 306.9,307.9 307.6,306.4 308.2,304.9 308.8,303.3 309.4,301.7 309.9,300.0 310.4,298.3 310.8,296.5 311.2,294.7 311.6,292.8 311.9,290.9 312.2,288.8 312.4,286.7 312.6,284.5 312.7,282.2 312.7,279.8 312.5,277.1 311.9,273.9 308.7,267.4 307.6,263.5 307.4,260.6 307.6,258.1 308.0,255.8 308.5,253.7 309.1,251.7 309.8,249.8 310.7,248.0 311.5,246.3 312.5,244.7 313.5,243.1 314.6,241.6 315.7,240.2 316.9,238.8 318.1,237.5 319.4,236.3 320.7,235.1 322.1,233.9 323.5,232.9 324.9,231.9 326.4,230.9 327.9,230.0 329.5,229.1 331.1,228.3 332.7,227.6 334.3,226.9 336.0,226.3 337.7,225.7 339.4,225.1 341.2,224.7 342.9,224.2 344.7,223.9 346.6,223.5 348.4,223.3 350.3,223.1 352.2,222.9 354.2,222.9 356.1,222.9 358.1,223.0 360.2,223.3 362.4,223.8 364.8,224.8 368.6,228.5 371.0,229.7 373.1,230.2 375.1,230.4 376.9,230.5 378.7,230.5 380.5,230.4 382.2,230.2 383.9,229.9 385.5,229.6 387.1,229.2 388.7,228.8 390.3,228.4 391.8,227.9 393.3,227.4 394.8,226.8 396.3,226.2 397.8,225.5 399.3,224.9 400.8,224.2 402.2,223.4 403.7,222.7 405.1,221.9 406.5,221.1 407.9,220.2 409.3,219.4 410.8,218.5 412.2,217.6 413.6,216.6 415.0,215.7 416.4,214.7 417.8,213.7 419.2,212.6 420.5,211.6 421.9,210.5 423.3,209.4 424.7,208.2 426.1,207.0 427.5,205.8 428.9,204.5 430.2,203.1 431.6,201.6 432.8,199.7 433.6,195.9 434.9,194.1 436.4,192.7 437.8,191.5 439.4,190.5 440.9,189.5 442.5,188.6 444.1,187.8 445.7,187.0 447.3,186.3 449.0,185.6 450.6,185.0 452.3,184.4 454.0,183.8 455.7,183.4 457.4,182.9 459.1,182.5 460.8,182.1 462.5,181.8 464.2,181.4 465.9,181.2 467.7,180.9 469.4,180.7 471.1,180.5 472.9,180.4 474.6,180.2 476.4,180.2 478.1,180.1 479.9,180.1 481.6,180.1 483.4,180.1 485.1,180.1 486.9,180.2 488.7,180.3 490.4,180.4 492.2,180.6 493.9,180.8 495.7,181.0 497.4,181.3 499.2,181.6 500.9,182.0 502.7,182.6 504.4,183.4 506.2,185.2 507.9,185.8 509.6,186.3 511.3,186.6 513.0,186.8 514.7,187.1 516.4,187.2 518.1,187.4 519.8,187.5 521.5,187.6 523.2,187.7 524.9,187.8 526.6,187.9 528.3,187.9 530.0,188.0 531.7,188.0 533.4,188.0 535.1,188.1 536.8,188.1 538.5,188.1 540.2,188.1 541.9,188.2 543.6,188.2 545.3,188.3 547.0,188.3 548.7,188.4 550.5,188.4 552.2,188.4 553.9,188.5 555.6,188.5 557.3,188.5 559.1,188.5 560.8,188.5 562.5,188.5 564.3,188.5 566.0,188.4 567.8,188.4 569.5,188.3 571.3,188.3 573.1,188.2 574.9,188.0 576.7,187.7 578.5,187.2 580.6,186.0 582.4,185.8 584.2,185.6 586.0,185.6 587.8,185.6 589.6,185.6 591.4,185.7 593.2,185.8 595.0,185.9 596.8,186.1 598.5,186.3 600.3,186.5 602.1,186.8 603.8,187.0 605.6,187.3 607.3,187.7 609.1,188.0 610.8,188.4 612.6,188.8 614.3,189.2 616.0,189.6 617.7,190.1 619.4,190.5 621.1,191.0 622.8,191.6 624.5,192.1 626.2,192.7 627.9,193.3 629.5,193.9 631.2,194.5 632.9,195.2 634.5,195.9 636.1,196.6 637.7,197.3 639.3,198.1 640.9,198.9 642.5,199.7 644.1,200.5 645.6,201.4 647.2,202.4 648.6,203.4 650.1,204.5 651.3,206.1 652.4,207.8 653.8,209.0 655.3,210.0 656.7,211.0 658.2,211.9 659.7,212.9 661.2,213.8 662.7,214.7 664.2,215.6 665.7,216.5 667.3,217.3 668.8,218.2 670.3,219.0 671.8,219.9 673.3,220.7 674.9,221.6 676.4,222.4 677.9,223.3 679.5,224.1 681.0,224.9 682.5,225.7 684.1,226.5 685.6,227.4 687.2,228.2 688.8,229.0 690.3,229.8 691.9,230.6 693.4,231.4 695.0,232.1 696.6,232.9 698.2,233.7 699.8,234.5 701.4,235.3 703.0,236.0 704.6,236.8 706.2,237.5 707.9,238.3 709.5,239.0 711.2,239.7 712.9,240.4 714.6,241.1 716.4,241.6 718.7,241.5 720.7,241.8 722.5,242.4 724.2,243.1 725.9,243.9 727.5,244.7 729.2,245.6 730.8,246.5 732.4,247.4 733.9,248.3 735.5,249.3 737.0,250.3 738.6,251.3 740.1,252.3 741.6,253.3 743.0,254.4 744.5,255.5 746.0,256.6 747.4,257.7 748.8,258.8 750.2,260.0 751.6,261.2 753.0,262.4 754.3,263.6 755.7,264.8 757.0,266.0 758.3,267.3 759.6,268.6 760.9,269.9 762.1,271.2 763.4,272.5 764.6,273.9 765.8,275.2 767.0,276.6 768.1,278.0 769.3,279.4 770.4,280.9 771.5,282.3 772.5,283.8 773.6,285.3 774.5,286.9 775.5,288.5 776.3,290.2 776.3,292.5 777.0,294.3 777.8,295.9 778.7,297.5 779.6,299.0 780.6,300.6 781.6,302.1 782.5,303.6 783.5,305.1 784.5,306.6 785.5,308.0 786.6,309.5 787.6,311.0 788.6,312.4 789.6,313.9 790.7,315.4 791.7,316.8 792.7,318.3 793.8,319.7 794.8,321.2 795.9,322.6 796.9,324.0 798.0,325.5 799.1,326.9 800.2,328.4 801.2,329.8 802.3,331.2 803.4,332.7 804.5,334.1 805.6,335.5 806.7,337.0 807.8,338.4 808.9,339.8 810.1,341.2 811.2,342.7 812.3,344.1 813.5,345.5 814.7,346.9 815.9,348.3 817.1,349.7 818.4,351.1 819.7,352.5 821.2,353.7 823.5,354.6 825.0,355.9 826.3,357.3 827.5,358.8 828.7,360.2 829.8,361.7 830.9,363.2 832.0,364.8 833.0,366.3 834.1,367.9 835.1,369.5 836.0,371.1 837.0,372.7 837.9,374.3 838.8,375.9 839.7,377.6 840.5,379.2 841.4,380.9 842.2,382.6 843.0,384.2 843.8,385.9 844.5,387.6 845.2,389.4 846.0,391.1 846.6,392.8 847.3,394.5 847.9,396.3 848.6,398.0 849.1,399.8 849.7,401.6 850.3,403.4 850.8,405.2 851.3,406.9 851.7,408.7 852.2,410.6 852.6,412.4 853.0,414.2 853.3,416.0 853.6,417.9 853.9,419.7 854.1,421.6 854.2,423.5 854.1,425.4 853.1,427.6 853.1,429.5 853.1,431.3 853.3,433.2 853.5,435.0 853.7,436.9 853.9,438.7 854.2,440.5 854.4,442.3 854.7,444.1 855.0,445.9 855.3,447.7 855.6,449.5 855.8,451.4 856.2,453.2 856.5,455.0 856.8,456.8 857.1,458.6 857.4,460.4 857.7,462.2 858.1,464.0 858.4,465.8 858.7,467.6 859.1,469.4 859.4,471.2 859.8,473.0 860.2,474.8 860.5,476.6 860.9,478.4 861.3,480.2 861.6,482.0 862.0,483.8 862.4,485.6 862.8,487.5 863.3,489.3 863.7,491.1 864.1,492.9 864.6,494.8 865.0,496.6 865.5,498.4 866.1,500.3 866.7,502.1 867.6,503.9 869.3,505.8 870.0,507.6 870.5,509.5 871.0,511.4 871.4,513.3 871.7,515.1 872.1,517.0 872.4,518.9 872.6,520.8 872.8,522.7 873.1,524.6 873.2,526.5 873.4,528.4 873.5,530.3 873.6,532.2 873.7,534.1 873.7,536.0 873.7,537.9 873.7,539.8 873.7,541.7 873.7,543.6 873.6,545.6 873.5,547.5 873.4,549.4 873.2,551.3 873.0,553.1 872.8,555.0 872.6,556.9 872.4,558.8 872.1,560.7 871.8,562.6 871.5,564.5 871.2,566.3 870.8,568.2 870.4,570.1 869.9,571.9 869.5,573.8 869.0,575.6 868.4,577.4 867.8,579.3 867.2,581.1 866.4,582.8 865.2,584.5 863.6,586.1 862.8,587.9 862.1,589.6 861.4,591.4 860.8,593.2 860.2,595.0 859.6,596.8 859.0,598.5 858.4,600.3 857.9,602.1 857.3,603.9 856.8,605.7 856.3,607.5 855.7,609.3 855.2,611.1 854.7,612.9 854.2,614.7 853.7,616.5 853.2,618.3 852.7,620.1 852.2,621.9 851.7,623.7 851.2,625.5 850.7,627.3 850.3,629.2 849.8,631.0 849.3,632.8 848.8,634.6 848.4,636.5 847.9,638.3 847.5,640.1 847.0,642.0 846.6,643.8 846.1,645.7 845.7,647.5 845.3,649.4 844.9,651.3 844.5,653.2 844.1,655.1 843.7,657.0 843.5,658.9 843.3,660.9 843.8,663.3 843.9,665.4 843.7,667.4 843.3,669.4 842.9,671.3 842.4,673.2 841.9,675.1 841.3,677.0 840.7,678.8 840.1,680.7 839.5,682.5 838.8,684.3 838.1,686.2 837.4,688.0 836.6,689.8 835.9,691.6 835.1,693.4 834.3,695.1 833.4,696.9 832.6,698.6 831.7,700.4 830.8,702.1 829.9,703.8 828.9,705.5 828.0,707.2 827.0,708.9 826.0,710.6 824.9,712.2 823.9,713.8 822.8,715.5 821.7,717.1 820.6,718.7 819.5,720.3 818.3,721.8 817.2,723.4 816.0,724.9 814.7,726.4 813.5,727.9 812.2,729.4 810.9,730.8 809.5,732.3 808.1,733.6 806.6,734.9 804.2,735.5 802.5,736.6 801.0,737.8 799.5,739.1 798.1,740.4 796.7,741.8 795.3,743.1 793.9,744.5 792.5,745.8 791.2,747.2 789.8,748.5 788.5,749.9 787.1,751.3 785.8,752.6 784.4,754.0 783.1,755.4 781.8,756.7 780.5,758.1 779.2,759.5 777.9,760.9 776.5,762.3 775.2,763.7 774.0,765.1 772.7,766.5 771.4,767.9 770.1,769.3 768.8,770.8 767.6,772.2 766.3,773.6 765.1,775.1 763.8,776.6 762.6,778.1 761.4,779.6 760.2,781.1 759.0,782.6 757.8,784.2 756.6,785.7 755.5,787.3 754.4,789.0 753.3,790.6 752.2,792.4 751.2,794.2 750.4,796.3 750.6,799.5 749.8,801.7 748.9,803.6 747.8,805.4 746.7,807.2 745.5,808.9 744.3,810.6 743.1,812.2 741.8,813.8 740.5,815.4 739.2,817.0 737.9,818.5 736.5,820.0 735.1,821.5 733.7,823.0 732.3,824.4 730.8,825.8 729.3,827.2 727.8,828.6 726.3,829.9 724.7,831.2 723.2,832.5 721.6,833.7 720.0,834.9 718.3,836.1 716.7,837.2 715.0,838.3 713.3,839.4 711.6,840.4 709.8,841.4 708.0,842.4 706.2,843.3 704.4,844.2 702.6,845.0 700.7,845.8 698.8,846.5 696.9,847.2 694.9,847.8 692.9,848.3 690.9,848.7 688.8,849.0 686.6,849.1 684.2,848.7 680.8,846.5 678.5,846.1 676.3,846.1 674.1,846.2 672.1,846.4 670.0,846.6 668.0,846.9 666.1,847.2 664.1,847.6 662.1,847.9 660.2,848.3 658.3,848.8 656.4,849.2 654.5,849.7 652.6,850.2 650.8,850.7 648.9,851.2 647.1,851.8 645.2,852.3 643.4,852.9 641.6,853.6 639.8,854.2 638.0,854.9 636.3,855.6 634.5,856.3 632.7,857.1 631.0,857.9 629.2,858.7 627.5,859.6 625.8,860.5 624.1,861.5 622.4,862.4 620.7,863.5 619.0,864.6 617.3,865.7 615.6,866.9 614.0,868.1 612.3,869.5 610.7,870.9 609.1,872.5 607.6,874.2 606.1,876.3 604.7,879.1 604.0,884.4 602.6,886.9 601.0,888.9 599.3,890.7 597.6,892.3 595.8,893.8 594.0,895.3 592.2,896.6 590.4,897.9 588.5,899.1 586.6,900.3 584.7,901.4 582.8,902.4 580.9,903.4 578.9,904.3 576.9,905.2 575.0,906.0 573.0,906.8 570.9,907.5 568.9,908.1 566.9,908.7 564.8,909.2 562.8,909.6 560.7,910.0 558.6,910.3 556.5,910.5 554.4,910.7 552.3,910.8 550.2,910.9 548.1,910.8 546.0,910.7 543.9,910.5 541.8,910.2 539.7,909.8 537.5,909.4 535.4,908.8 533.3,908.1 531.2,907.2 529.0,906.2 526.9,905.1 524.8,903.6 522.7,901.6 520.6,898.3 518.5,892.1 516.5,889.8 514.5,888.0 512.5,886.5 510.5,885.2 508.6,883.9 506.7,882.8 504.7,881.8 502.8,880.8 500.9,879.9 499.0,879.1 497.1,878.3 495.2,877.6 493.4,876.9 491.5,876.3 489.6,875.7 487.7,875.2 485.8,874.8 483.9,874.4 482.1,874.1 480.2,873.8 478.3,873.6 476.4,873.4 474.5,873.3 472.6,873.3 470.7,873.3 468.7,873.4 466.8,873.6 464.8,873.8 462.9,874.1 460.9,874.5 458.9,875.0 456.8,875.5 454.8,876.1 452.7,876.9 450.6,877.7 448.5,878.7 446.3,879.8 444.1,881.0 441.8,882.5 439.4,884.4 436.9,886.9 433.7,892.4 430.4,898.5 427.7,901.1 425.1,903.0 422.6,904.6 420.1,905.9 417.7,907.1 415.2,908.1 412.8,909.0 410.4,909.8 408.0,910.5 405.6,911.0 403.2,911.5 400.9,911.9 398.5,912.1 396.2,912.3 393.9,912.4 391.6,912.4 389.4,912.3 387.2,912.1 384.9,911.8 382.7,911.5 380.6,911.0 378.5,910.4 376.4,909.8 374.3,909.0 372.3,908.1 370.3,907.2 368.3,906.1 366.4,905.0 364.5,903.7 362.7,902.4 360.9,900.9 359.2,899.3 357.5,897.6 356.0,895.7 354.4,893.7 353.0,891.5 351.6,889.2 350.4,886.6 349.3,883.8 348.5,880.5 348.0,876.4 350.1,866.8 350.5,861.0 350.1,857.1 349.4,853.9 348.6,850.9 347.8,848.3 346.8,845.8 345.8,843.4 344.7,841.2 343.6,839.1 342.5,837.1 341.3,835.2 340.1,833.4 338.9,831.7 337.6,830.1 336.3,828.5 334.9,827.1 333.6,825.7 332.1,824.4 330.6,823.2 329.1,822.0 327.6,821.0 325.9,820.0 324.3,819.1 322.6,818.3 320.8,817.6 319.0,816.9 317.1,816.3 315.2,815.9 313.2,815.5 311.1,815.2 308.9,814.9 306.7,814.8 304.4,814.8 302.0,814.9 299.5,815.0 296.9,815.4 294.2,815.8 291.3,816.4 288.3,817.3 285.0,818.4 281.3,820.0 276.9,822.5 268.0,830.8 262.8,834.1 258.7,835.8 255.0,837.0 251.6,837.8 248.3,838.4 245.2,838.7 242.2,838.9 239.2,839.0 236.4,838.9 233.7,838.6 231.0,838.3 228.4,837.8 225.9,837.2 223.5,836.5 221.2,835.7 218.9,834.8 216.7,833.8 214.6,832.7 212.6,831.6 210.6,830.3 208.8,828.9 207.0,827.4 205.4,825.8 203.8,824.1 202.3,822.4 200.9,820.5 199.6,818.6 198.5,816.5 197.4,814.4 196.4,812.1 195.6,809.8 194.9,807.3 194.3,804.8 193.8,802.1 193.5,799.4 193.4,796.5 193.4,793.5 193.7,790.3 194.3,786.9 195.2,783.2 196.7,779.0 199.4,773.9 208.4,763.7 211.5,758.5 213.3,754.4 214.6,750.8 215.5,747.5 216.2,744.4 216.8,741.5 217.2,738.7 217.5,736.0 217.6,733.5 217.7,731.1 217.6,728.7 217.5,726.5 217.2,724.3 216.9,722.2 216.5,720.2 215.9,718.2 215.3,716.4 214.6,714.6 213.8,712.9 212.8,711.2 211.8,709.6 210.7,708.1 209.5,706.6 208.2,705.2 206.8,703.9 205.2,702.6 203.6,701.4 201.8,700.3 200.0,699.2 198.0,698.2 195.8,697.2 193.6,696.3 191.2,695.4 188.6,694.6 185.9,693.9 183.0,693.3 179.9,692.7 176.5,692.3 172.8,692.0 168.7,691.9 163.8,692.2 157.1,693.3 143.2,698.0 137.0,698.6 132.2,698.5 128.1,698.1 124.3,697.4 120.8,696.5 117.6,695.5 114.6,694.4 111.8,693.2 109.1,691.9 106.6,690.4 104.2,688.9 102.0,687.4 99.9,685.7 98.0,684.0 96.2,682.2 94.5,680.3 93.0,678.4 91.6,676.4 90.4,674.3 89.2,672.2 88.3,670.1 87.4,667.8 86.7,665.6 86.1,663.3 85.7,660.9 85.4,658.5 85.3,656.1 85.3,653.6 85.5,651.0 85.8,648.5 86.3,645.9 87.0,643.2 87.8,640.5 88.8,637.8 90.0,635.0 91.5,632.2 93.2,629.4 95.2,626.5 97.6,623.5 100.5,620.4 104.4,617.1 110.9,613.2 124.0,607.7 128.7,604.4 132.1,601.5 134.9,598.7 137.3,596.1 139.3,593.6 141.1,591.2 142.7,588.8 144.1,586.5 145.4,584.3 146.5,582.1 147.4,579.9 148.2,577.8 148.8,575.7 149.4,573.7 149.8,571.7 150.0,569.7 150.2,567.7 150.2,565.8 150.1,563.8 149.9,561.9 149.5,560.1 149.0,558.2 148.4,556.3 147.7,554.5 146.9,552.6 145.9,550.8 144.8,549.0 143.5,547.2 142.2,545.3 140.7,543.5 139.0,541.7 137.2,539.9 135.3,538.0 133.2,536.2 130.9,534.3 128.4,532.4 125.6,530.6 122.6,528.7 119.2,526.7 115.3,524.8 110.3,522.9 101.7,521.0 88.9,519.0 83.8,516.9 79.8,514.6 76.5,512.4 73.6,510.1 71.0,507.8 68.7,505.4 66.7,503.1 64.8,500.7 63.1,498.3 61.7,495.9 60.3,493.5 59.2,491.0 58.2,488.6 57.4,486.2 56.7,483.7 56.2,481.3 55.8,478.9 55.6,476.5 55.5,474.1 55.5,471.7 55.7,469.3 56.0,466.9 56.5,464.5 57.1,462.2 57.9,459.8 58.8,457.5 59.8,455.3 61.0,453.0 62.3,450.8 63.8,448.6 65.4,446.4 67.1,444.3 69.1,442.2 71.2,440.2 73.4,438.2 75.9,436.3 78.6,434.4 81.7,432.6 85.0,430.9 89.0,429.4 94.0,428.1 106.0,428.3 114.0,427.7 118.7,426.6 122.4,425.3 125.6,423.8 128.5,422.4 131.1,420.9 133.4,419.3 135.6,417.8 137.5,416.2 139.4,414.6 141.0,412.9 142.6,411.3 144.0,409.6 145.3,407.8 146.4,406.1 147.5,404.3 148.4,402.5 149.3,400.7 150.0,398.9 150.6,397.0 151.1,395.1 151.5,393.1 151.8,391.1 152.1,389.1 152.2,387.0 152.2,384.9 152.1,382.7 151.9,380.5 151.7,378.3 151.3,376.0 150.8,373.7 150.2,371.3 149.6,368.8 148.8,366.3 147.9,363.7 146.8,361.1 145.6,358.3 144.3,355.5 142.7,352.5 140.8,349.4 138.5,346.0 135.2,342.2 125.4,335.4 120.9,330.8 118.4,327.1 116.6,323.7 115.2,320.5 114.1,317.5 113.3,314.5 112.7,311.6 112.3,308.7 112.1,306.0 112.0,303.3 112.0,300.6 112.2,298.0 112.5,295.5 113.0,293.0 113.5,290.6 114.2,288.2 114.9,285.9 115.8,283.7 116.8,281.5 117.9,279.3 119.1,277.2 120.4,275.2 121.8,273.3 123.2,271.4 124.8,269.5 126.5,267.7 128.3,266.0 130.1,264.4 132.1,262.8 134.1,261.3 136.2,259.9 138.4,258.5 140.7,257.2 143.2,256.0 145.7,254.9 148.3,253.9 151.1,253.0 154.0,252.2 157.0,251.6 160.4,251.2 164.1,251.2 168.7,251.8 178.1,256.2 183.0,257.1 186.6,257.2 189.8,257.0 192.7,256.6 195.4,256.0 197.9,255.3 200.3,254.5 202.5,253.6 204.7,252.7 206.7,251.6 208.7,250.6 210.6,249.4 212.4,248.2 214.1,247.0 215.8,245.6 217.4,244.3 218.9,242.9 220.4,241.4 221.8,239.8 223.2,238.3 224.5,236.6 225.7,234.9 226.9,233.2 228.1,231.4 229.2,229.5 230.2,227.6 231.2,225.7 232.2,223.7 233.1,221.6 234.0,219.5 234.9,217.3 235.7,215.0 236.4,212.7 237.1,210.3 237.8,207.8 238.4,205.3 238.9,202.6 239.4,199.9 239.7,197.0 239.9,193.8 239.8,190.4 239.1,186.1 235.4,178.1 235.0,173.9 235.2,170.6 235.7,167.5 236.4,164.7 237.3,162.1 238.3,159.6 239.4,157.2 240.6,154.9 241.9,152.7 243.3,150.6 244.7,148.6 246.2,146.6 247.8,144.8 249.4,143.0 251.1,141.2 252.8,139.6 254.6,138.0 256.5,136.5 258.4,135.1 260.3,133.7 262.3,132.4 264.4,131.2 266.4,130.0 268.6,128.9 270.7,127.9 272.9,126.9 275.1,126.0 277.4,125.2 279.7,124.4 282.1,123.7 284.4,123.1 286.8,122.5 289.3,122.1 291.8,121.7 294.3,121.3 296.8,121.1 299.4,121.0 302.1,121.0 304.8,121.2 307.6,121.5 310.6,122.3 314.0,123.9 318.9,128.6 322.0,129.7 324.7,130.2 327.3,130.5 329.8,130.6 332.2,130.5 334.6,130.3 336.9,130.1 339.2,129.8 341.4,129.4 343.6,128.9 345.8,128.4 347.9,127.9 350.0,127.3 352.1,126.6 354.2,125.9 356.2,125.1 358.3,124.4 360.3,123.5 362.3,122.6 364.3,121.7 366.3,120.8 368.2,119.8 370.2,118.7 372.1,117.7 374.1,116.5 376.0,115.4 377.9,114.2 379.8,113.0 381.7,111.7 383.6,110.5 385.5,109.1 387.4,107.8 389.3,106.3 391.2,104.9 393.1,103.4 394.9,101.8 396.8,100.2 398.7,98.5 400.5,96.7 402.3,94.8 404.1,92.5 405.6,89.2 406.7,84.2 408.5,81.8 410.4,80.0 412.4,78.3 414.5,76.8 416.6,75.5 418.7,74.2 420.9,73.1 423.0,72.0 425.2,71.0 427.5,70.0 429.7,69.2 432.0,68.3 434.2,67.6 436.5,66.9 438.8,66.3 441.1,65.7 443.4,65.2 445.7,64.7 448.1,64.3 450.4,63.9 452.8,63.6 455.1,63.4 457.5,63.2 459.8,63.0 462.2,62.9 464.6,62.8 467.0,62.8 469.3,62.8 471.7,62.9 474.1,63.0 476.5,63.1 478.8,63.4 481.2,63.6 483.6,63.9 486.0,64.3 488.4,64.7 490.7,65.2 493.1,65.8 495.5,66.5 497.8,67.3 500.2,68.4 502.6,71.0 504.9,73.3 507.2,74.3 509.5,75.1 511.8,75.7 514.1,76.2 516.4,76.7 518.6,77.1 520.9,77.5 523.2,77.8 525.5,78.1 527.7,78.3 530.0,78.5 532.2,78.7 534.5,78.9 536.8,79.1 539.0,79.2 541.3,79.3 543.6,79.4 545.9,79.5 548.1,79.5 550.4,79.6 552.7,79.6 555.0,79.6 557.3,79.6 559.6,79.6 561.9,79.6 564.2,79.6 566.5,79.5 568.8,79.5 571.1,79.4 573.4,79.3 575.7,79.3 578.1,79.2 580.4,79.1 582.7,78.9 585.1,78.8 587.5,78.6 589.8,78.5 592.2,78.2 594.6,78.0 597.0,77.6 599.5,77.1 602.3,75.2 604.8,74.4 607.3,74.1 609.8,73.9 612.2,73.9 614.6,73.9 617.0,74.0 619.4,74.2 621.8,74.4 624.1,74.6 626.5,74.9 628.8,75.3 631.2,75.7 633.5,76.1 635.9,76.6 638.2,77.1 640.5,77.6 642.8,78.1 645.1,78.7 647.4,79.4 649.7,80.0 652.0,80.7 654.2,81.4 656.5,82.1 658.7,82.9 661.0,83.7 663.2,84.5 665.4,85.4 667.6,86.2 669.8,87.1 672.0,88.1 674.2,89.0 676.4,90.0 678.5,91.0 680.7,92.0 682.8,93.1 684.9,94.1 687.0,95.2 689.1,96.4 691.2,97.6 693.2,98.8 695.2,100.1 697.2,101.6 698.7,103.9 700.6,105.4 702.5,106.8 704.5,108.0 706.5,109.3 708.6,110.5 710.6,111.7 712.6,112.8 714.6,114.0 716.7,115.1 718.7,116.3 720.8,117.4 722.8,118.6 724.8,119.7 726.9,120.8 728.9,122.0 731.0,123.1 733.0,124.2 735.1,125.4 737.1,126.5 739.2,127.6 741.2,128.7 743.3,129.9 745.3,131.0 747.4,132.1 749.5,133.2 751.5,134.3 753.6,135.4 755.7,136.6 757.7,137.7 759.8,138.8 761.9,139.9 764.0,141.0 766.1,142.1 768.2,143.2 770.3,144.3 772.4,145.4 774.5,146.5 776.6,147.5 778.8,148.6 781.0,149.6 783.2,150.6 785.5,151.4 788.4,151.6 790.8,152.4 793.0,153.5 795.2,154.6 797.3,155.7 799.4,156.9 801.5,158.2 803.5,159.4 805.6,160.7 807.6,162.1 809.6,163.4 811.6,164.8 813.5,166.2 815.5,167.6 817.4,169.0 819.3,170.5 821.2,172.0 823.1,173.5 825.0,175.0 826.8,176.6 828.7,178.1 830.5,179.7 832.3,181.3 834.1,183.0 835.8,184.6 837.6,186.3 839.3,188.0 841.0,189.7 842.7,191.4 844.3,193.2 846.0,194.9 847.6,196.7 849.2,198.5 850.8,200.3 852.3,202.2 853.9,204.1 855.4,205.9 856.8,207.9 858.3,209.8 859.7,211.8 861.0,213.8 862.3,215.9 863.4,218.1 863.8,220.9 864.9,223.0 866.2,225.1 867.4,227.1 868.8,229.1 870.1,231.1 871.4,233.1 872.8,235.1 874.1,237.0 875.5,239.0 876.8,240.9 878.2,242.9 879.6,244.8 881.0,246.8 882.3,248.7 883.7,250.7 885.1,252.6 886.5,254.5 887.9,256.5 889.2,258.4 890.6,260.4 892.0,262.3 893.4,264.2 894.8,266.2 896.2,268.1 897.6,270.0 899.0,272.0 900.4,273.9 901.8,275.9 903.2,277.8 904.6,279.7 906.0,281.7 907.5,283.6 908.9,285.5 910.3,287.5 911.8,289.4 913.2,291.4 914.7,293.3 916.2,295.2 917.7,297.1 919.2,299.0 920.9,300.9 922.7,302.7 925.2,304.1 926.9,306.0 928.5,307.9 929.9,309.9 931.3,311.9 932.7,314.0 934.1,316.0 935.4,318.1 936.7,320.2 937.9,322.3 939.1,324.4 940.4,326.6 941.5,328.7 942.7,330.9 943.8,333.1 944.9,335.3 946.0,337.5 947.0,339.7 948.1,341.9 949.1,344.2 950.0,346.4 951.0,348.7 951.9,351.0 952.8,353.3 953.7,355.5 954.5,357.8 955.4,360.2 956.2,362.5 956.9,364.8 957.7,367.1 958.4,369.5 959.1,371.8 959.8,374.2 960.4,376.6 961.0,379.0 961.6,381.4 962.1,383.7 962.6,386.2 963.0,388.6 963.4,391.0 963.8,393.4 964.0,395.9 963.8,398.5 963.1,401.2 963.3,403.6 963.5,406.1 963.8,408.5 964.2,410.9 964.5,413.3 964.9,415.7 965.2,418.1 965.6,420.5 966.0,422.9 966.4,425.3 966.8,427.7 967.2,430.1 967.6,432.5 968.0,434.9 968.4,437.2 968.8,439.6 969.2,442.0 969.6,444.4 970.0,446.8 970.5,449.2 970.9,451.6 971.3,454.0 971.7,456.4 972.1,458.7 972.6,461.1 973.0,463.5 973.4,465.9 973.8,468.3 974.3,470.7 974.7,473.1 975.2,475.5 975.6,477.9 976.0,480.4 976.5,482.8 977.0,485.2 977.4,487.6 977.9,490.0 978.4,492.4 979.0,494.9 979.6,497.3 980.3,499.7 981.8,502.2 982.9,504.6 983.5,507.1 984.0,509.5 984.5,512.0" fill="none" stroke="#FBB83D" stroke-width="18" stroke-linecap="round" stroke-linejoin="round"/>
  </g>
  <g id="center-dot">
    <circle cx="512" cy="512" r="22" fill="#FBB83D"/>
  </g>
</svg>
