<svg xmlns="http://www.w3.org/2000/svg" viewBox="0 0 1024 1024">
  <g id="background">
    <rect x="0" y="0" width="1024" height="1024" rx="180" ry="180" fill="#1F5F66"/>
  </g>
  <g id="frame">
    <rect x="20" y="20" width="984" height="984" rx="162" ry="162" fill="none" stroke="#D2E7E8" stroke-width="14" stroke-opacity="0.32"/>
  </g>
  <g id="spiral">
    <polyline points="602.0,512.0 602.1,512.8 602.2,513.5 602.3,514.3 602.4,515.0 602.5,515.8 602.6,516.6 602.7,517.3 602.8,518.1 602.8,518.9 602.9,519.6 602.9,520.4 603.0,521.2 603.0,522.0 603.0,522.7 603.0,523.5 603.0,524.3 603.1,525.1 603.1,525.8 603.0,526.6 603.0,527.4 603.0,528.2 603.0,529.0 603.0,529.8 602.9,530.5 602.9,531.3 602.8,532.1 602.7,532.9 602.7,533.7 602.6,534.5 602.5,535.2 602.4,536.0 602.3,536.8 602.2,537.6 602.1,538.4 602.0,539.2 601.9,540.0 601.8,540.8 601.7,541.6 601.6,542.4 601.4,543.2 601.3,544.0 601.2,544.8 601.0,545.5 600.9,546.3 600.7,547.1 600.5,547.9 600.3,548.7 600.1,549.5 599.9,550.3 599.6,551.0 599.4,551.8 599.1,552.6 598.9,553.3 598.6,554.1 598.3,554.9 598.0,555.6 597.7,556.4 597.4,557.1 597.1,557.9 596.8,558.7 596.6,559.4 596.3,560.2 596.0,561.0 595.7,561.7 595.3,562.5 595.0,563.3 594.7,564.0 594.4,564.8 594.0,565.5 593.7,566.3 593.3,567.1 593.0,567.8 592.6,568.6 592.2,569.3 591.9,570.1 591.5,570.8 591.1,571.6 590.7,572.3 590.3,573.1 590.0,573.8 589.6,574.6 589.2,575.3 588.8,576.1 588.4,576.8 587.9,577.6 587.5,578.3 587.0,579.0 586.6,579.7 586.1,580.4 585.5,581.1 585.0,581.7 584.4,582.3 583.8,582.9 583.2,583.5 582.5,584.1 581.9,584.6 581.3,585.2 580.7,585.8 580.1,586.4 579.5,587.0 578.9,587.6 578.3,588.2 577.8,588.9 577.3,589.6 576.7,590.3 576.2,591.0 575.7,591.8 575.3,592.5 574.8,593.3 574.2,594.1 573.7,594.8 573.2,595.5 572.6,596.2 572.0,596.9 571.4,597.5 570.8,598.1 570.1,598.7 569.4,599.3 568.7,599.8 568.1,600.4 567.4,600.9 566.7,601.5 565.9,602.0 565.2,602.5 564.5,603.1 563.8,603.6 563.1,604.1 562.4,604.6 561.6,605.1 560.9,605.6 560.1,606.0 559.3,606.3 558.5,606.7 557.6,606.9 556.7,607.2 555.9,607.4 555.0,607.6 554.1,607.8 553.2,607.9 552.4,608.2 551.6,608.5 550.8,608.8 550.0,609.2 549.3,609.8 548.6,610.4 547.9,611.2 547.2,612.0 546.6,612.9 546.0,613.8 545.4,614.8 544.7,615.8 544.1,616.8 543.4,617.7 542.6,618.5 541.9,619.2 541.1,619.7 540.2,620.1 539.3,620.4 538.4,620.5 537.4,620.5 536.4,620.3 535.4,620.1 534.4,619.9 533.4,619.6 532.4,619.3 531.4,619.1 530.5,618.9 529.5,618.8 528.6,618.7 527.7,618.8 526.8,618.9 525.9,619.1 525.0,619.3 524.2,619.5 523.3,619.7 522.4,619.9 521.5,620.0 520.6,620.1 519.7,620.2 518.8,620.3 517.9,620.3 516.9,620.4 516.0,620.6 515.1,620.9 514.2,621.2 513.3,621.8 512.4,622.4 511.5,623.3 510.5,624.3 509.6,625.4 508.6,626.6 507.6,627.9 506.5,629.1 505.5,630.2 504.4,631.2 503.4,631.9 502.3,632.3 501.3,632.4 500.3,632.2 499.4,631.5 498.5,630.5 497.6,629.2 496.8,627.6 496.1,625.9 495.4,624.0 494.7,622.1 494.1,620.3 493.4,618.7 492.8,617.3 492.0,616.3 491.3,615.6 490.4,615.3 489.5,615.4 488.5,615.8 487.4,616.5 486.3,617.4 485.0,618.6 483.8,619.8 482.5,621.0 481.2,622.1 479.9,623.1 478.6,624.0 477.4,624.6 476.2,625.1 475.1,625.4 474.0,625.6 472.9,625.7 471.8,625.7 470.7,625.7 469.6,625.8 468.4,626.0 467.3,626.2 466.0,626.5 464.8,626.8 463.5,627.1 462.3,627.4 461.1,627.5 460.0,627.3 459.0,626.9 458.2,626.1 457.6,624.9 457.3,623.3 457.1,621.2 457.2,618.8 457.5,616.1 457.9,613.2 458.5,610.2 459.0,607.2 459.5,604.5 459.9,602.1 460.0,600.2 459.8,598.9 459.2,598.2 458.2,598.3 456.7,599.0 454.8,600.4 452.5,602.3 449.8,604.6 446.9,607.3 443.8,610.0 440.6,612.7 437.5,615.3 434.6,617.4 431.9,619.2 429.7,620.3 427.8,620.8 426.4,620.8 425.4,620.1 424.9,618.9 424.8,617.3 424.9,615.3 425.3,613.2 425.8,610.9 426.3,608.6 426.8,606.5 427.2,604.5 427.4,602.7 427.5,601.1 427.5,599.7 427.3,598.4 427.0,597.2 426.8,596.0 426.6,594.8 426.5,593.5 426.6,592.1 426.9,590.5 427.4,588.7 428.0,586.9 428.7,585.0 429.4,583.1 430.0,581.4 430.4,580.0 430.3,578.9 429.8,578.2 428.6,578.0 426.7,578.3 424.1,579.2 420.7,580.6 416.7,582.4 412.1,584.5 407.1,586.7 401.9,589.0 396.8,591.2 392.0,593.1 387.6,594.5 384.1,595.3 381.4,595.5 379.8,595.0 379.3,593.7 380.0,591.8 381.7,589.3 384.5,586.2 388.0,582.8 392.1,579.1 396.5,575.4 400.9,571.7 405.1,568.3 409.0,565.2 412.1,562.5 414.5,560.3 416.0,558.5 416.7,557.2 416.4,556.4 415.4,555.9 413.8,555.6 411.7,555.5 409.3,555.6 406.8,555.6 404.2,555.6 401.9,555.5 399.7,555.3 397.8,554.9 396.1,554.4 394.6,553.9 393.2,553.2 391.8,552.6 390.2,552.0 388.4,551.5 386.2,551.0 383.6,550.6 380.7,550.3 377.3,550.1 373.7,549.8 370.0,549.6 366.4,549.2 363.2,548.7 360.4,548.1 358.5,547.2 357.5,546.0 357.7,544.6 359.1,543.0 361.7,541.2 365.6,539.1 370.5,537.0 376.2,534.8 382.4,532.7 388.9,530.6 395.3,528.6 401.2,526.8 406.4,525.2 410.4,523.9 413.2,522.7 414.5,521.7 414.2,520.9 412.5,520.3 409.5,519.6 405.2,519.1 400.0,518.5 394.2,517.8 388.1,517.1 382.1,516.2 376.3,515.3 371.1,514.2 366.7,513.1 363.2,511.8 360.7,510.6 359.1,509.3 358.4,508.0 358.5,506.7 359.1,505.4 360.2,504.2 361.5,503.0 362.8,501.8 364.2,500.7 365.3,499.5 366.3,498.4 367.0,497.2 367.7,496.1 368.3,494.9 369.0,493.8 369.9,492.7 371.2,491.6 372.9,490.7 375.1,489.9 377.8,489.1 381.0,488.6 384.6,488.1 388.5,487.8 392.4,487.5 396.2,487.3 399.7,487.0 402.5,486.7 404.5,486.2 405.5,485.5 405.4,484.5 404.2,483.2 401.8,481.6 398.3,479.6 394.0,477.3 389.0,474.7 383.5,471.9 378.0,468.9 372.6,465.9 367.6,462.9 363.4,460.1 360.1,457.5 357.9,455.2 356.8,453.3 356.9,451.9 358.1,450.9 360.4,450.3 363.4,450.1 367.2,450.2 371.3,450.6 375.6,451.1 379.9,451.7 383.9,452.2 387.6,452.6 390.7,452.9 393.3,452.9 395.3,452.7 396.7,452.2 397.7,451.5 398.3,450.5 398.6,449.5 398.8,448.3 398.9,447.1 399.0,445.9 399.2,444.8 399.6,443.7 400.0,442.7 400.5,441.7 401.1,440.7 401.5,439.7 401.9,438.6 402.0,437.4 401.9,435.9 401.4,434.2 400.5,432.2 399.4,430.0 397.9,427.4 396.2,424.7 394.4,421.8 392.7,418.8 391.0,415.9 389.6,413.1 388.7,410.6 388.2,408.4 388.3,406.7 389.0,405.6 390.4,405.0 392.4,404.9 394.9,405.4 397.8,406.3 401.1,407.6 404.5,409.1 408.1,410.8 411.5,412.5 414.6,414.0 417.5,415.2 419.9,416.1 421.8,416.6 423.3,416.5 424.3,415.9 424.8,414.9 424.9,413.4 424.8,411.5 424.4,409.3 423.9,407.0 423.3,404.5 422.8,402.0 422.4,399.7 422.2,397.4 422.2,395.4 422.4,393.6 422.8,392.0 423.3,390.7 424.0,389.5 424.8,388.4 425.7,387.5 426.6,386.6 427.6,385.7 428.5,384.7 429.3,383.8 430.2,382.7 431.1,381.7 431.9,380.6 432.8,379.6 433.8,378.6 434.8,377.8 435.9,377.2 437.2,376.8 438.6,376.7 440.1,376.8 441.7,377.1 443.4,377.7 445.2,378.4 447.0,379.3 448.8,380.2 450.6,381.0 452.3,381.7 453.8,382.2 455.2,382.5 456.5,382.4 457.6,382.0 458.5,381.2 459.3,380.0 460.0,378.6 460.7,376.9 461.3,374.9 461.8,372.9 462.4,370.8 463.0,368.7 463.7,366.8 464.5,365.0 465.4,363.5 466.3,362.2 467.4,361.2 468.6,360.5 469.8,360.1 471.2,359.9 472.5,359.9 473.9,360.1 475.3,360.3 476.7,360.6 478.1,360.9 479.5,361.2 480.9,361.4 482.2,361.5 483.5,361.5 484.8,361.5 486.1,361.4 487.4,361.2 488.7,361.1 489.9,360.9 491.2,360.7 492.5,360.6 493.7,360.5 495.0,360.5 496.3,360.5 497.6,360.5 498.9,360.5 500.2,360.5 501.4,360.4 502.7,360.3 504.0,360.1 505.2,359.8 506.5,359.4 507.7,358.9 509.0,358.3 510.3,357.7 511.6,356.9 512.9,356.2 514.2,355.4 515.5,354.7 516.9,354.1 518.2,353.6 519.6,353.1 520.9,352.9 522.3,352.7 523.6,352.8 524.9,352.9 526.3,353.2 527.6,353.6 528.9,354.1 530.1,354.6 531.4,355.2 532.7,355.7 533.9,356.2 535.2,356.7 536.5,357.1 537.7,357.5 539.0,357.7 540.3,357.9 541.6,358.1 542.9,358.2 544.3,358.2 545.6,358.2 547.0,358.3 548.3,358.3 549.7,358.3 551.0,358.4 552.4,358.5 553.7,358.6 555.1,358.8 556.4,359.0 557.7,359.2 559.1,359.4 560.4,359.6 561.7,359.9 563.0,360.1 564.4,360.4 565.7,360.6 567.0,360.9 568.4,361.2 569.7,361.4 571.1,361.7 572.4,362.0 573.7,362.3 575.1,362.7 576.4,363.1 577.7,363.5 579.0,363.9 580.2,364.5 581.5,365.0 582.7,365.7 583.8,366.4 585.0,367.1 586.1,367.9 587.3,368.6 588.4,369.4 589.5,370.2 590.6,371.0 591.8,371.7 592.9,372.4 594.1,373.1 595.3,373.7 596.6,374.2 597.9,374.7 599.2,375.1 600.5,375.6 601.9,376.0 603.3,376.3 604.7,376.7 606.1,377.2 607.4,377.6 608.8,378.1 610.1,378.7 611.4,379.3 612.6,380.0 613.8,380.7 615.0,381.4 616.1,382.3 617.2,383.1 618.3,384.0 619.4,384.8 620.5,385.7 621.6,386.6 622.6,387.5 623.7,388.4 624.8,389.3 625.9,390.2 626.9,391.1 628.0,392.0 629.0,393.0 630.0,394.0 630.9,395.0 631.7,396.1 632.6,397.3 633.3,398.5 634.1,399.7 634.8,400.9 635.5,402.1 636.2,403.4 637.0,404.5 637.8,405.7 638.7,406.7 639.6,407.7 640.7,408.6 641.9,409.4 643.3,410.1 644.7,410.8 646.2,411.4 647.7,412.0 649.4,412.6 651.0,413.2 652.5,413.9 654.0,414.6 655.4,415.4 656.7,416.3 657.8,417.3 658.7,418.4 659.5,419.7 660.1,421.0 660.5,422.4 660.9,423.9 661.1,425.5 661.2,427.0 661.4,428.6 661.5,430.2 661.7,431.7 661.9,433.2 662.2,434.6 662.7,436.0 663.2,437.3 663.7,438.6 664.4,439.9 665.1,441.1 665.8,442.3 666.6,443.5 667.3,444.8 668.0,446.0 668.7,447.3 669.3,448.5 669.9,449.8 670.5,451.1 671.1,452.4 671.7,453.7 672.4,455.0 673.2,456.2 674.2,457.4 675.3,458.5 676.5,459.7 677.9,460.8 679.4,461.8 681.0,462.9 682.6,464.0 684.2,465.1 685.7,466.2 687.1,467.4 688.2,468.7 689.1,470.1 689.6,471.5 689.8,473.0 689.6,474.6 689.0,476.3 688.2,478.0 687.0,479.7 685.7,481.5 684.2,483.2 682.7,485.0 681.3,486.6 680.0,488.3 679.0,489.8 678.3,491.3 677.9,492.8 678.0,494.2 678.4,495.6 679.1,496.9 680.2,498.2 681.5,499.5 683.0,500.9 684.5,502.2 686.1,503.6 687.7,505.0 689.1,506.4 690.3,507.9 691.4,509.4 692.2,510.9 692.8,512.4 693.3,513.9 693.7,515.4 693.9,517.0 694.1,518.5 694.4,520.0 694.6,521.6 694.9,523.1 695.3,524.7 695.7,526.3 696.1,527.9 696.5,529.4 696.8,531.0 696.8,532.6 696.7,534.2 696.2,535.7 695.4,537.1 694.1,538.5 692.6,539.8 690.6,541.1 688.4,542.2 685.9,543.3 683.4,544.3 680.9,545.3 678.5,546.3 676.5,547.3 674.8,548.4 673.7,549.6 673.1,550.9 673.2,552.3 673.9,554.0 675.3,555.8 677.2,557.8 679.5,559.9 682.1,562.2 684.9,564.6 687.6,567.1 690.2,569.5 692.5,571.9 694.4,574.3 695.7,576.4 696.4,578.4 696.6,580.2 696.1,581.8 695.1,583.2 693.6,584.4 691.7,585.4 689.6,586.2 687.3,587.0 685.1,587.8 682.9,588.5 680.8,589.3 678.9,590.1 677.3,591.1 675.8,592.1 674.5,593.1 673.4,594.3 672.3,595.4 671.2,596.6 670.1,597.7 668.9,598.7 667.5,599.7 666.0,600.5 664.4,601.3 662.7,602.0 660.9,602.7 659.3,603.4 657.9,604.2 656.8,605.2 656.0,606.4 655.7,607.9 655.9,609.8 656.6,612.1 657.8,614.7 659.4,617.8 661.4,621.1 663.7,624.7 666.0,628.4 668.2,632.2 670.2,635.8 671.8,639.2 672.8,642.3 673.1,644.8 672.7,646.7 671.6,648.1 669.6,648.7 667.0,648.7 663.7,648.1 660.0,647.0 655.9,645.5 651.7,643.8 647.5,642.0 643.4,640.2 639.7,638.7 636.4,637.5 633.6,636.8 631.4,636.5 629.7,636.8 628.5,637.7 627.8,639.1 627.5,640.9 627.4,643.0 627.6,645.4 627.8,647.9 627.9,650.4 628.0,652.9 627.9,655.2 627.7,657.4 627.3,659.4 626.7,661.2 626.0,663.0 625.3,664.6 624.6,666.3 623.9,668.1 623.3,670.1 622.8,672.3 622.5,674.7 622.3,677.3 622.1,680.2 622.0,683.1 621.8,686.0 621.5,688.7 620.9,691.2 620.1,693.2 618.9,694.6 617.2,695.3 615.2,695.3 612.7,694.4 609.8,692.7 606.6,690.3 603.1,687.3 599.5,683.8 595.8,680.1 592.2,676.4 588.9,672.9 585.8,669.9 583.1,667.5 580.9,666.0 579.1,665.5 577.8,666.0 576.9,667.6 576.5,670.1 576.3,673.6 576.4,677.8 576.6,682.5 576.8,687.5 576.9,692.6 576.9,697.5 576.8,702.0 576.3,706.0 575.6,709.4 574.6,712.0 573.3,713.9 571.8,715.1 570.1,715.6 568.3,715.6 566.4,715.2 564.4,714.6 562.4,713.8 560.4,713.0 558.4,712.3 556.6,711.8 554.7,711.4 552.9,711.2 551.2,711.0 549.4,710.8 547.6,710.5 545.8,710.1 544.0,709.3 542.1,708.2 540.2,706.7 538.3,704.8 536.4,702.5 534.5,700.0 532.6,697.4 530.7,694.8 529.0,692.4 527.3,690.4 525.7,689.0 524.1,688.3 522.6,688.5 521.2,689.7 519.8,691.8 518.4,694.8 517.0,698.7 515.5,703.2 514.0,708.2 512.3,713.3 510.6,718.5 508.8,723.3 506.9,727.6 505.0,731.1 503.1,733.7 501.1,735.3 499.2,735.8 497.4,735.2 495.6,733.6 493.9,731.2 492.4,728.0 490.9,724.4 489.5,720.5 488.2,716.6 486.9,712.8 485.7,709.3 484.4,706.3 483.2,703.8 481.8,701.9 480.4,700.5 478.9,699.7 477.4,699.3 475.8,699.3 474.1,699.5 472.4,699.8 470.7,700.1 469.0,700.3 467.3,700.5 465.6,700.5 463.9,700.3 462.3,700.2 460.7,700.0 459.0,699.9 457.3,699.9 455.5,700.3 453.5,700.9 451.5,701.9 449.3,703.3 446.9,705.0 444.4,706.9 441.8,709.1 439.1,711.4 436.4,713.5 433.8,715.4 431.2,717.0 428.8,718.0 426.6,718.3 424.8,718.0 423.2,716.8 422.0,714.9 421.1,712.3 420.6,709.1 420.3,705.4 420.3,701.4 420.4,697.2 420.6,693.0 420.7,689.1 420.7,685.5 420.5,682.4 420.0,679.8 419.2,678.0 418.1,676.8 416.5,676.3 414.7,676.3 412.5,676.8 410.0,677.8 407.4,678.9 404.6,680.2 401.8,681.5 399.0,682.6 396.3,683.6 393.7,684.3 391.3,684.6 389.1,684.7 387.1,684.4 385.2,683.9 383.5,683.2 381.9,682.3 380.4,681.4 378.9,680.4 377.4,679.4 375.9,678.4 374.3,677.5 372.7,676.6 371.0,675.8 369.4,674.9 367.8,673.9 366.3,672.9 365.0,671.6 363.8,670.2 362.9,668.5 362.3,666.6 361.9,664.4 361.7,662.1 361.7,659.5 361.9,656.9 362.2,654.2 362.5,651.6 362.7,649.1 362.7,646.8 362.5,644.7 362.0,642.9 361.1,641.5 359.7,640.5 358.0,639.7 355.9,639.3 353.4,639.1 350.7,639.1 347.7,639.2 344.7,639.3 341.6,639.4 338.6,639.4 335.8,639.2 333.3,638.8 331.0,638.1 329.1,637.2 327.6,636.0 326.4,634.5 325.6,632.8 325.1,631.0 324.8,629.0 324.6,626.9 324.6,624.7 324.6,622.6 324.6,620.5 324.5,618.5 324.3,616.5 324.0,614.6 323.6,612.8 323.1,611.1 322.4,609.4 321.7,607.7 321.0,606.1 320.3,604.5 319.6,602.8 319.0,601.1 318.4,599.4 317.9,597.7 317.4,596.0 317.0,594.2 316.6,592.5 316.1,590.8 315.5,589.1 314.7,587.5 313.9,586.0 312.8,584.4 311.6,583.0 310.1,581.6 308.5,580.3 306.8,578.9 305.0,577.6 303.1,576.3 301.3,574.9 299.6,573.5 298.0,572.0 296.6,570.5 295.5,568.8 294.7,567.1 294.1,565.3 293.8,563.4 293.8,561.5 294.1,559.5 294.5,557.5 295.1,555.5 295.7,553.5 296.4,551.5 297.0,549.5 297.6,547.6 298.0,545.7 298.3,543.8 298.3,542.0 298.2,540.2 298.0,538.4 297.6,536.6 297.0,534.8 296.4,533.1 295.7,531.3 295.0,529.5 294.3,527.8 293.6,526.0 293.0,524.2 292.5,522.4 292.0,520.5 291.6,518.7 291.3,516.9 291.0,515.0 290.7,513.2 290.5,511.3 290.2,509.4 290.0,507.6 289.7,505.7 289.4,503.8 289.1,502.0 288.8,500.1 288.5,498.2 288.3,496.3 288.1,494.4 288.0,492.5 288.0,490.6 288.1,488.7 288.3,486.8 288.6,485.0 289.1,483.1 289.6,481.3 290.3,479.5 291.0,477.7 291.7,475.9 292.4,474.1 293.2,472.4 293.8,470.6 294.4,468.8 294.9,467.0 295.4,465.2 295.7,463.4 295.9,461.5 296.0,459.7 296.1,457.7 296.1,455.8 296.1,453.9 296.0,451.9 296.0,450.0 296.1,448.0 296.1,446.1 296.3,444.1 296.5,442.2 296.8,440.3 297.2,438.4 297.7,436.6 298.2,434.7 298.8,432.9 299.4,431.1 300.1,429.4 300.8,427.6 301.5,425.8 302.3,424.1 303.0,422.3 303.7,420.5 304.4,418.8 305.2,417.0 305.9,415.2 306.7,413.5 307.4,411.7 308.2,410.0 309.1,408.3 309.9,406.6 310.8,404.9 311.7,403.2 312.6,401.5 313.6,399.9 314.5,398.2 315.5,396.6 316.4,394.9 317.4,393.3 318.3,391.6 319.3,389.9 320.2,388.2 321.0,386.5 321.9,384.8 322.8,383.0 323.6,381.3 324.5,379.6 325.3,377.8 326.2,376.1 327.1,374.3 328.1,372.6 329.0,370.9 330.1,369.3 331.1,367.6 332.2,366.0 333.4,364.5 334.6,362.9 335.8,361.4 337.0,360.0 338.3,358.5 339.6,357.0 340.9,355.6 342.3,354.2 343.6,352.8 344.9,351.3 346.2,349.9 347.5,348.5 348.9,347.1 350.2,345.6 351.5,344.2 352.8,342.8 354.2,341.3 355.5,339.9 356.9,338.5 358.2,337.1 359.6,335.7 361.0,334.4 362.4,333.0 363.9,331.7 365.3,330.3 366.7,329.0 368.2,327.7 369.7,326.4 371.2,325.1 372.6,323.8 374.1,322.5 375.6,321.3 377.2,320.0 378.7,318.7 380.2,317.5 381.8,316.3 383.3,315.1 384.9,313.9 386.5,312.7 388.1,311.5 389.7,310.4 391.3,309.3 393.0,308.2 394.7,307.1 396.3,306.1 398.0,305.0 399.7,304.0 401.5,303.0 403.2,302.1 404.9,301.1 406.7,300.2 408.4,299.2 410.2,298.3 411.9,297.3 413.7,296.4 415.4,295.5 417.2,294.6 419.0,293.7 420.8,292.8 422.6,291.9 424.3,291.0 426.1,290.2 428.0,289.3 429.8,288.5 431.6,287.6 433.4,286.8 435.3,286.0 437.1,285.3 439.0,284.5 440.8,283.8 442.7,283.1 444.6,282.4 446.5,281.7 448.4,281.0 450.3,280.4 452.2,279.7 454.1,279.1 456.1,278.5 458.0,277.9 459.9,277.3 461.9,276.8 463.8,276.3 465.8,275.7 467.7,275.3 469.7,274.8 471.7,274.4 473.7,274.0 475.6,273.7 477.6,273.4 479.6,273.1 481.7,272.9 483.7,272.7 485.7,272.5 487.7,272.3 489.7,272.1 491.7,271.9 493.7,271.7 495.7,271.5 497.7,271.2 499.7,270.9 501.7,270.5 503.8,270.1 505.8,269.7 507.8,269.2 509.8,268.8 511.9,268.4 513.9,268.0 516.0,267.6 518.0,267.3 520.1,267.1 522.1,266.9 524.2,266.9 526.3,266.9 528.3,267.0 530.4,267.1 532.4,267.4 534.5,267.7 536.5,268.0 538.5,268.3 540.6,268.7 542.6,269.0 544.6,269.4 546.6,269.7 548.7,270.0 550.7,270.3 552.7,270.6 554.7,271.0 556.8,271.3 558.8,271.7 560.8,272.1 562.8,272.5 564.8,273.0 566.8,273.6 568.7,274.2 570.7,274.7 572.7,275.3 574.6,275.9 576.6,276.4 578.6,276.8 580.7,277.1 582.8,277.3 584.9,277.4 587.1,277.3 589.3,277.1 591.6,276.9 593.9,276.5 596.2,276.2 598.6,275.9 600.9,275.7 603.2,275.6 605.4,275.7 607.6,276.0 609.7,276.6 611.6,277.5 613.5,278.7 615.2,280.1 616.7,281.7 618.2,283.6 619.6,285.6 620.9,287.7 622.2,289.8 623.5,291.9 624.8,293.8 626.2,295.6 627.7,297.2 629.3,298.5 631.0,299.6 632.8,300.5 634.8,301.2 636.8,301.7 639.0,302.1 641.2,302.5 643.5,302.7 645.7,303.1 648.0,303.5 650.2,303.9 652.3,304.5 654.4,305.1 656.4,305.9 658.5,306.7 660.5,307.5 662.5,308.3 664.6,309.1 666.7,309.8 668.9,310.4 671.2,311.0 673.7,311.4 676.1,311.8 678.6,312.2 681.1,312.6 683.6,313.1 685.8,313.9 687.9,314.9 689.6,316.3 691.0,318.0 692.0,320.2 692.6,322.8 692.8,325.7 692.6,329.0 692.1,332.6 691.3,336.3 690.4,340.1 689.5,343.8 688.8,347.3 688.3,350.5 688.2,353.3 688.6,355.6 689.6,357.3 691.2,358.5 693.5,359.2 696.5,359.3 699.9,359.1 703.9,358.5 708.2,357.8 712.6,357.0 717.1,356.3 721.4,355.7 725.4,355.5 729.1,355.6 732.2,356.1 734.8,357.1 736.9,358.4 738.4,360.2 739.4,362.2 740.0,364.5 740.4,367.0 740.5,369.6 740.5,372.2 740.6,374.8 740.8,377.3 741.0,379.7 741.4,382.0 741.9,384.3 742.5,386.5 743.0,388.7 743.3,391.0 743.5,393.4 743.3,395.9 742.7,398.6 741.7,401.5 740.4,404.5 738.6,407.6 736.7,410.8 734.6,414.0 732.7,417.0 731.0,419.9 729.8,422.5 729.4,424.8 729.9,426.7 731.4,428.3 734.1,429.4 737.8,430.1 742.7,430.6 748.5,430.7 755.0,430.8 762.0,430.7 769.1,430.8 776.1,431.0 782.6,431.5 788.3,432.3 792.9,433.5 796.2,435.2 798.1,437.2 798.5,439.7 797.4,442.5 795.0,445.6 791.5,448.9 787.1,452.3 782.1,455.8 776.8,459.2 771.6,462.5 766.7,465.6 762.3,468.6 758.8,471.3 756.0,473.9 754.2,476.2 753.3,478.4 753.2,480.5 753.8,482.5 754.8,484.4 756.2,486.3 757.7,488.3 759.1,490.2 760.4,492.2 761.5,494.2 762.4,496.2 763.2,498.3 763.8,500.4 764.5,502.5 765.4,504.6 766.6,506.7 768.4,508.8 770.7,510.9 773.7,513.1 777.4,515.3 781.6,517.6 786.3,520.0 791.2,522.5 796.2,525.1 800.8,527.7 804.8,530.4 808.0,533.1 810.1,535.8 810.8,538.4 810.0,540.8 807.7,543.1 804.0,545.2 798.9,547.0 792.7,548.7 785.6,550.1 778.1,551.3 770.5,552.4 763.2,553.4 756.5,554.4 750.8,555.5 746.2,556.7 743.1,558.1 741.4,559.8 741.2,561.7 742.4,564.0 744.7,566.6 748.1,569.5 752.1,572.6 756.5,575.9 761.1,579.3 765.5,582.8 769.5,586.2 772.9,589.6 775.6,592.8 777.6,595.9 778.8,598.7 779.4,601.4 779.3,603.9 778.9,606.2 778.1,608.5 777.2,610.7 776.3,612.8 775.4,615.0 774.6,617.3 773.9,619.6 773.4,621.9 772.8,624.3 772.2,626.6 771.3,628.8 770.2,630.9 768.6,632.8 766.5,634.4 763.9,635.8 760.7,636.8 757.0,637.5 752.9,638.0 748.4,638.2 743.8,638.2 739.3,638.2 735.0,638.3 731.1,638.6 727.9,639.1 725.4,640.1 723.8,641.5 723.0,643.5 723.1,646.0 724.0,649.1 725.7,652.7 727.9,656.8 730.4,661.2 733.2,665.8 735.8,670.4 738.3,675.0 740.3,679.4 741.8,683.5 742.6,687.1 742.6,690.2 742.0,692.8 740.7,694.9 738.7,696.4 736.2,697.5 733.3,698.3 730.1,698.7 726.7,699.0 723.4,699.2 720.1,699.5 717.0,699.8 714.1,700.3 711.4,700.9 709.0,701.8 706.8,702.9 704.9,704.2 703.0,705.5 701.3,707.0 699.6,708.5 697.8,710.0 696.1,711.5 694.3,712.8 692.4,714.1 690.4,715.4 688.5,716.6 686.5,717.8 684.6,719.0 682.8,720.4 681.2,721.9 679.6,723.6 678.3,725.6 677.1,727.8 676.1,730.2 675.2,732.9 674.5,735.8 673.8,738.8 673.0,741.8 672.2,744.8 671.3,747.7 670.3,750.4 669.0,752.8 667.5,754.9 665.7,756.7 663.7,758.0 661.5,759.0 659.0,759.6 656.4,759.9 653.6,759.9 650.8,759.8 647.9,759.5 645.1,759.2 642.3,759.0 639.6,758.9 637.1,759.0 634.6,759.2 632.3,759.8 630.1,760.5 628.0,761.5 626.1,762.8 624.1,764.1 622.3,765.6 620.4,767.2 618.6,768.9 616.7,770.5 614.8,772.0 612.9,773.5 610.9,774.9 608.9,776.3 606.8,777.5 604.7,778.6 602.6,779.7 600.4,780.7 598.2,781.6 596.1,782.6 593.9,783.5 591.7,784.5 589.5,785.5 587.3,786.4 585.0,787.4 582.8,788.4 580.6,789.3 578.3,790.1 576.0,790.9 573.7,791.6 571.4,792.1 569.1,792.6 566.7,792.9 564.3,793.2 561.9,793.3 559.5,793.4 557.0,793.4 554.6,793.3 552.2,793.3 549.8,793.3 547.4,793.3 545.0,793.4 542.6,793.6 540.3,793.8 537.9,794.2 535.6,794.6 533.2,795.1 530.9,795.6 528.5,796.2 526.2,796.8 523.8,797.3 521.4,797.9 519.1,798.4 516.7,798.9 514.3,799.3 511.8,799.6 509.4,799.8 507.0,800.0 504.6,800.1 502.2,800.1 499.8,800.1 497.4,800.0 494.9,799.9 492.5,799.8 490.1,799.6 487.7,799.4 485.3,799.3 482.9,799.1 480.5,798.9 478.1,798.7 475.6,798.5 473.2,798.2 470.8,798.0 468.4,797.7 466.0,797.4 463.6,797.1 461.2,796.8 458.8,796.4 456.4,796.0 454.0,795.6 451.6,795.1 449.3,794.7 446.9,794.2 444.5,793.8 442.1,793.3 439.7,792.8 437.3,792.3 434.9,791.8 432.6,791.4 430.2,790.8 427.8,790.3 425.4,789.8 423.0,789.3 420.6,788.7 418.2,788.1 415.9,787.5 413.5,786.8 411.1,786.2 408.8,785.5 406.4,784.7 404.1,784.0 401.8,783.2 399.5,782.3 397.2,781.4 394.9,780.5 392.7,779.6 390.4,778.6 388.2,777.6 385.9,776.6 383.7,775.5 381.5,774.5 379.3,773.4 377.1,772.3 374.8,771.3 372.6,770.2 370.4,769.1 368.2,768.0 366.0,766.9 363.8,765.8 361.6,764.7 359.4,763.5 357.3,762.3 355.1,761.2 352.9,759.9 350.8,758.7 348.7,757.4 346.6,756.2 344.4,754.9 342.3,753.6 340.2,752.3 338.1,751.0 336.0,749.7 333.9,748.3 331.8,747.0 329.7,745.7 327.6,744.3 325.5,743.0 323.4,741.6 321.3,740.2 319.3,738.7 317.3,737.2 315.3,735.7 313.4,734.1 311.5,732.5 309.6,730.8 307.8,729.1 306.1,727.3 304.4,725.5 302.7,723.6 301.0,721.8 299.4,719.9 297.7,718.0 296.1,716.2 294.4,714.3 292.7,712.5 291.0,710.7 289.3,708.9 287.5,707.1 285.7,705.4 283.9,703.7 282.0,701.9 280.2,700.2 278.3,698.5 276.5,696.7 274.7,695.0 272.9,693.2 271.1,691.3 269.4,689.5 267.8,687.6 266.2,685.6 264.6,683.6 263.0,681.6 261.5,679.6 260.0,677.6 258.6,675.5 257.1,673.5 255.6,671.4 254.2,669.3 252.8,667.2 251.3,665.1 249.9,663.0 248.6,660.9 247.2,658.7 246.0,656.5 244.7,654.3 243.6,652.0 242.5,649.7 241.5,647.4 240.6,645.0 239.8,642.6 238.9,640.2 238.2,637.8 237.4,635.3 236.6,632.9 235.8,630.5 234.9,628.2 234.0,625.9 232.9,623.6 231.7,621.3 230.5,619.1 229.1,616.9 227.6,614.8 226.1,612.6 224.5,610.5 222.9,608.3 221.4,606.1 219.8,603.9 218.4,601.7 217.1,599.4 215.9,597.0 214.9,594.6 214.1,592.2 213.4,589.7 212.8,587.2 212.4,584.6 212.1,582.0 211.9,579.4 211.8,576.8 211.6,574.2 211.5,571.6 211.3,569.1 211.1,566.5 210.8,563.9 210.6,561.4 210.2,558.8 209.9,556.3 209.5,553.8 209.1,551.2 208.8,548.7 208.5,546.2 208.3,543.6 208.1,541.1 207.9,538.5 207.8,535.9 207.8,533.4 207.7,530.8 207.6,528.3 207.4,525.7 207.1,523.2 206.7,520.6 206.1,518.1 205.4,515.5 204.5,513.0 203.5,510.4 202.4,507.8 201.3,505.2 200.1,502.5 199.0,499.9 198.0,497.2 197.1,494.5 196.5,491.8 196.2,489.1 196.2,486.5 196.6,483.8 197.2,481.2 198.2,478.7 199.5,476.2 201.0,473.7 202.6,471.3 204.3,468.9 206.1,466.5 207.8,464.1 209.3,461.8 210.7,459.4 211.8,457.0 212.7,454.6 213.2,452.1 213.6,449.5 213.7,446.9 213.6,444.3 213.4,441.6 213.1,438.9 212.8,436.1 212.4,433.4 212.2,430.6 212.1,427.9 212.1,425.2 212.2,422.5 212.4,419.8 212.8,417.2 213.2,414.5 213.6,411.9 214.0,409.2 214.4,406.6 214.7,403.9 215.0,401.1 215.2,398.4 215.3,395.6 215.5,392.8 215.7,390.0 216.0,387.2 216.5,384.4 217.2,381.8 218.2,379.3 219.5,376.9 221.2,374.7 223.3,372.7 225.7,370.9 228.4,369.3 231.4,367.8 234.5,366.5 237.7,365.2 240.8,364.0 243.8,362.7 246.6,361.3 249.0,359.7 250.9,357.9 252.5,355.9 253.5,353.5 254.0,350.8 254.1,347.9 253.8,344.6 253.3,341.2 252.5,337.6 251.7,333.8 250.9,330.1 250.3,326.4 250.0,322.8 249.9,319.4 250.3,316.3 251.0,313.4 252.2,310.8 253.7,308.5 255.6,306.5 257.7,304.7 260.1,303.0 262.5,301.5 265.1,300.1 267.6,298.7 270.0,297.2 272.4,295.7 274.7,294.2 276.9,292.5 279.1,290.9 281.2,289.2 283.4,287.5 285.6,286.0 288.0,284.6 290.5,283.3 293.1,282.2 296.0,281.3 298.9,280.6 301.9,280.1 305.0,279.6 308.0,279.1 310.9,278.5 313.6,277.6 316.1,276.5 318.1,275.0 319.8,273.0 321.1,270.5 322.0,267.4 322.5,263.8 322.7,259.7 322.6,255.2 322.5,250.4 322.3,245.5 322.3,240.6 322.4,236.0 322.9,231.7 323.8,227.9 325.2,224.8 327.1,222.5 329.5,220.9 332.4,220.1 335.8,220.1 339.5,220.7 343.4,221.9 347.6,223.5 351.8,225.3 355.9,227.1 359.9,228.9 363.8,230.3 367.3,231.4 370.6,232.1 373.6,232.2 376.3,231.8 378.8,230.9 381.0,229.6 383.2,228.0 385.2,226.1 387.2,224.1 389.2,222.1 391.2,220.1 393.3,218.2 395.5,216.5 397.8,215.0 400.1,213.5 402.4,212.1 404.7,210.6 407.0,209.0 409.2,207.1 411.3,205.0 413.3,202.4 415.3,199.5 417.2,196.2 419.0,192.6 420.8,188.8 422.7,184.9 424.6,181.1 426.7,177.6 428.9,174.5 431.3,172.2 434.0,170.7 436.9,170.1 440.0,170.5 443.2,172.0 446.7,174.5 450.2,177.9 453.8,181.9 457.5,186.5 461.0,191.3 464.5,196.0 467.8,200.5 471.0,204.3 474.0,207.4 476.8,209.5 479.5,210.6 482.1,210.5 484.5,209.3 486.9,207.0 489.2,203.9 491.5,200.1 493.9,195.8 496.4,191.3 498.9,186.8 501.5,182.5 504.1,178.7 506.9,175.3 509.7,172.7 512.5,170.6 515.4,169.3 518.3,168.5 521.2,168.2 524.1,168.2 526.9,168.5 529.8,168.9 532.7,169.3 535.5,169.7 538.4,169.9 541.3,170.0 544.2,170.0 547.0,170.1 549.9,170.2 552.8,170.7 555.6,171.5 558.3,172.8 560.9,174.6 563.4,177.1 565.8,180.3 568.0,184.0 570.1,188.1 572.1,192.6 573.9,197.2 575.8,201.7 577.6,205.9 579.5,209.5 581.5,212.2 583.7,214.0 586.2,214.7 589.0,214.2 592.1,212.6 595.5,209.8 599.3,206.2 603.4,201.8 607.7,197.0 612.1,192.0 616.7,187.0 621.2,182.5 625.6,178.7 629.8,175.7 633.6,173.7 637.1,172.9 640.3,173.2 643.0,174.6 645.3,177.1 647.2,180.3 648.8,184.3 650.2,188.6 651.4,193.2 652.5,197.8 653.7,202.3 654.9,206.4 656.3,210.1 657.8,213.3 659.5,216.1 661.5,218.4 663.6,220.3 665.8,222.0 668.1,223.5 670.4,225.0 672.7,226.5 674.9,228.2 677.1,230.0 679.1,231.9 681.1,233.9 683.0,236.0 685.0,238.0 687.0,239.9 689.2,241.4 691.7,242.6 694.5,243.3 697.7,243.4 701.3,243.0 705.4,242.0 709.9,240.6 714.8,238.8 719.8,236.8 725.0,234.8 730.2,232.9 735.2,231.4 739.9,230.4 744.0,230.1 747.6,230.7 750.4,232.2 752.4,234.6 753.6,237.8 754.0,242.0 753.7,246.8 752.9,252.1 751.6,257.8 750.1,263.6 748.5,269.4 747.0,274.8 745.9,279.9 745.2,284.4 745.2,288.3 745.7,291.5 747.0,294.0 748.9,295.8 751.5,297.1 754.6,298.0 758.2,298.5 762.0,298.8 766.0,299.1 770.0,299.4 773.9,299.9 777.6,300.5 781.0,301.4 784.2,302.6 787.1,304.0 789.8,305.6 792.2,307.4 794.6,309.3 796.9,311.2 799.3,313.1 801.7,315.0 804.3,316.8 807.0,318.6 809.8,320.3 812.7,322.0 815.5,323.7 818.2,325.6 820.7,327.6 822.9,329.8 824.5,332.3 825.7,335.2 826.2,338.3 826.1,341.8 825.3,345.6 824.0,349.7 822.2,353.9 820.1,358.2 817.9,362.5 815.6,366.7 813.6,370.8 812.0,374.6 811.0,378.1 810.7,381.2 811.2,384.0 812.5,386.4 814.7,388.4 817.7,390.2 821.4,391.7 825.6,393.1 830.2,394.4 834.9,395.7 839.7,397.1 844.2,398.6 848.4,400.3 852.1,402.2 855.2,404.4 857.7,406.8 859.5,409.4 860.6,412.3 861.2,415.2 861.3,418.4 861.1,421.6 860.6,424.8 859.9,428.1 859.3,431.3 858.7,434.5 858.2,437.6 857.9,440.7 857.7,443.8 857.6,446.8 857.7,449.8 857.7,452.8 857.8,455.7 857.7,458.7 857.5,461.7 857.1,464.7 856.5,467.7 855.8,470.8 854.9,473.8 853.9,476.8 852.9,479.8 852.0,482.7 851.3,485.6 851.0,488.5 851.0,491.4 851.5,494.2 852.4,497.0 853.9,499.8 855.9,502.6 858.2,505.5 860.9,508.3 863.8,511.3 866.8,514.2 869.6,517.2 872.3,520.3 874.6,523.4 876.4,526.5 877.6,529.6 878.3,532.7 878.3,535.8 877.7,538.9 876.5,541.8 874.8,544.8 872.7,547.6 870.3,550.4 867.8,553.2 865.3,555.9 862.9,558.6 860.7,561.3 858.7,564.0 857.0,566.7 855.7,569.4 854.8,572.2 854.1,575.1 853.7,578.0 853.6,580.9 853.5,583.9 853.6,586.9 853.7,589.9 853.7,592.9 853.6,595.9 853.5,598.9 853.2,601.9 852.9,604.9 852.5,607.9 852.0,610.8 851.5,613.8 851.1,616.8 850.8,619.8 850.5,622.8 850.3,625.9 850.3,629.0 850.3,632.2 850.3,635.5 850.4,638.7 850.4,641.9 850.3,645.2 850.0,648.3 849.5,651.4 848.7,654.4 847.6,657.3 846.1,660.0 844.4,662.6 842.4,665.0 840.1,667.3 837.6,669.5 835.0,671.6 832.3,673.6 829.6,675.6 827.1,677.6 824.6,679.7 822.4,681.8 820.4,684.1 818.6,686.5 817.1,689.1 815.9,691.8 814.8,694.6 814.0,697.6 813.3,700.6 812.6,703.8 812.0,706.9 811.4,710.1 810.7,713.3 809.9,716.3 808.9,719.4 807.8,722.3 806.5,725.1 805.0,727.8 803.5,730.5 801.8,733.0 800.0,735.5 798.1,737.9 796.2,740.3 794.2,742.6 792.3,745.0 790.3,747.3 788.4,749.7 786.4,752.0 784.4,754.3 782.5,756.7 780.4,759.0 778.4,761.2 776.3,763.4 774.0,765.5 771.8,767.6 769.4,769.6 767.0,771.4 764.5,773.3 762.0,775.0 759.4,776.7 756.9,778.4 754.4,780.2 751.9,781.9 749.4,783.8 747.1,785.7 744.8,787.7 742.7,789.8 740.6,792.0 738.5,794.3 736.6,796.7 734.7,799.2 732.7,801.7 730.8,804.3 728.9,806.8 726.9,809.2 724.8,811.6 722.6,813.9 720.4,816.0 718.0,818.1 715.5,820.0 713.0,821.7 710.4,823.4 707.7,824.9 705.0,826.4 702.2,827.8 699.4,829.1 696.6,830.4 693.7,831.7 690.9,833.0 688.2,834.3 685.4,835.6 682.6,837.0 679.9,838.4 677.2,839.8 674.4,841.3 671.7,842.7 669.0,844.1 666.2,845.5 663.5,846.9 660.7,848.3 657.9,849.6 655.1,850.9 652.3,852.2 649.5,853.4 646.7,854.6 643.8,855.8 641.0,857.0 638.1,858.3 635.3,859.5 632.5,860.8 629.6,862.1 626.8,863.4 624.0,864.7 621.1,866.0 618.3,867.2 615.4,868.5 612.5,869.7 609.6,870.8 606.7,871.9 603.7,872.9 600.7,873.8 597.7,874.6 594.7,875.4 591.6,876.0 588.5,876.6 585.4,877.1 582.4,877.6 579.3,878.0 576.2,878.4 573.1,878.8 570.0,879.2 566.9,879.6 563.8,880.0 560.7,880.4 557.6,880.9 554.5,881.3 551.5,881.7 548.4,882.2 545.3,882.7 542.2,883.2 539.1,883.6 536.0,884.1 532.9,884.6 529.8,885.0 526.7,885.4 523.6,885.7 520.4,886.1 517.3,886.3 514.2,886.5 511.0,886.7 507.9,886.9 504.7,887.0 501.6,887.1 498.4,887.2 495.3,887.3 492.1,887.4 489.0,887.5 485.8,887.6 482.6,887.6 479.5,887.6 476.3,887.6 473.1,887.5 470.0,887.3 466.8,887.0 463.7,886.6 460.5,886.0 457.4,885.4 454.4,884.6 451.3,883.8 448.3,882.8 445.2,881.8 442.2,880.7 439.2,879.6 436.3,878.6 433.3,877.6 430.2,876.7 427.2,876.0 424.1,875.4 421.0,874.9 417.9,874.6 414.7,874.4 411.4,874.3 408.2,874.3 404.9,874.3 401.5,874.3 398.2,874.3 394.9,874.2 391.6,874.0 388.4,873.6 385.1,873.1 382.0,872.4 378.9,871.5 375.9,870.4 372.9,869.2 370.0,867.8 367.1,866.4 364.3,864.8 361.5,863.3 358.6,861.7 355.8,860.2 353.0,858.6 350.2,857.1 347.4,855.6 344.6,854.1 341.7,852.6 338.9,851.1 336.2,849.4 333.5,847.7 330.8,846.0 328.3,844.0 325.7,842.0 323.3,839.9 320.9,837.8 318.5,835.6 316.1,833.4 313.7,831.3 311.2,829.4 308.6,827.6 305.9,826.0 303.0,824.7 299.9,823.7 296.6,822.9 293.1,822.3 289.4,822.0 285.6,821.7 281.7,821.6 277.8,821.4 273.9,821.1 270.2,820.6 266.6,819.9 263.2,818.8 260.1,817.3 257.4,815.3 255.1,813.0 253.1,810.2 251.4,807.1 250.1,803.7 248.9,800.0 248.0,796.2 247.2,792.4 246.3,788.6 245.4,784.9 244.4,781.4 243.2,778.2 241.7,775.2 240.0,772.4 238.0,770.0 235.8,767.8 233.3,765.7 230.7,763.8 228.0,761.9 225.3,760.1 222.6,758.3 219.9,756.4 217.3,754.4 214.8,752.3 212.3,750.1 209.9,747.9 207.6,745.7 205.2,743.5 202.7,741.3 200.0,739.3 197.1,737.3 194.0,735.6 190.7,733.9 187.1,732.4 183.4,730.9 179.6,729.5 175.7,728.0 172.0,726.4 168.6,724.5 165.5,722.4 163.0,720.0 161.1,717.1 159.9,713.9 159.5,710.2 159.9,706.1 160.9,701.7 162.6,697.1 164.7,692.2 167.2,687.3 169.7,682.4 172.1,677.7 174.2,673.2 175.7,669.0 176.5,665.2 176.6,661.8 175.7,658.8 173.9,656.3 171.2,654.0 167.7,652.1 163.6,650.4 158.9,648.9 153.9,647.3 148.9,645.8 143.9,644.1 139.3,642.3 135.0,640.2 131.3,637.9 128.2,635.4 125.8,632.6 123.9,629.7 122.5,626.5 121.6,623.2 121.0,619.9 120.5,616.5 120.1,613.1 119.7,609.7 119.2,606.3 118.6,603.0 117.9,599.7 117.1,596.4 116.5,593.1 115.9,589.7 115.7,586.3 115.9,582.9 116.6,579.3 117.9,575.7 119.9,572.0 122.4,568.3 125.4,564.6 128.9,560.8 132.6,557.1 136.2,553.5 139.6,550.0 142.5,546.5 144.7,543.2 145.9,540.1 146.0,537.0 144.8,534.0 142.4,531.0 138.8,528.0 134.1,525.1 128.5,522.0 122.3,518.9 115.7,515.7 109.2,512.4 103.0,509.0 97.4,505.5 92.7,501.9 89.2,498.3 86.9,494.6 86.0,491.0 86.4,487.5 88.1,484.0 90.8,480.6 94.4,477.4 98.7,474.2 103.3,471.2 108.1,468.2 112.6,465.4 116.9,462.5 120.7,459.6 123.9,456.7 126.5,453.8 128.4,450.8 129.9,447.8 130.9,444.6 131.7,441.5 132.3,438.3 132.8,435.1 133.5,431.9 134.3,428.8 135.3,425.7 136.5,422.6 137.7,419.6 139.0,416.6 140.1,413.6 141.0,410.5 141.5,407.3 141.4,403.9 140.7,400.3 139.3,396.5 137.3,392.4 134.6,388.0 131.5,383.5 128.0,378.7 124.5,373.8 121.1,368.9 118.0,364.0 115.6,359.3 114.0,354.8 113.4,350.8 114.0,347.1 115.8,343.9 118.8,341.3 122.9,339.2 128.0,337.6 133.8,336.4 140.2,335.5 146.8,334.9 153.4,334.4 159.7,333.8 165.5,333.1 170.6,332.1 174.9,330.7 178.2,328.9 180.5,326.5 182.0,323.7 182.6,320.4 182.6,316.6 182.0,312.6 181.2,308.2 180.1,303.7 179.1,299.2 178.3,294.7 177.7,290.3 177.5,286.1 177.7,282.2 178.3,278.4 179.2,274.9 180.4,271.5 181.8,268.3 183.4,265.2 185.0,262.0 186.5,258.9 188.0,255.7 189.5,252.4 190.8,249.0 192.1,245.6 193.5,242.1 194.9,238.8 196.6,235.5 198.5,232.5 200.7,229.8 203.4,227.5 206.5,225.6 210.1,224.1 214.0,223.1 218.4,222.5 223.0,222.2 227.8,222.2 232.6,222.3 237.4,222.5 242.0,222.5 246.2,222.2 250.0,221.5 253.4,220.3 256.2,218.6 258.5,216.2 260.2,213.3 261.6,209.7 262.5,205.7 263.2,201.3 263.7,196.6 264.2,191.7 264.8,186.8 265.5,182.1 266.6,177.6 267.9,173.5 269.6,169.9 271.6,166.7 274.1,164.0 276.9,161.8 279.9,160.1 283.2,158.7 286.7,157.6 290.3,156.7 294.0,155.9 297.6,155.2 301.2,154.4 304.7,153.6 308.2,152.6 311.5,151.5 314.8,150.3 318.0,149.1 321.2,147.7 324.4,146.4 327.6,145.1 330.9,143.8 334.1,142.7 337.4,141.7 340.8,140.8 344.2,140.0 347.6,139.2 351.0,138.5 354.4,137.7 357.7,136.8 360.9,135.8 364.1,134.5 367.2,133.0 370.1,131.3 373.0,129.2 375.8,127.0 378.6,124.5 381.3,121.8 384.0,119.0 386.8,116.2 389.6,113.5 392.5,111.0 395.4,108.6 398.5,106.5 401.7,104.8 405.0,103.4 408.4,102.4 411.9,101.8 415.4,101.5 419.1,101.4 422.7,101.6 426.4,102.0 430.1,102.4 433.7,102.9 437.3,103.3 440.9,103.7 444.5,103.9 448.0,103.9 451.5,103.7 454.9,103.4 458.3,102.9 461.8,102.3 465.2,101.6 468.6,100.8 472.0,100.0 475.4,99.2 478.8,98.5 482.2,97.8 485.7,97.1 489.1,96.6 492.6,96.1 496.1,95.6 499.6,95.3 503.0,94.9 506.5,94.6 510.0,94.3 513.5,94.0 517.0,93.6 520.6,93.3 524.1,92.9 527.6,92.6 531.1,92.3 534.7,92.0 538.2,91.8 541.8,91.6 545.3,91.6 548.9,91.7 552.4,91.9 555.9,92.3 559.4,92.8 562.9,93.4 566.4,94.2 569.8,95.0 573.2,95.9 576.7,96.8 580.1,97.7 583.5,98.6 586.9,99.5 590.3,100.3 593.8,101.1 597.2,101.8 600.7,102.5 604.1,103.0 607.6,103.6 611.1,104.1 614.6,104.5 618.1,105.0 621.6,105.5 625.2,106.0 628.7,106.6 632.2,107.2 635.7,107.9 639.1,108.7 642.6,109.6 646.0,110.5 649.4,111.5 652.8,112.5 656.2,113.6 659.5,114.8 662.9,116.0 666.2,117.2 669.6,118.4 672.9,119.7 676.2,121.0 679.5,122.3 682.8,123.6 686.1,125.0 689.4,126.4 692.6,127.8 695.9,129.2 699.1,130.7 702.3,132.3 705.5,133.8 708.7,135.4 711.9,137.1 715.0,138.7 718.1,140.4 721.3,142.1 724.4,143.9 727.5,145.6 730.6,147.4 733.7,149.1 736.8,150.9 739.9,152.7 742.9,154.5 746.0,156.3 749.1,158.1 752.2,159.9 755.3,161.8 758.3,163.6 761.3,165.5 764.4,167.5 767.4,169.4 770.3,171.5 773.3,173.5 776.2,175.6 779.1,177.7 781.9,179.9 784.8,182.1 787.6,184.3 790.4,186.6 793.1,188.9 795.9,191.2 798.6,193.5 801.3,195.9 804.0,198.3 806.7,200.7 809.3,203.1 812.0,205.5 814.6,208.0 817.2,210.4 819.8,212.9 822.4,215.4 825.0,218.0 827.5,220.5 830.0,223.1 832.5,225.7 835.0,228.3 837.4,230.9 839.9,233.6 842.3,236.3 844.7,239.0 847.1,241.7 849.4,244.5 851.7,247.2 854.0,250.0 856.3,252.8 858.6,255.6 860.8,258.5 863.0,261.3 865.2,264.2 867.4,267.1 869.6,270.0 871.7,272.9 873.8,275.9 875.8,278.9 877.9,281.8 879.9,284.9 881.9,287.9 883.9,290.9 885.8,294.0 887.7,297.1 889.6,300.2 891.4,303.3 893.3,306.5 895.1,309.6 896.8,312.8 898.6,316.0 900.3,319.2 902.0,322.4 903.7,325.6 905.3,328.8 907.0,332.1 908.6,335.4 910.1,338.6 911.7,341.9 913.2,345.3 914.7,348.6 916.2,351.9 917.6,355.3 919.0,358.6 920.4,362.0 921.8,365.4 923.1,368.8 924.4,372.2 925.7,375.6 926.9,379.1 928.1,382.5 929.3,386.0 930.5,389.4 931.6,392.9 932.7,396.4 933.7,399.9 934.8,403.4 935.8,406.9 936.8,410.5 937.7,414.0 938.6,417.5 939.5,421.1 940.4,424.7 941.2,428.2 942.0,431.8 942.8,435.4 943.5,439.0 944.2,442.6 944.9,446.2 945.6,449.8 946.2,453.4 946.8,457.1 947.3,460.7 947.9,464.3 948.4,468.0 948.8,471.6 949.3,475.3 949.7,478.9 950.1,482.6 950.4,486.3 950.7,489.9 951.0,493.6 951.3,497.3 951.5,500.9 951.7,504.6 951.9,508.3 952.0,512.0" fill="none" stroke="#FBB83D" stroke-width="20" stroke-linecap="round" stroke-linejoin="round"/>
  </g>
  <g id="center-dot">
    <circle cx="512" cy="512" r="22" fill="#FBB83D"/>
  </g>
</svg>
