<svg xmlns="http://www.w3.org/2000/svg" viewBox="0 0 1024 1024">
  <g id="background">
    <rect x="0" y="0" width="1024" height="1024" rx="180" ry="180" fill="#1F5F66"/>
  </g>
  <g id="frame">
    <rect x="20" y="20" width="984" height="984" rx="162" ry="162" fill="none" stroke="#D2E7E8" stroke-width="14" stroke-opacity="0.32"/>
  </g>
  <g id="spiral">
    <polyline points="642.9,512.0 643.1,512.7 643.3,513.4 643.5,514.1 643.7,514.8 643.8,515.5 644.0,516.1 644.1,516.8 644.2,517.5 644.3,518.2 644.4,518.9 644.5,519.6 644.6,520.3 644.7,521.0 644.8,521.8 644.8,522.5 644.9,523.2 644.9,523.9 644.9,524.6 645.0,525.3 645.0,526.0 645.0,526.7 645.0,527.4 644.9,528.1 644.9,528.8 644.9,529.5 644.8,530.2 644.8,530.9 644.7,531.6 644.7,532.3 644.6,533.0 644.5,533.7 644.4,534.4 644.2,535.1 644.1,535.8 644.0,536.5 643.8,537.1 643.6,537.8 643.3,538.5 642.7,539.1 642.4,539.7 642.1,540.4 641.9,541.0 641.7,541.7 641.6,542.4 641.4,543.1 641.2,543.7 641.1,544.4 640.9,545.1 640.8,545.8 640.6,546.5 640.5,547.2 640.3,547.8 640.2,548.5 640.0,549.2 639.9,549.9 639.8,550.6 639.6,551.3 639.5,552.0 639.4,552.7 639.2,553.4 639.1,554.1 639.0,554.7 638.9,555.4 638.7,556.1 638.6,556.9 638.5,557.6 638.4,558.3 638.3,559.0 638.1,559.7 638.0,560.4 637.9,561.1 637.8,561.8 637.7,562.5 637.6,563.3 637.5,564.0 637.4,564.7 637.3,565.5 637.2,566.2 637.2,567.0 637.1,567.7 637.1,568.5 637.5,569.5 637.5,570.3 637.5,571.1 637.4,571.8 637.3,572.6 637.1,573.3 637.0,574.1 636.8,574.8 636.7,575.5 636.5,576.3 636.3,577.0 636.1,577.7 635.9,578.4 635.6,579.2 635.4,579.9 635.2,580.6 634.9,581.3 634.7,582.0 634.4,582.7 634.1,583.4 633.8,584.1 633.5,584.8 633.2,585.4 632.9,586.1 632.6,586.8 632.3,587.5 631.9,588.1 631.6,588.8 631.2,589.5 630.9,590.1 630.5,590.8 630.1,591.4 629.7,592.0 629.3,592.7 628.9,593.3 628.5,593.9 628.1,594.5 627.6,595.1 627.2,595.7 626.7,596.3 626.2,596.9 625.7,597.4 625.1,597.9 624.2,598.1 623.6,598.6 623.1,599.2 622.6,599.7 622.1,600.3 621.6,600.8 621.2,601.4 620.7,602.0 620.2,602.5 619.8,603.1 619.3,603.7 618.8,604.3 618.4,604.8 617.9,605.4 617.5,606.0 617.0,606.6 616.6,607.2 616.1,607.8 615.7,608.4 615.2,609.0 614.8,609.6 614.3,610.2 613.9,610.8 613.4,611.4 613.0,612.0 612.6,612.6 612.1,613.2 611.7,613.8 611.2,614.4 610.8,615.1 610.3,615.7 609.9,616.3 609.5,616.9 609.0,617.6 608.6,618.2 608.2,618.8 607.7,619.5 607.3,620.1 606.9,620.8 606.4,621.5 606.0,622.2 605.7,622.9 605.3,623.7 605.2,624.7 604.8,625.5 604.4,626.2 604.0,626.8 603.5,627.5 603.0,628.2 602.5,628.8 602.0,629.4 601.5,630.0 601.0,630.6 600.5,631.2 600.0,631.8 599.4,632.4 598.9,633.0 598.3,633.5 597.8,634.1 597.2,634.7 596.6,635.2 596.0,635.7 595.5,636.3 594.9,636.8 594.3,637.3 593.7,637.8 593.0,638.3 592.4,638.8 591.8,639.3 591.2,639.8 590.6,640.3 589.9,640.8 589.3,641.3 588.7,641.7 588.0,642.2 587.3,642.6 586.7,643.0 586.0,643.4 585.3,643.8 584.6,644.2 583.9,644.6 583.2,644.9 582.5,645.2 581.7,645.5 580.9,645.7 580.1,645.7 579.1,645.4 578.3,645.6 577.5,645.8 576.7,646.0 576.0,646.2 575.2,646.5 574.5,646.7 573.8,647.0 573.0,647.3 572.3,647.5 571.6,647.8 570.8,648.1 570.1,648.4 569.4,648.6 568.7,648.9 567.9,649.2 567.2,649.5 566.5,649.8 565.8,650.1 565.1,650.4 564.4,650.7 563.7,651.1 563.0,651.4 562.2,651.7 561.5,652.0 560.8,652.4 560.1,652.7 559.4,653.1 558.7,653.5 558.0,653.9 557.3,654.3 556.6,654.7 556.0,655.1 555.3,655.5 554.6,655.9 553.9,656.4 553.2,656.9 552.5,657.4 551.9,658.0 551.2,658.5 550.6,659.2 549.9,660.0 549.5,661.4 548.9,662.7 548.3,663.4 547.6,664.1 546.9,664.8 546.2,665.4 545.5,666.0 544.8,666.5 544.0,667.0 543.3,667.5 542.5,668.0 541.8,668.5 541.0,669.0 540.3,669.4 539.5,669.8 538.7,670.2 537.9,670.6 537.1,670.9 536.3,671.3 535.5,671.6 534.7,671.9 533.9,672.2 533.1,672.5 532.2,672.7 531.4,672.9 530.6,673.1 529.7,673.3 528.9,673.5 528.1,673.6 527.2,673.7 526.4,673.8 525.5,673.8 524.7,673.8 523.8,673.8 523.0,673.8 522.1,673.7 521.2,673.6 520.4,673.4 519.5,673.2 518.7,672.9 517.8,672.5 517.0,672.0 516.1,671.3 515.2,669.3 514.4,668.1 513.6,667.5 512.7,666.9 511.9,666.5 511.1,666.0 510.3,665.7 509.5,665.3 508.7,665.0 507.9,664.7 507.1,664.4 506.4,664.2 505.6,663.9 504.8,663.7 504.0,663.5 503.2,663.3 502.4,663.2 501.6,663.0 500.8,662.9 500.1,662.8 499.3,662.7 498.5,662.6 497.7,662.6 496.9,662.6 496.1,662.6 495.3,662.6 494.5,662.6 493.7,662.7 492.9,662.8 492.1,662.9 491.2,663.1 490.4,663.3 489.6,663.5 488.7,663.7 487.8,664.0 487.0,664.3 486.1,664.7 485.2,665.1 484.3,665.6 483.3,666.2 482.4,666.8 481.4,667.7 480.3,668.8 478.8,671.9 477.6,673.4 476.5,674.3 475.5,675.1 474.4,675.7 473.4,676.3 472.3,676.8 471.3,677.2 470.3,677.6 469.3,678.0 468.3,678.3 467.3,678.6 466.3,678.8 465.3,679.0 464.3,679.2 463.3,679.3 462.3,679.4 461.4,679.4 460.4,679.4 459.4,679.4 458.5,679.3 457.6,679.2 456.6,679.1 455.7,678.9 454.8,678.7 454.0,678.4 453.1,678.1 452.2,677.8 451.4,677.4 450.6,676.9 449.8,676.5 449.0,675.9 448.2,675.4 447.5,674.8 446.7,674.1 446.0,673.4 445.4,672.6 444.8,671.7 444.2,670.8 443.6,669.7 443.2,668.5 442.8,667.1 442.7,665.2 443.7,661.0 443.6,659.1 443.4,657.6 443.0,656.4 442.7,655.2 442.2,654.2 441.8,653.2 441.3,652.3 440.9,651.4 440.4,650.6 439.8,649.8 439.3,649.1 438.8,648.4 438.2,647.7 437.6,647.1 437.1,646.5 436.4,645.9 435.8,645.4 435.2,644.9 434.5,644.4 433.8,644.0 433.1,643.6 432.4,643.2 431.7,642.9 430.9,642.6 430.1,642.4 429.3,642.1 428.5,641.9 427.6,641.8 426.7,641.7 425.8,641.6 424.8,641.5 423.8,641.5 422.8,641.6 421.8,641.7 420.7,641.8 419.5,642.0 418.3,642.2 417.0,642.6 415.7,643.0 414.2,643.5 412.5,644.3 410.4,645.7 406.6,649.2 404.6,650.3 402.9,651.0 401.3,651.5 399.8,651.8 398.5,652.0 397.1,652.2 395.8,652.3 394.6,652.3 393.3,652.2 392.2,652.1 391.0,652.0 389.9,651.8 388.8,651.6 387.8,651.3 386.7,650.9 385.7,650.6 384.8,650.2 383.9,649.7 383.0,649.2 382.2,648.6 381.4,648.1 380.6,647.4 379.8,646.8 379.2,646.1 378.5,645.3 377.9,644.5 377.3,643.7 376.8,642.9 376.3,642.0 375.9,641.0 375.5,640.0 375.1,639.0 374.8,638.0 374.6,636.8 374.4,635.7 374.4,634.5 374.3,633.2 374.4,631.9 374.6,630.4 375.0,628.9 375.6,627.1 377.1,624.7 380.4,620.7 381.3,618.8 381.9,617.2 382.2,615.8 382.5,614.5 382.6,613.3 382.7,612.1 382.8,611.0 382.8,610.0 382.7,608.9 382.6,608.0 382.4,607.0 382.2,606.1 382.0,605.3 381.8,604.4 381.4,603.6 381.1,602.8 380.7,602.1 380.3,601.4 379.8,600.7 379.3,600.0 378.8,599.4 378.2,598.8 377.6,598.2 376.9,597.6 376.2,597.0 375.5,596.5 374.7,596.0 373.9,595.5 373.0,595.1 372.1,594.6 371.1,594.2 370.1,593.8 369.0,593.4 367.9,593.1 366.7,592.7 365.5,592.4 364.1,592.1 362.7,591.9 361.1,591.7 359.4,591.6 357.3,591.7 353.9,592.4 349.3,593.7 347.1,593.7 345.4,593.5 343.8,593.2 342.3,592.8 341.0,592.3 339.8,591.8 338.6,591.2 337.5,590.6 336.5,590.0 335.5,589.3 334.6,588.6 333.7,587.9 332.9,587.1 332.1,586.3 331.4,585.5 330.8,584.7 330.2,583.8 329.6,582.9 329.1,582.0 328.7,581.1 328.3,580.2 327.9,579.2 327.6,578.2 327.3,577.2 327.1,576.2 327.0,575.2 326.9,574.1 326.8,573.1 326.8,572.0 326.8,570.9 326.9,569.8 327.1,568.7 327.3,567.6 327.6,566.5 327.9,565.3 328.3,564.2 328.8,563.0 329.4,561.8 330.1,560.6 331.0,559.3 332.3,558.0 336.2,556.0 338.4,554.5 339.6,553.2 340.5,552.1 341.2,551.0 341.7,549.9 342.2,548.9 342.6,547.9 342.9,546.9 343.1,545.9 343.3,544.9 343.5,544.0 343.6,543.1 343.7,542.1 343.7,541.2 343.7,540.3 343.6,539.4 343.5,538.5 343.4,537.7 343.2,536.8 343.0,535.9 342.7,535.0 342.4,534.2 342.1,533.3 341.8,532.5 341.4,531.6 340.9,530.7 340.5,529.9 340.0,529.0 339.5,528.2 338.9,527.3 338.3,526.4 337.7,525.6 337.1,524.7 336.4,523.8 335.6,522.9 334.8,522.1 334.0,521.2 333.1,520.3 332.1,519.4 331.1,518.5 329.8,517.6 328.3,516.7 324.4,515.8 322.4,514.8 321.2,513.8 320.1,512.8 319.3,511.8 318.5,510.8 317.8,509.8 317.2,508.8 316.7,507.7 316.2,506.7 315.8,505.7 315.5,504.6 315.1,503.6 314.9,502.5 314.6,501.5 314.5,500.4 314.3,499.4 314.2,498.3 314.2,497.3 314.1,496.2 314.1,495.2 314.2,494.2 314.3,493.1 314.4,492.1 314.6,491.1 314.7,490.0 315.0,489.0 315.2,488.0 315.5,487.0 315.8,486.0 316.2,485.0 316.6,484.0 317.0,483.0 317.4,482.0 317.9,481.1 318.5,480.1 319.0,479.2 319.6,478.2 320.3,477.3 321.0,476.4 321.8,475.5 322.8,474.7 324.0,473.9 326.9,473.5 328.2,472.7 329.1,471.9 329.8,471.1 330.5,470.2 331.1,469.4 331.6,468.5 332.1,467.6 332.5,466.7 332.9,465.8 333.3,464.9 333.7,464.0 334.0,463.1 334.3,462.2 334.6,461.3 334.8,460.3 335.1,459.4 335.3,458.5 335.5,457.5 335.7,456.6 335.9,455.6 336.0,454.6 336.2,453.7 336.3,452.7 336.4,451.7 336.5,450.7 336.6,449.7 336.6,448.7 336.7,447.7 336.8,446.6 336.8,445.6 336.8,444.6 336.9,443.5 336.9,442.5 336.9,441.4 336.8,440.3 336.8,439.2 336.8,438.1 336.7,437.0 336.6,435.9 336.4,434.7 336.2,433.5 335.8,432.2 334.4,430.5 334.1,429.2 333.9,428.0 333.9,426.8 334.0,425.7 334.1,424.6 334.2,423.5 334.4,422.5 334.6,421.4 334.9,420.3 335.1,419.3 335.4,418.3 335.8,417.3 336.1,416.3 336.5,415.3 336.9,414.3 337.3,413.3 337.7,412.3 338.2,411.4 338.6,410.4 339.1,409.5 339.6,408.6 340.1,407.7 340.6,406.8 341.2,405.9 341.8,405.0 342.3,404.1 342.9,403.2 343.5,402.3 344.1,401.5 344.8,400.6 345.4,399.8 346.1,399.0 346.8,398.2 347.4,397.4 348.1,396.6 348.8,395.8 349.6,395.0 350.3,394.3 351.1,393.5 351.9,392.8 352.8,392.2 353.8,391.6 355.2,391.4 356.1,390.8 356.9,390.1 357.7,389.4 358.4,388.7 359.1,387.9 359.8,387.1 360.5,386.4 361.1,385.6 361.8,384.8 362.4,384.0 363.1,383.2 363.7,382.4 364.4,381.6 365.0,380.8 365.6,379.9 366.3,379.1 366.9,378.3 367.5,377.5 368.1,376.6 368.8,375.8 369.4,375.0 370.1,374.2 370.7,373.3 371.4,372.5 372.0,371.7 372.7,370.9 373.3,370.1 373.9,369.2 374.6,368.4 375.2,367.5 375.9,366.7 376.5,365.9 377.1,365.0 377.8,364.1 378.4,363.3 379.0,362.4 379.6,361.5 380.3,360.6 380.9,359.7 381.4,358.8 382.0,357.8 382.4,356.7 382.7,355.3 383.2,354.3 383.9,353.4 384.5,352.5 385.2,351.6 385.9,350.7 386.6,349.9 387.3,349.1 388.0,348.2 388.7,347.4 389.5,346.6 390.2,345.9 391.0,345.1 391.8,344.3 392.6,343.6 393.4,342.8 394.2,342.1 395.0,341.4 395.8,340.7 396.7,340.0 397.5,339.3 398.4,338.6 399.2,337.9 400.1,337.3 401.0,336.6 401.9,336.0 402.8,335.4 403.7,334.8 404.6,334.2 405.5,333.6 406.4,333.0 407.4,332.4 408.3,331.9 409.3,331.4 410.2,330.9 411.2,330.4 412.2,329.9 413.1,329.4 414.1,329.0 415.1,328.6 416.2,328.2 417.2,327.9 418.5,328.0 419.7,327.9 420.7,327.6 421.8,327.3 422.8,326.9 423.8,326.5 424.8,326.1 425.8,325.7 426.8,325.3 427.8,324.9 428.8,324.4 429.7,324.0 430.7,323.6 431.7,323.1 432.7,322.7 433.7,322.3 434.6,321.8 435.6,321.4 436.6,320.9 437.6,320.4 438.6,320.0 439.5,319.5 440.5,319.1 441.5,318.6 442.5,318.1 443.4,317.6 444.4,317.2 445.4,316.7 446.4,316.2 447.4,315.7 448.3,315.2 449.3,314.7 450.3,314.2 451.3,313.7 452.2,313.2 453.2,312.7 454.2,312.2 455.2,311.6 456.2,311.1 457.2,310.5 458.1,310.0 459.1,309.3 460.1,308.6 460.9,307.4 461.8,306.6 462.8,306.0 463.8,305.4 464.8,304.9 465.9,304.3 466.9,303.9 467.9,303.4 469.0,302.9 470.0,302.5 471.1,302.1 472.2,301.7 473.2,301.3 474.3,300.9 475.4,300.6 476.5,300.2 477.5,299.9 478.6,299.6 479.7,299.3 480.8,299.0 481.9,298.8 483.0,298.5 484.1,298.3 485.2,298.0 486.4,297.8 487.5,297.6 488.6,297.4 489.7,297.3 490.8,297.1 492.0,297.0 493.1,296.8 494.2,296.7 495.3,296.6 496.5,296.6 497.6,296.5 498.7,296.5 499.9,296.4 501.0,296.4 502.1,296.5 503.2,296.5 504.4,296.6 505.5,296.7 506.6,297.0 507.8,297.8 508.9,298.1 510.0,298.3 511.2,298.4 512.3,298.5 513.4,298.6 514.5,298.7 515.6,298.8 516.7,298.8 517.9,298.9 519.0,298.9 520.1,299.0 521.2,299.0 522.3,299.0 523.4,299.1 524.6,299.1 525.7,299.1 526.8,299.1 527.9,299.1 529.0,299.2 530.2,299.2 531.3,299.2 532.4,299.2 533.5,299.2 534.7,299.2 535.8,299.2 536.9,299.2 538.0,299.2 539.2,299.2 540.3,299.2 541.4,299.2 542.6,299.1 543.7,299.1 544.9,299.1 546.0,299.0 547.2,299.0 548.3,299.0 549.5,298.9 550.7,298.8 551.8,298.8 553.0,298.6 554.2,298.5 555.4,298.2 556.7,297.4 558.0,297.2 559.2,297.1 560.4,297.0 561.6,296.9 562.8,296.9 563.9,297.0 565.1,297.0 566.3,297.1 567.5,297.2 568.7,297.2 569.8,297.4 571.0,297.5 572.2,297.6 573.3,297.8 574.5,298.0 575.7,298.2 576.8,298.4 578.0,298.6 579.1,298.8 580.3,299.1 581.4,299.4 582.6,299.6 583.7,299.9 584.8,300.2 586.0,300.6 587.1,300.9 588.2,301.3 589.3,301.6 590.4,302.0 591.5,302.4 592.6,302.8 593.7,303.2 594.8,303.7 595.9,304.1 597.0,304.6 598.0,305.1 599.1,305.6 600.1,306.2 601.2,306.8 602.2,307.4 603.2,308.0 604.1,308.8 604.8,310.1 605.7,310.8 606.7,311.5 607.7,312.1 608.7,312.7 609.7,313.3 610.7,313.9 611.7,314.5 612.7,315.0 613.7,315.6 614.8,316.1 615.8,316.7 616.8,317.2 617.8,317.7 618.9,318.3 619.9,318.8 620.9,319.3 622.0,319.9 623.0,320.4 624.0,320.9 625.1,321.4 626.1,321.9 627.2,322.4 628.2,323.0 629.3,323.5 630.3,324.0 631.4,324.5 632.4,325.0 633.5,325.5 634.6,326.0 635.6,326.5 636.7,327.0 637.8,327.5 638.9,328.0 640.0,328.5 641.1,328.9 642.2,329.4 643.3,329.9 644.4,330.4 645.5,330.8 646.7,331.2 647.9,331.6 649.2,331.8 650.8,331.7 652.0,332.1 653.1,332.5 654.3,333.0 655.4,333.6 656.5,334.1 657.6,334.7 658.7,335.2 659.8,335.8 660.8,336.4 661.9,337.1 662.9,337.7 663.9,338.4 665.0,339.0 666.0,339.7 667.0,340.4 668.0,341.1 668.9,341.8 669.9,342.6 670.9,343.3 671.8,344.1 672.8,344.9 673.7,345.6 674.6,346.4 675.6,347.2 676.5,348.0 677.3,348.9 678.2,349.7 679.1,350.6 680.0,351.4 680.9,352.3 681.7,353.1 682.6,354.0 683.4,354.9 684.2,355.8 685.0,356.7 685.8,357.7 686.5,358.6 687.2,359.6 687.9,360.6 688.6,361.7 689.1,362.8 689.4,364.1 689.5,365.7 689.9,366.8 690.5,367.9 691.1,369.0 691.7,370.0 692.3,371.1 692.9,372.1 693.5,373.2 694.2,374.2 694.8,375.2 695.4,376.2 696.1,377.2 696.7,378.2 697.4,379.3 698.0,380.3 698.7,381.3 699.3,382.3 700.0,383.2 700.6,384.2 701.3,385.2 702.0,386.2 702.7,387.2 703.4,388.2 704.1,389.1 704.8,390.1 705.5,391.1 706.2,392.0 707.0,393.0 707.7,393.9 708.5,394.8 709.2,395.8 710.0,396.7 710.8,397.6 711.7,398.5 712.5,399.5 713.4,400.3 714.3,401.2 715.2,402.1 716.1,403.0 717.2,403.8 718.3,404.6 719.5,405.3 721.8,405.5 723.5,406.0 724.8,406.8 726.0,407.6 727.1,408.5 728.1,409.4 729.1,410.3 730.1,411.2 731.0,412.2 732.0,413.1 732.9,414.1 733.7,415.1 734.6,416.1 735.4,417.1 736.2,418.2 737.0,419.2 737.8,420.3 738.5,421.4 739.2,422.5 739.9,423.6 740.6,424.7 741.2,425.8 741.9,426.9 742.4,428.1 743.0,429.3 743.5,430.4 744.0,431.6 744.5,432.8 744.9,434.0 745.3,435.3 745.7,436.5 746.0,437.8 746.2,439.0 746.5,440.3 746.7,441.6 746.8,442.9 746.9,444.2 746.9,445.5 746.9,446.8 746.7,448.2 746.5,449.6 746.1,451.0 745.4,452.5 742.7,454.5 741.5,456.0 740.9,457.5 740.4,458.8 740.0,460.2 739.7,461.5 739.4,462.8 739.2,464.1 739.0,465.4 738.8,466.7 738.7,467.9 738.5,469.2 738.4,470.4 738.4,471.7 738.3,472.9 738.3,474.1 738.3,475.3 738.3,476.6 738.4,477.8 738.4,479.0 738.5,480.2 738.7,481.3 738.8,482.5 739.0,483.7 739.2,484.9 739.5,486.1 739.8,487.3 740.1,488.4 740.4,489.6 740.8,490.8 741.3,491.9 741.7,493.1 742.3,494.3 742.8,495.4 743.5,496.6 744.2,497.8 744.9,499.0 745.7,500.2 746.7,501.3 747.7,502.5 748.9,503.7 750.3,504.9 752.3,506.1 757.1,507.3 759.3,508.5 760.9,509.8 762.2,511.1 763.4,512.4 764.5,513.8 765.4,515.1 766.3,516.4 767.2,517.8 767.9,519.2 768.6,520.5 769.3,521.9 769.9,523.3 770.5,524.6 771.0,526.0 771.4,527.4 771.8,528.8 772.1,530.2 772.4,531.6 772.6,533.0 772.8,534.4 772.9,535.8 773.0,537.1 773.0,538.5 772.9,539.9 772.8,541.3 772.6,542.6 772.3,544.0 772.0,545.3 771.7,546.7 771.2,548.0 770.7,549.3 770.1,550.6 769.4,551.9 768.6,553.1 767.8,554.4 766.8,555.6 765.8,556.8 764.6,557.9 763.2,559.0 761.6,560.1 759.6,561.0 756.8,561.8 750.5,561.8 747.8,562.6 745.8,563.4 744.0,564.3 742.5,565.2 741.1,566.2 739.8,567.1 738.5,568.1 737.4,569.0 736.3,570.0 735.3,571.0 734.3,572.0 733.4,573.0 732.6,574.0 731.8,575.1 731.1,576.1 730.4,577.1 729.8,578.2 729.2,579.3 728.7,580.3 728.3,581.5 727.8,582.6 727.5,583.7 727.2,584.9 727.0,586.0 726.8,587.2 726.7,588.5 726.6,589.7 726.7,591.0 726.7,592.3 726.9,593.6 727.1,595.0 727.4,596.4 727.7,597.9 728.2,599.4 728.7,600.9 729.3,602.5 730.1,604.1 731.0,605.9 732.0,607.7 733.3,609.7 735.1,611.8 738.1,614.6 744.5,619.0 746.7,621.5 748.3,623.7 749.5,625.8 750.5,627.8 751.3,629.8 751.9,631.7 752.5,633.5 753.0,635.3 753.3,637.1 753.6,638.9 753.8,640.6 753.9,642.3 753.9,643.9 753.8,645.5 753.7,647.1 753.5,648.7 753.2,650.2 752.9,651.7 752.4,653.1 751.9,654.5 751.3,655.8 750.7,657.2 749.9,658.4 749.1,659.6 748.2,660.8 747.3,661.9 746.2,663.0 745.1,664.0 743.9,665.0 742.7,665.9 741.3,666.7 739.9,667.5 738.3,668.2 736.7,668.8 735.0,669.4 733.2,669.8 731.2,670.2 729.1,670.4 726.8,670.4 724.2,670.2 721.2,669.7 716.4,667.8 709.3,664.0 706.0,663.1 703.4,662.7 701.0,662.4 698.9,662.3 696.9,662.3 695.0,662.4 693.3,662.6 691.6,662.8 690.1,663.1 688.6,663.4 687.2,663.8 685.8,664.2 684.5,664.7 683.3,665.2 682.2,665.8 681.1,666.5 680.1,667.2 679.1,667.9 678.2,668.7 677.4,669.5 676.6,670.4 675.8,671.4 675.2,672.4 674.5,673.5 674.0,674.6 673.5,675.8 673.0,677.1 672.6,678.4 672.3,679.8 672.0,681.3 671.8,682.8 671.6,684.4 671.5,686.1 671.4,687.9 671.5,689.8 671.6,691.8 671.8,694.0 672.1,696.3 672.6,698.8 673.3,701.6 674.4,705.0 678.6,712.1 681.4,717.6 682.4,721.0 682.9,723.9 683.1,726.5 683.2,728.9 683.2,731.2 683.0,733.3 682.7,735.4 682.3,737.3 681.8,739.1 681.3,740.9 680.7,742.6 680.0,744.2 679.2,745.7 678.4,747.1 677.5,748.5 676.6,749.8 675.5,751.0 674.5,752.1 673.4,753.2 672.2,754.1 670.9,755.0 669.7,755.8 668.3,756.6 666.9,757.2 665.5,757.8 664.0,758.3 662.5,758.7 660.9,759.0 659.3,759.2 657.6,759.3 655.9,759.4 654.1,759.3 652.3,759.2 650.4,758.9 648.5,758.5 646.6,757.9 644.5,757.2 642.4,756.3 640.1,755.2 637.7,753.7 634.9,751.4 629.7,744.3 626.5,740.8 624.0,738.8 621.8,737.4 619.8,736.3 618.0,735.4 616.2,734.6 614.5,734.0 612.8,733.5 611.3,733.1 609.7,732.8 608.3,732.5 606.8,732.4 605.4,732.3 604.1,732.4 602.8,732.5 601.5,732.6 600.3,732.9 599.0,733.2 597.9,733.6 596.7,734.0 595.6,734.6 594.5,735.2 593.4,735.9 592.3,736.6 591.3,737.4 590.3,738.3 589.3,739.3 588.3,740.3 587.3,741.4 586.4,742.6 585.5,743.9 584.6,745.2 583.6,746.6 582.8,748.2 581.9,749.8 581.0,751.5 580.2,753.3 579.4,755.3 578.6,757.5 577.9,759.9 577.2,762.6 576.7,766.2 577.4,774.7 576.9,778.8 576.1,781.6 575.2,784.0 574.2,786.1 573.1,788.0 571.9,789.7 570.7,791.3 569.5,792.7 568.2,794.0 566.9,795.2 565.6,796.3 564.2,797.3 562.9,798.2 561.5,799.0 560.0,799.8 558.6,800.4 557.1,801.0 555.7,801.5 554.2,801.9 552.7,802.2 551.2,802.4 549.6,802.6 548.1,802.7 546.5,802.7 545.0,802.6 543.4,802.5 541.9,802.3 540.3,802.0 538.7,801.6 537.2,801.2 535.6,800.6 534.0,800.0 532.5,799.3 530.9,798.6 529.4,797.7 527.8,796.7 526.2,795.6 524.7,794.4 523.2,793.0 521.6,791.4 520.1,789.4 518.6,786.6 517.0,779.8 515.6,777.0 514.2,775.2 512.8,773.7 511.4,772.4 510.1,771.3 508.7,770.3 507.4,769.5 506.1,768.7 504.7,768.0 503.4,767.4 502.1,766.9 500.8,766.5 499.5,766.1 498.1,765.8 496.8,765.5 495.5,765.3 494.2,765.2 492.9,765.1 491.5,765.1 490.2,765.1 488.8,765.2 487.5,765.3 486.1,765.4 484.8,765.7 483.4,765.9 482.0,766.2 480.6,766.6 479.2,767.0 477.8,767.4 476.4,767.9 474.9,768.4 473.5,769.0 472.0,769.6 470.5,770.3 469.0,771.0 467.5,771.8 465.9,772.6 464.3,773.6 462.7,774.6 461.1,775.9 459.3,777.4 457.4,779.6 454.9,784.6 453.0,786.4 451.3,787.6 449.5,788.5 447.8,789.3 446.2,789.9 444.5,790.3 442.9,790.7 441.2,791.0 439.6,791.2 438.0,791.4 436.4,791.5 434.9,791.5 433.3,791.4 431.8,791.3 430.2,791.2 428.7,790.9 427.2,790.7 425.7,790.3 424.2,789.9 422.7,789.5 421.3,789.0 419.9,788.5 418.4,787.9 417.0,787.3 415.7,786.7 414.3,786.0 412.9,785.2 411.6,784.4 410.3,783.6 409.0,782.7 407.7,781.8 406.5,780.9 405.2,779.9 404.0,778.9 402.8,777.8 401.7,776.6 400.5,775.5 399.5,774.2 398.4,772.9 397.4,771.4 396.6,769.7 396.0,767.3 396.1,763.6 395.3,761.8 394.4,760.4 393.4,759.1 392.4,758.0 391.3,756.9 390.2,755.9 389.1,754.9 388.0,754.0 386.8,753.1 385.7,752.3 384.5,751.5 383.3,750.7 382.1,750.0 380.8,749.3 379.6,748.6 378.3,747.9 377.1,747.3 375.8,746.6 374.5,746.0 373.2,745.4 371.9,744.9 370.6,744.3 369.2,743.8 367.9,743.3 366.5,742.7 365.1,742.3 363.7,741.8 362.3,741.3 360.9,740.8 359.5,740.4 358.0,739.9 356.6,739.5 355.1,739.1 353.6,738.7 352.1,738.3 350.6,737.9 349.1,737.6 347.5,737.3 345.9,737.0 344.3,736.8 342.5,736.7 340.3,737.1 337.8,737.9 336.0,737.8 334.4,737.4 332.9,736.9 331.3,736.4 329.9,735.8 328.4,735.2 327.0,734.5 325.7,733.8 324.3,733.0 323.0,732.2 321.7,731.4 320.4,730.6 319.1,729.7 317.9,728.8 316.6,727.9 315.4,727.0 314.2,726.0 313.1,725.0 311.9,724.0 310.8,723.0 309.7,722.0 308.6,720.9 307.5,719.8 306.4,718.8 305.4,717.6 304.3,716.5 303.3,715.4 302.3,714.2 301.3,713.0 300.4,711.9 299.4,710.7 298.5,709.4 297.6,708.2 296.7,707.0 295.8,705.7 295.0,704.4 294.1,703.1 293.3,701.8 292.6,700.5 291.8,699.1 291.2,697.6 291.3,695.6 290.9,694.0 290.2,692.6 289.5,691.3 288.7,690.0 287.9,688.7 287.1,687.5 286.2,686.2 285.4,685.0 284.5,683.8 283.6,682.6 282.7,681.4 281.8,680.2 280.9,679.0 280.0,677.8 279.1,676.7 278.2,675.4 277.3,674.2 276.4,673.0 275.6,671.8 274.7,670.6 273.8,669.4 272.9,668.2 272.0,667.0 271.1,665.9 270.1,664.7 269.2,663.5 268.3,662.3 267.4,661.1 266.4,659.9 265.5,658.7 264.6,657.5 263.6,656.3 262.7,655.1 261.7,653.9 260.7,652.8 259.8,651.6 258.8,650.4 257.8,649.2 256.7,648.1 255.7,646.9 254.6,645.8 253.4,644.7 251.5,643.9 250.2,642.9 249.0,641.7 248.0,640.5 247.0,639.3 246.0,638.0 245.1,636.8 244.2,635.5 243.3,634.2 242.4,632.9 241.6,631.6 240.7,630.3 239.9,628.9 239.1,627.6 238.4,626.2 237.6,624.9 236.9,623.5 236.1,622.1 235.4,620.7 234.8,619.3 234.1,617.9 233.4,616.5 232.8,615.0 232.2,613.6 231.6,612.1 231.0,610.7 230.5,609.2 230.0,607.8 229.4,606.3 228.9,604.8 228.5,603.3 228.0,601.8 227.6,600.3 227.2,598.8 226.8,597.3 226.4,595.8 226.1,594.3 225.7,592.8 225.5,591.2 225.2,589.7 225.0,588.1 224.9,586.5 224.9,584.9 225.7,583.1 225.8,581.5 225.7,580.0 225.6,578.4 225.4,576.9 225.2,575.3 225.0,573.8 224.8,572.3 224.5,570.8 224.3,569.2 224.1,567.7 223.8,566.2 223.6,564.7 223.3,563.2 223.0,561.7 222.8,560.2 222.5,558.6 222.2,557.1 221.9,555.6 221.6,554.1 221.3,552.6 221.0,551.1 220.7,549.6 220.4,548.1 220.1,546.6 219.8,545.0 219.5,543.5 219.2,542.0 218.9,540.5 218.5,539.0 218.2,537.5 217.9,535.9 217.5,534.4 217.2,532.9 216.8,531.4 216.4,529.8 216.1,528.3 215.7,526.8 215.2,525.2 214.8,523.7 214.3,522.1 213.8,520.6 213.1,519.0 211.7,517.5 211.0,515.9 210.5,514.4 210.1,512.8 209.8,511.2 209.4,509.6 209.1,508.0 208.9,506.4 208.6,504.8 208.4,503.3 208.2,501.7 208.1,500.1 207.9,498.5 207.8,496.9 207.7,495.2 207.6,493.6 207.5,492.0 207.5,490.4 207.5,488.8 207.5,487.2 207.5,485.6 207.6,484.0 207.6,482.4 207.7,480.8 207.8,479.2 207.9,477.6 208.1,476.0 208.2,474.4 208.4,472.8 208.6,471.2 208.9,469.7 209.1,468.1 209.4,466.5 209.7,464.9 210.0,463.3 210.4,461.8 210.7,460.2 211.1,458.7 211.6,457.1 212.1,455.6 212.6,454.1 213.2,452.6 214.1,451.1 215.6,449.8 216.3,448.3 216.9,446.8 217.4,445.3 218.0,443.8 218.5,442.3 219.0,440.8 219.4,439.3 219.9,437.8 220.3,436.3 220.8,434.8 221.2,433.3 221.7,431.7 222.1,430.2 222.5,428.7 223.0,427.2 223.4,425.7 223.8,424.1 224.2,422.6 224.6,421.1 225.0,419.6 225.4,418.0 225.8,416.5 226.2,415.0 226.6,413.4 227.0,411.9 227.4,410.3 227.8,408.8 228.1,407.2 228.5,405.7 228.9,404.1 229.2,402.6 229.6,401.0 230.0,399.4 230.3,397.9 230.6,396.3 231.0,394.7 231.3,393.1 231.6,391.5 231.9,389.9 232.1,388.2 232.3,386.5 232.2,384.7 231.6,382.7 231.8,381.0 232.1,379.3 232.4,377.7 232.8,376.1 233.2,374.5 233.7,372.9 234.2,371.3 234.7,369.7 235.2,368.2 235.7,366.6 236.3,365.0 236.9,363.5 237.5,362.0 238.1,360.4 238.8,358.9 239.4,357.4 240.1,355.9 240.8,354.4 241.5,353.0 242.3,351.5 243.1,350.0 243.8,348.6 244.6,347.1 245.4,345.7 246.3,344.3 247.1,342.9 248.0,341.5 248.9,340.1 249.8,338.7 250.7,337.4 251.7,336.0 252.6,334.7 253.6,333.4 254.6,332.1 255.7,330.8 256.7,329.5 257.8,328.3 258.9,327.0 260.0,325.8 261.2,324.7 262.5,323.6 264.4,322.9 265.9,322.1 267.2,321.0 268.4,319.9 269.6,318.8 270.7,317.6 271.9,316.4 273.0,315.3 274.1,314.1 275.2,312.9 276.3,311.7 277.4,310.5 278.5,309.3 279.6,308.1 280.6,306.9 281.7,305.7 282.8,304.4 283.9,303.2 284.9,302.0 286.0,300.8 287.0,299.5 288.1,298.3 289.1,297.1 290.2,295.8 291.2,294.6 292.3,293.3 293.3,292.1 294.4,290.9 295.5,289.6 296.6,288.4 297.6,287.2 298.7,286.0 299.8,284.7 300.8,283.4 301.9,282.2 302.9,280.9 303.9,279.6 305.0,278.3 306.0,277.0 306.9,275.6 307.9,274.2 308.8,272.7 309.6,271.1 309.8,268.7 310.4,266.9 311.3,265.3 312.2,263.8 313.2,262.4 314.2,260.9 315.2,259.5 316.3,258.2 317.3,256.8 318.4,255.5 319.6,254.2 320.7,252.9 321.8,251.6 323.0,250.3 324.2,249.1 325.4,247.8 326.6,246.6 327.9,245.4 329.1,244.3 330.4,243.1 331.7,242.0 333.0,240.9 334.3,239.8 335.7,238.7 337.0,237.7 338.4,236.7 339.8,235.7 341.2,234.7 342.6,233.8 344.1,232.9 345.6,232.1 347.1,231.2 348.6,230.5 350.1,229.7 351.7,229.0 353.2,228.3 354.8,227.7 356.5,227.1 358.1,226.6 359.8,226.2 361.6,225.9 363.4,225.8 365.4,225.9 368.2,227.7 370.2,228.1 372.1,228.1 373.9,228.0 375.7,227.9 377.4,227.7 379.1,227.4 380.8,227.2 382.5,226.9 384.1,226.6 385.8,226.3 387.4,225.9 389.0,225.6 390.7,225.2 392.3,224.8 393.9,224.4 395.4,223.9 397.0,223.5 398.6,223.0 400.1,222.5 401.7,222.0 403.2,221.5 404.7,221.0 406.3,220.4 407.8,219.8 409.3,219.1 410.8,218.5 412.2,217.8 413.7,217.1 415.2,216.3 416.6,215.5 418.1,214.7 419.5,213.8 421.0,212.9 422.4,211.9 423.8,210.9 425.2,209.8 426.6,208.6 427.9,207.4 429.3,206.0 430.6,204.4 431.8,202.7 433.0,200.3 433.4,195.2 434.6,192.8 435.9,190.9 437.3,189.2 438.7,187.7 440.2,186.3 441.7,184.9 443.2,183.6 444.8,182.4 446.3,181.3 447.9,180.2 449.5,179.1 451.2,178.1 452.8,177.2 454.5,176.3 456.1,175.5 457.8,174.7 459.5,173.9 461.2,173.3 462.9,172.7 464.7,172.1 466.4,171.6 468.2,171.2 469.9,170.8 471.7,170.5 473.5,170.2 475.3,170.0 477.1,169.9 478.9,169.9 480.7,169.9 482.5,170.0 484.3,170.2 486.2,170.4 488.0,170.8 489.8,171.3 491.6,171.8 493.5,172.5 495.3,173.3 497.1,174.2 498.9,175.4 500.7,176.8 502.5,178.6 504.4,181.5 506.2,188.0 507.9,190.5 509.6,192.4 511.3,194.0 513.0,195.3 514.6,196.6 516.3,197.8 517.9,198.8 519.5,199.8 521.1,200.7 522.7,201.6 524.3,202.4 525.9,203.1 527.5,203.8 529.1,204.4 530.6,205.0 532.2,205.5 533.8,206.0 535.4,206.4 537.0,206.7 538.6,207.0 540.2,207.2 541.7,207.3 543.3,207.4 545.0,207.4 546.6,207.4 548.2,207.3 549.9,207.1 551.5,206.8 553.2,206.5 554.9,206.1 556.6,205.6 558.3,205.0 560.1,204.3 561.8,203.6 563.6,202.7 565.5,201.7 567.4,200.5 569.3,199.2 571.3,197.6 573.3,195.8 575.6,193.3 578.1,189.1 581.5,181.4 584.0,178.5 586.3,176.4 588.5,174.7 590.7,173.2 592.9,171.9 595.1,170.8 597.2,169.8 599.3,168.9 601.4,168.1 603.5,167.4 605.6,166.9 607.7,166.4 609.8,166.0 611.8,165.8 613.8,165.6 615.8,165.5 617.8,165.5 619.8,165.6 621.7,165.8 623.6,166.1 625.5,166.5 627.3,166.9 629.1,167.5 630.9,168.2 632.7,168.9 634.4,169.8 636.1,170.8 637.7,171.8 639.3,173.0 640.8,174.3 642.3,175.6 643.8,177.1 645.2,178.8 646.5,180.5 647.7,182.4 648.9,184.4 650.0,186.6 651.0,189.0 651.8,191.7 652.4,194.8 652.7,198.6 651.6,205.5 649.7,213.6 649.8,217.5 650.2,220.7 650.8,223.4 651.4,226.0 652.1,228.3 652.9,230.5 653.7,232.5 654.5,234.4 655.4,236.3 656.4,238.0 657.3,239.6 658.4,241.1 659.4,242.6 660.5,243.9 661.6,245.2 662.8,246.4 664.0,247.5 665.3,248.5 666.6,249.4 667.9,250.3 669.3,251.1 670.7,251.8 672.2,252.4 673.8,253.0 675.4,253.4 677.0,253.8 678.7,254.1 680.5,254.4 682.3,254.5 684.2,254.6 686.2,254.6 688.2,254.5 690.4,254.3 692.6,254.0 694.9,253.6 697.3,253.0 699.9,252.3 702.6,251.5 705.5,250.4 708.7,248.9 712.5,246.7 720.2,239.6 725.3,235.8 729.1,234.0 732.3,232.9 735.4,232.0 738.3,231.4 741.0,231.1 743.6,230.9 746.2,230.8 748.6,230.9 751.0,231.1 753.3,231.4 755.5,231.8 757.6,232.3 759.7,232.9 761.7,233.6 763.6,234.4 765.4,235.3 767.2,236.3 768.9,237.4 770.5,238.5 772.0,239.8 773.5,241.1 774.9,242.5 776.2,244.0 777.4,245.5 778.5,247.2 779.6,248.9 780.6,250.7 781.4,252.6 782.2,254.6 782.9,256.6 783.5,258.7 784.0,260.9 784.4,263.2 784.7,265.5 784.8,268.0 784.8,270.6 784.6,273.3 784.2,276.1 783.6,279.2 782.5,282.5 780.6,286.5 773.6,294.7 770.9,299.3 769.5,302.7 768.5,305.7 767.9,308.4 767.4,310.9 767.1,313.3 767.0,315.6 766.9,317.7 767.0,319.8 767.1,321.8 767.4,323.6 767.7,325.5 768.1,327.2 768.6,328.9 769.1,330.5 769.8,332.1 770.5,333.6 771.3,335.1 772.1,336.5 773.1,337.8 774.1,339.1 775.1,340.4 776.3,341.6 777.5,342.8 778.8,343.9 780.2,345.0 781.7,346.0 783.2,347.0 784.8,348.0 786.5,348.9 788.3,349.8 790.2,350.7 792.1,351.5 794.2,352.3 796.4,353.0 798.6,353.7 801.0,354.4 803.6,354.9 806.4,355.4 809.4,355.8 812.9,356.0 817.3,355.7 826.9,352.9 831.5,352.7 835.0,353.0 837.9,353.7 840.6,354.5 843.1,355.5 845.3,356.5 847.5,357.7 849.4,358.9 851.3,360.2 853.0,361.5 854.7,363.0 856.2,364.4 857.6,366.0 859.0,367.5 860.2,369.1 861.4,370.8 862.4,372.5 863.4,374.3 864.2,376.0 865.0,377.9 865.7,379.7 866.3,381.6 866.9,383.5 867.3,385.4 867.7,387.4 867.9,389.4 868.1,391.4 868.2,393.5 868.2,395.5 868.2,397.6 868.0,399.7 867.8,401.8 867.4,404.0 867.0,406.1 866.4,408.3 865.8,410.5 865.0,412.8 864.0,415.0 862.9,417.3 861.5,419.6 859.7,422.1 856.8,424.7 849.7,428.4 847.2,430.9 845.6,433.1 844.4,435.2 843.4,437.3 842.6,439.3 841.9,441.3 841.4,443.2 840.9,445.1 840.6,446.9 840.3,448.8 840.2,450.6 840.1,452.4 840.0,454.1 840.1,455.9 840.2,457.7 840.3,459.4 840.6,461.1 840.9,462.8 841.2,464.5 841.6,466.2 842.1,467.9 842.6,469.6 843.1,471.3 843.8,473.0 844.4,474.7 845.1,476.4 845.9,478.1 846.7,479.8 847.6,481.5 848.5,483.1 849.4,484.8 850.4,486.5 851.5,488.3 852.6,490.0 853.8,491.7 855.0,493.4 856.4,495.2 857.8,496.9 859.3,498.7 861.1,500.4 863.1,502.2 866.2,504.0 872.0,505.7 874.2,507.6 875.9,509.5 877.2,511.4 878.4,513.3 879.4,515.2 880.3,517.1 881.0,519.1 881.7,521.0 882.3,523.0 882.8,525.0 883.2,526.9 883.5,528.9 883.8,530.8 884.0,532.8 884.2,534.8 884.2,536.7 884.3,538.7 884.2,540.6 884.1,542.6 884.0,544.6 883.7,546.5 883.5,548.4 883.2,550.4 882.8,552.3 882.4,554.2 881.9,556.1 881.4,558.0 880.8,559.9 880.2,561.8 879.6,563.7 878.8,565.5 878.1,567.4 877.3,569.2 876.4,571.0 875.5,572.9 874.6,574.6 873.5,576.4 872.4,578.2 871.2,579.9 869.9,581.6 868.3,583.2 865.7,584.6 862.0,585.8 860.4,587.3 859.1,589.0 858.0,590.6 857.0,592.3 856.1,594.0 855.3,595.7 854.5,597.4 853.8,599.1 853.1,600.9 852.4,602.6 851.8,604.4 851.2,606.1 850.7,607.9 850.2,609.6 849.7,611.4 849.2,613.2 848.7,615.0 848.3,616.8 847.9,618.6 847.5,620.4 847.1,622.2 846.7,624.0 846.4,625.9 846.1,627.7 845.7,629.6 845.4,631.4 845.1,633.3 844.9,635.2 844.6,637.1 844.3,638.9 844.1,640.8 843.8,642.8 843.6,644.7 843.4,646.6 843.2,648.5 843.0,650.5 842.8,652.5 842.7,654.5 842.6,656.5 842.6,658.5 842.7,660.7 843.9,663.3 844.5,665.7 844.5,667.8 844.3,669.8 843.9,671.8 843.5,673.8 843.1,675.7 842.6,677.6 842.0,679.5 841.4,681.3 840.7,683.2 840.0,685.0 839.3,686.8 838.6,688.6 837.8,690.4 837.0,692.2 836.1,694.0 835.3,695.7 834.4,697.4 833.5,699.2 832.5,700.9 831.6,702.6 830.6,704.2 829.6,705.9 828.5,707.6 827.5,709.2 826.4,710.8 825.3,712.4 824.2,714.0 823.1,715.6 821.9,717.2 820.7,718.8 819.6,720.3 818.4,721.9 817.2,723.4 816.0,725.0 814.8,726.5 813.6,728.0 812.3,729.4 810.9,730.9 809.6,732.3 808.1,733.6 806.6,734.9 804.2,735.5 802.5,736.6 801.0,737.9 799.6,739.2 798.2,740.5 796.8,741.9 795.5,743.3 794.1,744.7 792.8,746.1 791.5,747.5 790.2,748.9 788.9,750.3 787.6,751.7 786.3,753.1 785.0,754.5 783.8,755.9 782.5,757.4 781.2,758.8 779.9,760.2 778.7,761.7 777.4,763.1 776.2,764.5 774.9,766.0 773.6,767.4 772.4,768.9 771.1,770.4 769.9,771.8 768.7,773.3 767.4,774.8 766.2,776.2 764.9,777.7 763.7,779.2 762.5,780.7 761.2,782.2 760.0,783.7 758.8,785.3 757.6,786.8 756.4,788.4 755.2,789.9 754.0,791.5 752.9,793.1 751.7,794.8 750.7,796.6 750.3,799.2 749.3,801.1 748.2,802.8 747.0,804.4 745.7,806.0 744.4,807.5 743.1,809.0 741.7,810.5 740.4,811.9 739.0,813.4 737.6,814.8 736.1,816.2 734.7,817.5 733.2,818.9 731.7,820.2 730.2,821.5 728.7,822.8 727.1,824.0 725.6,825.3 724.0,826.5 722.4,827.7 720.8,828.9 719.2,830.1 717.6,831.2 715.9,832.3 714.3,833.4 712.6,834.5 710.9,835.6 709.2,836.6 707.5,837.6 705.8,838.6 704.1,839.6 702.3,840.5 700.5,841.4 698.8,842.3 697.0,843.2 695.2,844.0 693.3,844.8 691.5,845.6 689.6,846.3 687.7,847.0 685.8,847.5 683.8,847.9 681.3,847.4 679.3,847.8 677.4,848.3 675.5,848.9 673.6,849.5 671.7,850.2 669.9,850.8 668.0,851.5 666.2,852.2 664.4,852.9 662.6,853.6 660.7,854.4 658.9,855.1 657.1,855.8 655.3,856.6 653.5,857.3 651.7,858.0 649.9,858.8 648.1,859.6 646.3,860.3 644.5,861.1 642.7,861.9 640.9,862.6 639.1,863.4 637.3,864.2 635.5,865.0 633.7,865.8 631.9,866.6 630.1,867.4 628.3,868.2 626.5,869.0 624.7,869.9 622.9,870.7 621.1,871.5 619.3,872.4 617.5,873.3 615.7,874.1 613.9,875.0 612.1,876.0 610.3,876.9 608.5,877.9 606.8,879.0 605.1,880.3 603.5,882.5 601.8,883.7 599.9,884.7 598.1,885.6 596.2,886.5 594.4,887.3 592.5,888.1 590.6,888.8 588.7,889.5 586.7,890.2 584.8,890.9 582.9,891.5 580.9,892.1 579.0,892.7 577.0,893.2 575.0,893.8 573.1,894.3 571.1,894.7 569.1,895.2 567.1,895.6 565.1,896.0 563.1,896.4 561.1,896.7 559.1,897.0 557.1,897.3 555.1,897.6 553.1,897.8 551.1,898.1 549.0,898.3 547.0,898.4 545.0,898.6 542.9,898.7 540.9,898.7 538.9,898.8 536.9,898.8 534.8,898.8 532.8,898.7 530.7,898.7 528.7,898.5 526.7,898.3 524.6,898.1 522.6,897.7 520.6,896.9 518.5,895.5 516.5,895.0 514.5,894.7 512.5,894.4 510.5,894.2 508.5,894.0 506.5,893.8 504.5,893.6 502.5,893.4 500.5,893.2 498.5,893.1 496.5,892.9 494.5,892.8 492.5,892.7 490.6,892.6 488.6,892.4 486.6,892.3 484.6,892.2 482.6,892.1 480.6,892.0 478.6,891.9 476.6,891.8 474.6,891.7 472.6,891.7 470.6,891.6 468.6,891.5 466.6,891.5 464.6,891.4 462.5,891.4 460.5,891.3 458.5,891.3 456.5,891.2 454.5,891.2 452.4,891.2 450.4,891.2 448.4,891.2 446.3,891.2 444.3,891.2 442.2,891.3 440.1,891.4 438.0,891.5 435.9,891.8 433.7,892.6 431.4,893.6 429.3,893.8 427.1,893.9 425.0,893.9 422.9,893.9 420.8,893.8 418.8,893.6 416.7,893.5 414.6,893.3 412.5,893.0 410.5,892.8 408.4,892.5 406.4,892.2 404.3,891.8 402.3,891.4 400.2,891.1 398.2,890.6 396.2,890.2 394.1,889.7 392.1,889.2 390.1,888.7 388.1,888.1 386.1,887.5 384.1,886.9 382.2,886.3 380.2,885.6 378.2,885.0 376.3,884.3 374.3,883.5 372.4,882.8 370.5,882.0 368.6,881.2 366.7,880.3 364.8,879.5 362.9,878.6 361.1,877.7 359.2,876.7 357.4,875.7 355.6,874.7 353.8,873.6 352.1,872.4 350.4,871.1 349.1,868.9 347.6,867.3 345.9,866.0 344.2,864.8 342.5,863.7 340.8,862.6 339.0,861.5 337.3,860.4 335.5,859.4 333.8,858.3 332.0,857.3 330.2,856.3 328.5,855.3 326.7,854.3 324.9,853.3 323.1,852.3 321.4,851.3 319.6,850.3 317.8,849.3 316.0,848.3 314.2,847.3 312.4,846.4 310.6,845.4 308.8,844.4 307.0,843.4 305.3,842.4 303.5,841.4 301.7,840.4 299.9,839.4 298.1,838.4 296.3,837.4 294.5,836.5 292.7,835.5 290.8,834.6 289.0,833.6 287.1,832.7 285.3,831.8 283.4,830.9 281.5,830.1 279.5,829.2 277.5,828.5 275.5,827.7 273.3,827.2 270.3,827.7 268.0,827.4 265.8,826.7 263.7,826.0 261.7,825.1 259.7,824.3 257.7,823.4 255.8,822.4 253.9,821.4 252.0,820.4 250.1,819.4 248.2,818.3 246.3,817.2 244.5,816.1 242.7,815.0 240.8,813.8 239.1,812.6 237.3,811.4 235.5,810.2 233.8,808.9 232.1,807.6 230.4,806.3 228.8,804.9 227.1,803.5 225.5,802.1 223.9,800.7 222.4,799.2 220.9,797.7 219.4,796.2 217.9,794.7 216.5,793.1 215.1,791.5 213.7,789.8 212.4,788.1 211.1,786.4 209.8,784.7 208.6,782.9 207.5,781.0 206.4,779.1 205.5,777.2 204.6,775.1 203.9,773.0 203.5,770.5 204.7,766.8 204.4,764.3 203.9,762.0 203.2,759.9 202.5,757.9 201.7,755.8 200.9,753.9 200.0,751.9 199.2,750.0 198.3,748.1 197.4,746.2 196.5,744.3 195.5,742.4 194.6,740.6 193.6,738.7 192.7,736.9 191.7,735.1 190.7,733.3 189.6,731.6 188.6,729.8 187.5,728.1 186.4,726.4 185.3,724.6 184.2,723.0 183.0,721.3 181.8,719.6 180.6,718.0 179.3,716.3 178.1,714.7 176.7,713.1 175.4,711.5 174.0,710.0 172.6,708.4 171.1,706.9 169.6,705.4 168.0,703.9 166.4,702.5 164.6,701.1 162.8,699.7 160.9,698.4 158.8,697.1 156.5,696.0 153.4,695.1 147.9,695.6 145.0,694.6 142.6,693.4 140.4,692.1 138.4,690.7 136.4,689.2 134.5,687.7 132.7,686.1 131.0,684.5 129.3,682.9 127.7,681.2 126.1,679.5 124.6,677.7 123.1,675.9 121.7,674.1 120.3,672.3 119.0,670.4 117.8,668.5 116.6,666.6 115.4,664.7 114.3,662.7 113.3,660.7 112.4,658.7 111.5,656.6 110.6,654.6 109.9,652.5 109.2,650.4 108.6,648.2 108.0,646.0 107.5,643.9 107.1,641.6 106.8,639.4 106.6,637.1 106.5,634.9 106.4,632.6 106.5,630.2 106.7,627.9 107.0,625.5 107.5,623.1 108.2,620.6 109.2,618.1 110.6,615.5 113.3,612.5 119.3,608.9 121.3,606.2 122.6,603.7 123.8,601.3 124.7,599.0 125.5,596.6 126.2,594.4 126.9,592.1 127.4,589.9 127.9,587.7 128.3,585.6 128.7,583.4 129.0,581.3 129.3,579.2 129.5,577.1 129.6,575.0 129.7,572.9 129.7,570.9 129.7,568.8 129.6,566.8 129.5,564.8 129.3,562.7 129.0,560.7 128.7,558.7 128.3,556.7 127.8,554.8 127.3,552.8 126.7,550.8 126.0,548.8 125.2,546.9 124.4,544.9 123.4,542.9 122.4,541.0 121.3,539.0 120.1,537.0 118.7,535.0 117.3,533.0 115.6,531.0 113.8,529.0 111.7,527.0 109.3,525.0 106.2,523.0 100.8,521.0 92.6,519.0 89.3,516.8 86.6,514.6 84.4,512.4 82.4,510.1 80.6,507.9 78.9,505.6 77.4,503.3 76.1,501.0 74.8,498.6 73.7,496.3 72.6,494.0 71.7,491.6 70.8,489.3 70.1,486.9 69.5,484.5 68.9,482.2 68.5,479.8 68.2,477.5 68.0,475.1 67.8,472.7 67.8,470.4 67.9,468.1 68.1,465.7 68.4,463.4 68.8,461.1 69.3,458.8 70.0,456.5 70.7,454.3 71.6,452.0 72.6,449.8 73.7,447.6 74.9,445.5 76.3,443.4 77.9,441.3 79.6,439.2 81.5,437.2 83.5,435.3 85.9,433.4 88.6,431.6 91.7,429.9 95.7,428.4 105.6,428.2 112.2,427.4 116.1,426.0 119.4,424.6 122.2,423.0 124.7,421.5 127.1,419.9 129.2,418.3 131.2,416.7 133.1,415.1 134.9,413.4 136.6,411.7 138.1,410.0 139.6,408.3 141.0,406.6 142.2,404.9 143.4,403.1 144.5,401.4 145.5,399.6 146.4,397.7 147.2,395.9 147.9,394.0 148.5,392.1 149.0,390.2 149.4,388.2 149.8,386.2 150.0,384.1 150.2,382.0 150.2,379.9 150.1,377.7 150.0,375.5 149.7,373.3 149.3,370.9 148.9,368.5 148.2,366.1 147.5,363.6 146.6,361.0 145.6,358.3 144.3,355.5 142.8,352.6 141.0,349.5 138.7,346.1 135.3,342.3 125.3,335.3 120.6,330.7 117.9,326.9 115.9,323.4 114.3,320.1 113.1,316.9 112.1,313.9 111.3,310.8 110.7,307.9 110.2,305.0 109.9,302.2 109.7,299.4 109.7,296.7 109.8,294.0 110.0,291.4 110.3,288.8 110.8,286.3 111.4,283.9 112.1,281.5 112.9,279.2 113.8,276.9 114.8,274.7 116.0,272.6 117.3,270.5 118.7,268.5 120.1,266.6 121.7,264.7 123.5,263.0 125.3,261.3 127.2,259.7 129.3,258.1 131.5,256.7 133.8,255.4 136.2,254.1 138.8,253.0 141.4,252.0 144.3,251.1 147.3,250.3 150.5,249.7 154.0,249.4 157.8,249.3 162.1,249.6 167.4,250.8 179.1,256.9 184.9,258.6 189.3,259.3 193.1,259.6 196.5,259.6 199.7,259.4 202.6,259.1 205.4,258.7 208.1,258.2 210.6,257.6 213.0,256.9 215.2,256.2 217.4,255.4 219.5,254.4 221.4,253.5 223.3,252.4 225.1,251.3 226.8,250.1 228.4,248.8 229.9,247.5 231.4,246.1 232.8,244.6 234.0,243.0 235.3,241.3 236.4,239.6 237.4,237.8 238.4,235.9 239.3,233.9 240.2,231.9 240.9,229.7 241.6,227.4 242.2,225.1 242.8,222.6 243.2,220.1 243.6,217.4 243.9,214.6 244.1,211.7 244.1,208.6 244.1,205.3 243.8,201.7 243.3,197.8 242.4,193.4 240.5,187.7 233.9,176.3 232.3,170.7 231.7,166.3 231.5,162.3 231.6,158.7 232.0,155.3 232.5,152.2 233.2,149.1 234.0,146.3 235.0,143.5 236.1,140.9 237.2,138.4 238.5,136.0 239.9,133.8 241.3,131.6 242.9,129.6 244.5,127.6 246.2,125.8 248.0,124.0 249.9,122.4 251.8,120.9 253.8,119.5 255.9,118.2 258.1,117.0 260.3,115.9 262.6,114.9 264.9,114.0 267.3,113.3 269.8,112.6 272.4,112.1 275.0,111.7 277.6,111.4 280.3,111.3 283.1,111.2 285.9,111.3 288.8,111.6 291.8,112.0 294.9,112.6 298.0,113.5 301.3,114.6 304.7,116.1 308.5,118.3 313.1,122.1 320.3,131.5 324.3,134.4 327.7,136.3 330.8,137.7 333.7,138.8 336.5,139.6 339.2,140.3 341.8,140.8 344.3,141.2 346.8,141.4 349.1,141.5 351.4,141.5 353.7,141.5 355.9,141.3 358.1,141.0 360.2,140.6 362.3,140.1 364.3,139.6 366.3,138.9 368.3,138.2 370.2,137.4 372.1,136.4 374.0,135.4 375.8,134.4 377.6,133.2 379.4,131.9 381.2,130.6 382.9,129.1 384.7,127.6 386.4,126.0 388.0,124.3 389.7,122.5 391.4,120.6 393.0,118.6 394.6,116.5 396.2,114.3 397.8,112.0 399.4,109.5 400.9,106.8 402.4,103.8 403.8,100.5 405.1,96.6 405.9,90.6 405.8,80.7 407.2,76.5 408.9,73.2 410.6,70.4 412.5,67.9 414.4,65.6 416.4,63.5 418.5,61.6 420.6,59.9 422.8,58.3 424.9,56.8 427.2,55.4 429.4,54.2 431.7,53.1 434.0,52.1 436.3,51.2 438.7,50.4 441.0,49.7 443.4,49.1 445.8,48.7 448.3,48.3 450.7,48.0 453.1,47.8 455.6,47.7 458.1,47.7 460.5,47.8 463.0,48.0 465.5,48.3 468.0,48.7 470.5,49.2 473.0,49.7 475.5,50.4 477.9,51.2 480.4,52.0 482.9,53.0 485.4,54.1 487.9,55.3 490.3,56.7 492.8,58.2 495.2,60.0 497.7,62.1 500.1,64.9 502.6,71.3 505.0,76.8 507.3,79.4 509.6,81.4 511.8,83.0 514.1,84.4 516.3,85.7 518.5,86.8 520.7,87.7 522.9,88.6 525.1,89.4 527.3,90.1 529.5,90.7 531.7,91.2 533.9,91.6 536.0,92.0 538.2,92.3 540.4,92.6 542.6,92.7 544.8,92.9 547.0,92.9 549.2,92.9 551.4,92.9 553.7,92.8 555.9,92.6 558.1,92.4 560.4,92.2 562.7,91.9 564.9,91.5 567.2,91.1 569.5,90.7 571.9,90.2 574.2,89.6 576.5,89.1 578.9,88.4 581.3,87.7 583.7,86.9 586.2,86.1 588.6,85.2 591.1,84.1 593.7,83.0 596.3,81.5 599.0,79.6 602.5,74.2 605.5,71.4 608.2,69.9 610.9,68.8 613.5,68.0 616.1,67.4 618.7,67.0 621.2,66.6 623.8,66.4 626.3,66.3 628.8,66.3 631.2,66.3 633.7,66.4 636.2,66.7 638.6,67.0 641.0,67.3 643.4,67.8 645.8,68.2 648.2,68.8 650.5,69.4 652.9,70.1 655.2,70.9 657.5,71.7 659.7,72.5 662.0,73.4 664.2,74.4 666.4,75.4 668.6,76.5 670.8,77.6 672.9,78.8 675.1,80.0 677.2,81.3 679.2,82.7 681.3,84.0 683.3,85.5 685.3,87.0 687.3,88.5 689.2,90.1 691.1,91.8 692.9,93.6 694.7,95.5 696.4,97.6 697.9,100.0 698.2,104.9 699.6,107.6 701.2,109.7 702.9,111.5 704.6,113.2 706.4,114.8 708.3,116.3 710.1,117.8 712.0,119.2 713.9,120.5 715.8,121.8 717.8,123.1 719.7,124.3 721.7,125.5 723.7,126.7 725.7,127.8 727.7,129.0 729.7,130.0 731.7,131.1 733.8,132.2 735.9,133.2 737.9,134.2 740.0,135.2 742.1,136.2 744.2,137.2 746.4,138.2 748.5,139.1 750.6,140.1 752.8,141.0 755.0,141.9 757.2,142.8 759.4,143.7 761.6,144.6 763.8,145.4 766.0,146.3 768.3,147.1 770.6,148.0 772.8,148.8 775.2,149.6 777.5,150.3 779.9,151.0 782.4,151.6 785.1,152.0 788.8,151.0 791.5,151.5 793.9,152.2 796.3,153.1 798.6,154.1 800.8,155.2 803.0,156.3 805.1,157.5 807.2,158.8 809.3,160.0 811.3,161.4 813.3,162.7 815.3,164.1 817.3,165.5 819.2,167.0 821.1,168.5 823.0,170.0 824.9,171.6 826.7,173.2 828.5,174.8 830.3,176.4 832.1,178.0 833.9,179.7 835.6,181.4 837.3,183.1 839.0,184.9 840.6,186.7 842.3,188.5 843.9,190.3 845.5,192.1 847.0,193.9 848.6,195.8 850.1,197.7 851.6,199.6 853.1,201.5 854.5,203.4 856.0,205.4 857.4,207.3 858.8,209.3 860.1,211.4 861.4,213.5 862.6,215.6 863.5,218.0 863.6,221.0 864.6,223.3 865.7,225.4 866.9,227.5 868.2,229.6 869.4,231.6 870.7,233.6 872.0,235.6 873.3,237.6 874.6,239.6 876.0,241.6 877.3,243.6 878.6,245.5 880.0,247.5 881.3,249.5 882.7,251.4 884.0,253.3 885.4,255.3 886.7,257.2 888.1,259.2 889.5,261.1 890.9,263.0 892.3,265.0 893.7,266.9 895.1,268.8 896.5,270.7 897.9,272.7 899.3,274.6 900.7,276.5 902.1,278.4 903.6,280.3 905.0,282.3 906.5,284.2 908.0,286.1 909.4,288.0 910.9,289.9 912.4,291.8 914.0,293.7 915.5,295.6 917.1,297.4 918.8,299.3 920.5,301.1 922.6,302.7 925.5,304.0 927.3,305.8 929.0,307.7 930.5,309.6 932.0,311.6 933.5,313.6 934.9,315.6 936.3,317.7 937.6,319.8 938.9,321.9 940.2,324.0 941.5,326.1 942.7,328.2 943.9,330.4 945.0,332.6 946.1,334.8 947.2,337.0 948.3,339.2 949.4,341.4 950.4,343.7 951.4,345.9 952.3,348.2 953.2,350.5 954.1,352.8 955.0,355.1 955.8,357.4 956.7,359.7 957.4,362.1 958.2,364.4 958.9,366.8 959.6,369.1 960.2,371.5 960.9,373.9 961.4,376.3 962.0,378.7 962.5,381.1 963.0,383.5 963.4,385.9 963.8,388.4 964.1,390.8 964.3,393.3 964.3,395.8 963.8,398.5 962.8,401.2 962.8,403.7 962.9,406.2 963.1,408.6 963.4,411.1 963.6,413.5 963.9,415.9 964.2,418.3 964.5,420.7 964.9,423.1 965.2,425.5 965.6,427.9 965.9,430.3 966.3,432.7 966.6,435.1 967.0,437.5 967.4,439.8 967.8,442.2 968.2,444.6 968.6,447.0 969.0,449.4 969.4,451.8 969.8,454.1 970.3,456.5 970.7,458.9 971.1,461.3 971.6,463.7 972.0,466.1 972.5,468.5 973.0,470.8 973.4,473.2 973.9,475.6 974.4,478.0 974.9,480.4 975.4,482.8 976.0,485.2 976.5,487.6 977.1,490.1 977.7,492.5 978.3,494.9 979.1,497.3 979.9,499.7 981.9,502.2 983.2,504.6 984.0,507.1 984.7,509.5 985.2,512.0" fill="none" stroke="#FBB83D" stroke-width="18" stroke-linecap="round" stroke-linejoin="round"/>
  </g>
  <g id="center-dot">
    <circle cx="512" cy="512" r="22" fill="#FBB83D"/>
  </g>
</svg>
