<svg xmlns="http://www.w3.org/2000/svg" viewBox="0 0 1024 1024">
  <g id="background">
    <rect x="0" y="0" width="1024" height="1024" rx="180" ry="180" fill="#1F5F66"/>
  </g>
  <g id="frame">
    <rect x="20" y="20" width="984" height="984" rx="162" ry="162" fill="none" stroke="#D2E7E8" stroke-width="14" stroke-opacity="0.32"/>
  </g>
  <g id="spiral">
    <polyline points="592.3,512.0 592.5,513.4 592.7,514.8 592.9,516.2 593.0,517.6 593.2,519.0 593.2,520.4 593.3,521.8 593.3,523.2 593.3,524.6 593.2,526.1 593.1,527.5 593.0,528.9 592.9,530.3 592.7,531.7 592.5,533.2 592.2,534.6 591.9,536.0 591.6,537.4 591.3,538.8 590.9,540.2 590.5,541.5 590.1,542.9 589.6,544.3 589.1,545.7 588.6,547.0 588.1,548.3 587.5,549.7 586.9,551.0 586.3,552.3 585.7,553.6 585.0,554.9 584.4,556.2 583.7,557.5 583.0,558.8 582.3,560.1 581.5,561.3 580.8,562.6 580.0,563.8 579.2,565.1 578.4,566.3 577.6,567.5 576.7,568.8 575.9,570.0 575.0,571.2 574.1,572.4 573.2,573.6 572.3,574.8 571.3,575.9 570.3,577.1 569.4,578.3 568.4,579.4 567.4,580.5 566.3,581.7 565.3,582.8 564.2,583.9 563.1,585.0 562.0,586.0 560.8,587.1 559.7,588.1 558.5,589.1 557.3,590.1 556.0,591.1 554.8,592.1 553.5,593.0 552.2,593.9 550.9,594.8 549.6,595.6 548.2,596.4 546.8,597.2 545.4,598.0 544.0,598.7 542.6,599.4 541.1,600.1 539.6,600.7 538.2,601.3 536.7,601.9 535.2,602.4 533.6,602.9 532.1,603.4 530.5,603.8 529.0,604.2 527.4,604.6 525.8,604.9 524.3,605.2 522.7,605.5 521.1,605.8 519.5,606.0 517.9,606.2 516.2,606.4 514.6,606.5 513.0,606.6 511.4,606.7 509.8,606.8 508.1,606.8 506.5,606.8 504.9,606.8 503.2,606.7 501.6,606.6 500.0,606.5 498.4,606.4 496.7,606.3 495.1,606.1 493.4,605.9 491.8,605.7 490.2,605.5 488.5,605.3 486.9,605.0 485.3,604.8 483.6,604.5 482.0,604.2 480.3,603.9 478.6,603.6 477.0,603.2 475.3,602.9 473.7,602.5 472.0,602.1 470.3,601.7 468.6,601.3 466.9,600.8 465.3,600.4 463.6,599.9 461.9,599.4 460.2,598.8 458.5,598.2 456.9,597.6 455.2,596.9 453.6,596.3 451.9,595.5 450.3,594.7 448.7,593.9 447.1,593.1 445.6,592.2 444.0,591.2 442.5,590.2 441.0,589.1 439.6,588.0 438.2,586.9 436.9,585.7 435.6,584.4 434.3,583.2 433.1,581.8 431.9,580.4 430.8,579.0 429.7,577.6 428.7,576.1 427.8,574.5 426.8,573.0 426.0,571.4 425.2,569.8 424.4,568.2 423.6,566.5 422.9,564.9 422.3,563.2 421.6,561.5 421.0,559.9 420.5,558.2 419.9,556.5 419.3,554.8 418.8,553.2 418.2,551.5 417.7,549.8 417.1,548.2 416.5,546.6 415.9,544.9 415.3,543.3 414.6,541.7 413.9,540.0 413.2,538.4 412.5,536.8 411.7,535.2 410.9,533.6 410.0,531.9 409.1,530.3 408.2,528.6 407.2,526.9 406.3,525.2 405.3,523.5 404.3,521.7 403.2,519.9 402.2,518.1 401.2,516.3 400.3,514.4 399.3,512.5 398.4,510.5 397.5,508.6 396.7,506.6 396.0,504.5 395.3,502.5 394.7,500.4 394.2,498.3 393.8,496.2 393.5,494.1 393.4,492.0 393.3,489.9 393.4,487.8 393.7,485.7 394.0,483.7 394.5,481.6 395.1,479.7 395.9,477.7 396.8,475.8 397.8,474.0 398.9,472.2 400.2,470.5 401.5,468.8 403.0,467.2 404.5,465.6 406.1,464.2 407.8,462.8 409.5,461.4 411.3,460.1 413.1,458.9 414.9,457.7 416.7,456.5 418.5,455.4 420.3,454.3 422.1,453.3 423.8,452.2 425.4,451.1 427.0,450.0 428.5,448.9 430.0,447.8 431.3,446.6 432.6,445.3 433.8,444.0 435.0,442.6 436.0,441.2 437.0,439.6 437.8,438.0 438.7,436.3 439.4,434.4 440.1,432.5 440.8,430.5 441.4,428.3 442.0,426.1 442.7,423.8 443.3,421.5 443.9,419.0 444.5,416.5 445.2,414.0 446.0,411.4 446.8,408.8 447.7,406.2 448.6,403.7 449.7,401.1 450.8,398.7 452.1,396.2 453.4,393.9 454.8,391.7 456.4,389.6 458.1,387.7 459.9,385.9 461.7,384.3 463.7,382.9 465.8,381.6 467.9,380.6 470.1,379.7 472.4,379.1 474.8,378.7 477.2,378.5 479.6,378.5 482.1,378.7 484.6,379.1 487.0,379.7 489.5,380.5 492.0,381.4 494.4,382.5 496.8,383.7 499.2,385.0 501.5,386.5 503.7,387.9 506.0,389.5 508.1,391.0 510.2,392.6 512.3,394.1 514.2,395.6 516.2,397.1 518.1,398.5 520.0,399.8 521.8,400.9 523.6,402.0 525.4,402.9 527.2,403.7 529.0,404.3 530.8,404.8 532.6,405.1 534.5,405.3 536.4,405.3 538.4,405.2 540.4,404.9 542.5,404.5 544.7,403.9 546.9,403.3 549.2,402.5 551.6,401.7 554.1,400.9 556.7,400.0 559.3,399.0 562.0,398.1 564.8,397.2 567.6,396.3 570.4,395.5 573.3,394.8 576.2,394.2 579.2,393.7 582.1,393.3 585.0,393.1 587.9,393.0 590.7,393.2 593.5,393.4 596.2,393.9 598.8,394.5 601.3,395.4 603.7,396.4 606.0,397.6 608.2,399.0 610.2,400.6 612.0,402.3 613.7,404.2 615.3,406.2 616.7,408.4 618.0,410.7 619.1,413.1 620.1,415.6 620.9,418.1 621.6,420.8 622.1,423.4 622.6,426.2 623.0,428.9 623.3,431.6 623.5,434.3 623.6,437.0 623.7,439.7 623.8,442.3 623.9,444.9 624.0,447.5 624.1,449.9 624.2,452.3 624.4,454.7 624.7,457.0 625.0,459.2 625.4,461.4 625.9,463.5 626.4,465.5 627.1,467.5 627.9,469.5 628.8,471.4 629.7,473.4 630.8,475.2 632.0,477.1 633.3,479.0 634.6,480.9 636.0,482.8 637.5,484.7 639.1,486.6 640.6,488.6 642.2,490.6 643.8,492.6 645.5,494.7 647.1,496.9 648.6,499.1 650.2,501.3 651.6,503.6 653.0,506.0 654.3,508.3 655.5,510.8 656.6,513.2 657.6,515.7 658.5,518.3 659.2,520.8 659.8,523.4 660.3,526.0 660.6,528.6 660.7,531.2 660.7,533.8 660.6,536.4 660.3,539.0 659.9,541.5 659.3,544.1 658.6,546.6 657.8,549.0 656.9,551.4 655.9,553.8 654.8,556.2 653.5,558.5 652.2,560.7 650.9,562.9 649.5,565.1 648.0,567.2 646.5,569.3 644.9,571.4 643.4,573.4 641.8,575.4 640.2,577.4 638.6,579.3 637.0,581.2 635.5,583.2 633.9,585.1 632.3,587.0 630.8,588.9 629.3,590.8 627.8,592.7 626.3,594.6 624.9,596.6 623.4,598.5 622.0,600.5 620.6,602.4 619.2,604.4 617.8,606.4 616.4,608.5 615.0,610.5 613.6,612.5 612.2,614.6 610.8,616.6 609.3,618.7 607.8,620.8 606.3,622.8 604.7,624.9 603.2,626.9 601.5,628.9 599.9,630.9 598.2,632.8 596.4,634.8 594.6,636.7 592.7,638.5 590.8,640.3 588.8,642.1 586.8,643.8 584.8,645.4 582.6,647.0 580.5,648.5 578.3,649.9 576.0,651.3 573.7,652.7 571.4,653.9 569.0,655.1 566.6,656.2 564.2,657.3 561.7,658.2 559.3,659.1 556.7,660.0 554.2,660.8 551.7,661.5 549.1,662.2 546.5,662.8 543.9,663.3 541.3,663.8 538.7,664.2 536.1,664.6 533.4,665.0 530.8,665.3 528.2,665.6 525.5,665.8 522.9,666.0 520.3,666.1 517.6,666.3 515.0,666.3 512.3,666.4 509.7,666.4 507.0,666.4 504.4,666.4 501.7,666.3 499.1,666.2 496.4,666.1 493.8,665.9 491.1,665.7 488.5,665.5 485.8,665.3 483.1,665.0 480.5,664.6 477.8,664.3 475.2,663.9 472.5,663.4 469.9,663.0 467.2,662.5 464.6,661.9 461.9,661.3 459.3,660.6 456.7,659.9 454.1,659.2 451.4,658.4 448.8,657.6 446.3,656.7 443.7,655.8 441.1,654.8 438.6,653.8 436.0,652.7 433.5,651.6 431.0,650.5 428.5,649.3 426.0,648.0 423.6,646.7 421.1,645.4 418.7,644.0 416.3,642.6 414.0,641.1 411.6,639.6 409.3,638.0 407.0,636.4 404.8,634.7 402.6,633.0 400.4,631.3 398.3,629.4 396.2,627.6 394.1,625.7 392.1,623.7 390.1,621.7 388.2,619.7 386.3,617.6 384.5,615.4 382.7,613.3 380.9,611.1 379.2,608.8 377.6,606.5 376.0,604.2 374.4,601.9 372.9,599.5 371.4,597.1 370.0,594.7 368.6,592.2 367.2,589.8 365.9,587.3 364.7,584.7 363.4,582.2 362.2,579.7 361.1,577.1 359.9,574.5 358.8,571.9 357.8,569.3 356.7,566.7 355.7,564.1 354.7,561.4 353.7,558.8 352.7,556.1 351.8,553.4 350.9,550.7 350.0,548.0 349.1,545.3 348.2,542.5 347.4,539.8 346.6,537.0 345.8,534.2 345.0,531.4 344.3,528.6 343.6,525.7 342.9,522.9 342.3,520.0 341.7,517.1 341.2,514.2 340.7,511.3 340.2,508.3 339.9,505.4 339.6,502.4 339.3,499.4 339.1,496.4 339.0,493.4 339.0,490.4 339.0,487.4 339.2,484.4 339.4,481.4 339.7,478.3 340.1,475.4 340.6,472.4 341.2,469.4 341.8,466.5 342.6,463.5 343.4,460.6 344.4,457.8 345.4,454.9 346.6,452.1 347.8,449.4 349.0,446.6 350.4,443.9 351.8,441.3 353.3,438.7 354.9,436.1 356.5,433.6 358.2,431.1 359.9,428.6 361.6,426.2 363.4,423.8 365.2,421.4 367.0,419.1 368.9,416.8 370.8,414.5 372.6,412.2 374.5,409.9 376.4,407.7 378.3,405.4 380.2,403.2 382.0,400.9 383.9,398.7 385.7,396.4 387.6,394.1 389.4,391.8 391.3,389.5 393.1,387.1 395.0,384.8 396.8,382.4 398.7,380.0 400.5,377.6 402.4,375.1 404.3,372.7 406.3,370.2 408.2,367.8 410.2,365.3 412.3,362.9 414.4,360.4 416.5,358.0 418.7,355.6 421.0,353.3 423.3,351.0 425.6,348.7 428.1,346.5 430.6,344.4 433.2,342.4 435.8,340.4 438.5,338.6 441.3,336.9 444.2,335.3 447.1,333.8 450.0,332.4 453.1,331.1 456.1,330.0 459.3,329.1 462.4,328.2 465.6,327.6 468.8,327.0 472.1,326.6 475.3,326.3 478.6,326.2 481.9,326.2 485.2,326.3 488.4,326.5 491.7,326.8 494.9,327.3 498.2,327.8 501.4,328.4 504.5,329.0 507.7,329.7 510.8,330.5 513.9,331.2 517.0,332.0 520.1,332.8 523.1,333.6 526.1,334.4 529.1,335.2 532.1,335.9 535.1,336.6 538.0,337.3 541.0,337.9 544.0,338.4 547.0,338.9 550.0,339.4 553.0,339.8 556.0,340.1 559.1,340.4 562.2,340.6 565.4,340.8 568.5,341.0 571.8,341.1 575.0,341.2 578.4,341.3 581.7,341.4 585.1,341.5 588.5,341.7 592.0,341.8 595.4,342.1 598.9,342.3 602.5,342.7 606.0,343.1 609.5,343.7 613.0,344.3 616.5,345.1 619.9,346.0 623.3,347.0 626.7,348.1 630.0,349.4 633.2,350.9 636.4,352.5 639.4,354.2 642.4,356.1 645.2,358.1 647.9,360.3 650.6,362.6 653.0,365.1 655.4,367.7 657.6,370.4 659.7,373.2 661.6,376.1 663.5,379.1 665.2,382.2 666.7,385.4 668.2,388.6 669.5,391.9 670.7,395.2 671.9,398.6 672.9,401.9 673.9,405.3 674.8,408.6 675.6,412.0 676.5,415.3 677.3,418.6 678.0,421.9 678.8,425.2 679.6,428.4 680.4,431.6 681.2,434.7 682.1,437.8 683.0,440.9 683.9,443.9 685.0,446.9 686.1,449.9 687.2,452.8 688.5,455.7 689.8,458.7 691.2,461.6 692.6,464.5 694.1,467.4 695.7,470.4 697.3,473.3 699.0,476.3 700.6,479.3 702.4,482.4 704.1,485.5 705.8,488.6 707.5,491.8 709.1,495.1 710.7,498.3 712.3,501.7 713.8,505.1 715.2,508.5 716.4,512.0 717.6,515.5 718.7,519.1 719.6,522.7 720.3,526.3 720.9,530.0 721.4,533.6 721.6,537.3 721.7,540.9 721.7,544.6 721.4,548.3 721.0,551.9 720.3,555.5 719.5,559.0 718.6,562.6 717.5,566.0 716.2,569.5 714.7,572.8 713.2,576.1 711.5,579.4 709.7,582.6 707.7,585.7 705.7,588.7 703.6,591.7 701.4,594.7 699.2,597.5 696.9,600.4 694.6,603.1 692.2,605.8 689.9,608.5 687.5,611.2 685.2,613.8 682.8,616.4 680.5,619.0 678.2,621.6 675.9,624.1 673.6,626.7 671.4,629.3 669.2,631.9 667.1,634.5 664.9,637.1 662.9,639.8 660.8,642.5 658.7,645.2 656.7,648.0 654.7,650.8 652.7,653.6 650.7,656.5 648.7,659.3 646.6,662.2 644.6,665.1 642.5,668.0 640.4,671.0 638.2,673.9 636.0,676.8 633.7,679.7 631.4,682.6 629.0,685.4 626.5,688.2 624.0,690.9 621.4,693.6 618.7,696.2 615.9,698.7 613.1,701.1 610.1,703.5 607.1,705.7 604.0,707.9 600.9,709.9 597.7,711.8 594.4,713.6 591.0,715.2 587.6,716.8 584.1,718.2 580.6,719.5 577.0,720.6 573.4,721.7 569.8,722.6 566.1,723.4 562.5,724.1 558.8,724.6 555.0,725.1 551.3,725.5 547.6,725.8 543.9,725.9 540.1,726.1 536.4,726.1 532.7,726.1 529.0,726.0 525.3,725.8 521.6,725.7 517.9,725.4 514.3,725.2 510.6,724.9 507.0,724.5 503.4,724.2 499.7,723.8 496.1,723.5 492.5,723.1 488.9,722.7 485.3,722.2 481.7,721.8 478.1,721.4 474.4,720.9 470.8,720.4 467.2,720.0 463.6,719.4 460.0,718.9 456.3,718.4 452.7,717.8 449.0,717.1 445.4,716.5 441.7,715.8 438.1,715.0 434.4,714.2 430.8,713.3 427.1,712.4 423.5,711.4 419.8,710.3 416.2,709.2 412.6,708.0 409.0,706.7 405.5,705.3 402.0,703.9 398.5,702.3 395.0,700.7 391.6,699.0 388.2,697.2 384.8,695.3 381.5,693.3 378.3,691.3 375.1,689.2 372.0,686.9 368.9,684.7 365.8,682.3 362.9,679.8 359.9,677.3 357.1,674.7 354.3,672.1 351.6,669.4 348.9,666.6 346.3,663.8 343.7,660.9 341.2,658.0 338.8,655.0 336.4,652.0 334.0,648.9 331.8,645.8 329.5,642.7 327.3,639.5 325.2,636.3 323.1,633.1 321.1,629.8 319.1,626.5 317.2,623.2 315.3,619.8 313.4,616.5 311.6,613.1 309.9,609.6 308.1,606.2 306.5,602.7 304.8,599.2 303.2,595.7 301.7,592.2 300.2,588.6 298.7,585.1 297.3,581.5 295.9,577.8 294.6,574.2 293.4,570.5 292.2,566.8 291.0,563.1 289.9,559.3 288.9,555.6 287.9,551.8 287.0,548.0 286.1,544.2 285.3,540.3 284.6,536.5 283.9,532.6 283.3,528.7 282.8,524.8 282.4,520.9 282.0,516.9 281.7,513.0 281.5,509.0 281.3,505.1 281.3,501.1 281.3,497.1 281.4,493.2 281.5,489.2 281.7,485.2 282.0,481.3 282.4,477.3 282.9,473.3 283.4,469.4 284.0,465.4 284.7,461.5 285.4,457.6 286.2,453.7 287.2,449.8 288.1,445.9 289.2,442.0 290.3,438.2 291.5,434.4 292.8,430.6 294.1,426.8 295.5,423.0 297.0,419.3 298.6,415.6 300.2,411.9 301.8,408.2 303.6,404.6 305.4,401.0 307.3,397.5 309.2,394.0 311.2,390.5 313.3,387.0 315.4,383.6 317.6,380.2 319.9,376.9 322.2,373.6 324.5,370.3 326.9,367.1 329.4,363.9 331.9,360.7 334.4,357.6 337.0,354.5 339.6,351.4 342.3,348.4 345.0,345.4 347.8,342.4 350.6,339.5 353.4,336.6 356.3,333.7 359.2,330.8 362.1,328.0 365.1,325.2 368.1,322.4 371.1,319.7 374.2,317.0 377.4,314.3 380.5,311.7 383.8,309.1 387.0,306.5 390.3,304.0 393.7,301.5 397.1,299.1 400.5,296.7 404.0,294.4 407.6,292.2 411.2,290.0 414.8,287.9 418.5,285.9 422.2,284.0 426.0,282.1 429.9,280.4 433.8,278.7 437.7,277.2 441.7,275.8 445.7,274.4 449.8,273.2 453.8,272.2 458.0,271.2 462.1,270.4 466.3,269.7 470.5,269.1 474.7,268.6 478.9,268.3 483.1,268.1 487.3,268.0 491.6,268.0 495.8,268.2 500.0,268.4 504.2,268.8 508.4,269.2 512.5,269.7 516.7,270.3 520.8,270.9 524.9,271.6 529.0,272.4 533.0,273.2 537.1,274.0 541.1,274.8 545.1,275.7 549.1,276.5 553.1,277.3 557.1,278.1 561.2,279.0 565.2,279.7 569.2,280.5 573.2,281.2 577.3,281.9 581.4,282.6 585.5,283.2 589.6,283.8 593.8,284.4 598.0,285.0 602.3,285.5 606.6,286.1 610.9,286.7 615.3,287.2 619.7,287.9 624.1,288.5 628.6,289.3 633.0,290.1 637.5,290.9 642.0,291.9 646.5,293.0 651.0,294.2 655.4,295.5 659.8,297.0 664.1,298.6 668.4,300.4 672.5,302.4 676.6,304.5 680.6,306.9 684.4,309.4 688.1,312.1 691.7,314.9 695.1,318.0 698.3,321.2 701.4,324.6 704.3,328.2 707.0,331.9 709.5,335.7 711.8,339.7 714.0,343.8 715.9,348.0 717.7,352.3 719.3,356.7 720.8,361.1 722.1,365.6 723.2,370.1 724.3,374.6 725.2,379.1 726.1,383.7 726.9,388.1 727.6,392.6 728.3,397.0 729.1,401.3 729.8,405.6 730.5,409.9 731.3,414.0 732.2,418.2 733.1,422.2 734.2,426.2 735.3,430.1 736.6,434.0 738.0,437.8 739.6,441.6 741.2,445.4 743.0,449.1 745.0,452.9 747.0,456.6 749.2,460.4 751.5,464.2 753.9,468.0 756.4,471.8 758.9,475.8 761.5,479.7 764.1,483.8 766.7,487.9 769.2,492.1 771.8,496.4 774.2,500.8 776.5,505.2 778.7,509.7 780.8,514.3 782.7,519.0 784.4,523.7 785.8,528.5 787.1,533.3 788.1,538.1 788.8,543.0 789.2,547.8 789.4,552.7 789.2,557.6 788.8,562.4 788.1,567.1 787.1,571.9 785.8,576.5 784.2,581.1 782.4,585.6 780.3,590.0 778.0,594.3 775.4,598.5 772.7,602.5 769.8,606.5 766.7,610.4 763.5,614.1 760.2,617.8 756.8,621.3 753.3,624.8 749.8,628.1 746.2,631.4 742.7,634.6 739.2,637.8 735.7,640.9 732.2,644.0 728.8,647.1 725.5,650.1 722.2,653.2 719.1,656.3 716.0,659.4 713.0,662.6 710.1,665.8 707.3,669.0 704.6,672.4 702.0,675.8 699.4,679.2 696.9,682.8 694.4,686.4 692.0,690.1 689.6,693.8 687.2,697.6 684.8,701.5 682.4,705.4 679.9,709.3 677.4,713.3 674.9,717.3 672.3,721.3 669.6,725.3 666.8,729.2 664.0,733.1 661.0,737.0 657.9,740.7 654.7,744.4 651.4,748.0 648.0,751.4 644.4,754.7 640.7,757.9 636.9,761.0 633.0,763.8 629.0,766.5 624.8,769.1 620.6,771.4 616.3,773.6 611.9,775.6 607.4,777.4 602.8,779.0 598.2,780.4 593.5,781.7 588.8,782.8 584.1,783.7 579.3,784.5 574.5,785.1 569.7,785.6 564.9,786.0 560.1,786.2 555.3,786.4 550.5,786.4 545.7,786.4 540.9,786.3 536.1,786.1 531.4,785.8 526.7,785.5 522.0,785.2 517.3,784.8 512.6,784.4 507.9,784.0 503.3,783.6 498.6,783.1 494.0,782.6 489.4,782.1 484.7,781.6 480.1,781.1 475.5,780.6 470.9,780.1 466.3,779.5 461.6,778.9 457.0,778.3 452.4,777.7 447.7,777.0 443.1,776.3 438.5,775.5 433.8,774.7 429.2,773.8 424.5,772.9 419.9,771.8 415.2,770.7 410.6,769.6 406.0,768.3 401.4,766.9 396.8,765.5 392.3,764.0 387.7,762.3 383.2,760.6 378.8,758.8 374.4,756.8 370.0,754.8 365.6,752.6 361.3,750.4 357.1,748.0 352.9,745.6 348.8,743.0 344.7,740.4 340.7,737.6 336.8,734.8 332.9,731.9 329.0,728.9 325.3,725.8 321.6,722.6 318.0,719.4 314.4,716.1 310.9,712.7 307.5,709.2 304.1,705.7 300.8,702.1 297.5,698.5 294.4,694.8 291.3,691.0 288.2,687.2 285.2,683.4 282.3,679.5 279.4,675.5 276.6,671.6 273.9,667.5 271.2,663.4 268.6,659.3 266.0,655.2 263.5,651.0 261.1,646.8 258.7,642.5 256.4,638.2 254.2,633.8 252.0,629.4 249.9,625.0 247.9,620.6 246.0,616.1 244.1,611.5 242.3,607.0 240.5,602.4 238.9,597.8 237.2,593.1 235.7,588.5 234.3,583.8 232.9,579.0 231.6,574.3 230.3,569.5 229.2,564.7 228.1,559.9 227.1,555.1 226.1,550.2 225.3,545.3 224.5,540.4 223.8,535.5 223.2,530.6 222.7,525.7 222.2,520.7 221.9,515.7 221.6,510.8 221.4,505.8 221.3,500.8 221.3,495.8 221.4,490.8 221.5,485.8 221.8,480.8 222.1,475.8 222.6,470.8 223.1,465.8 223.8,460.8 224.5,455.8 225.3,450.9 226.2,445.9 227.3,441.0 228.4,436.1 229.6,431.2 230.9,426.4 232.3,421.5 233.8,416.7 235.4,411.9 237.1,407.2 238.9,402.5 240.8,397.8 242.7,393.1 244.8,388.5 246.9,384.0 249.2,379.4 251.5,374.9 253.9,370.5 256.3,366.1 258.9,361.7 261.5,357.4 264.2,353.1 266.9,348.9 269.7,344.7 272.6,340.6 275.6,336.5 278.6,332.4 281.6,328.4 284.7,324.4 287.9,320.5 291.1,316.6 294.4,312.7 297.7,308.9 301.1,305.1 304.5,301.4 308.0,297.7 311.5,294.1 315.1,290.4 318.8,286.9 322.4,283.3 326.2,279.8 329.9,276.4 333.8,273.0 337.7,269.6 341.6,266.4 345.6,263.1 349.7,259.9 353.8,256.8 357.9,253.7 362.2,250.8 366.5,247.8 370.8,245.0 375.2,242.2 379.7,239.6 384.2,237.0 388.8,234.5 393.4,232.1 398.1,229.8 402.8,227.6 407.6,225.5 412.5,223.5 417.4,221.7 422.3,219.9 427.3,218.3 432.3,216.8 437.4,215.4 442.5,214.2 447.6,213.0 452.8,212.0 457.9,211.2 463.1,210.4 468.3,209.8 473.5,209.2 478.7,208.8 484.0,208.5 489.2,208.4 494.4,208.3 499.6,208.3 504.8,208.4 510.0,208.6 515.2,208.9 520.4,209.3 525.6,209.7 530.8,210.3 535.9,210.8 541.1,211.5 546.2,212.2 551.3,212.9 556.4,213.7 561.5,214.5 566.6,215.4 571.7,216.3 576.8,217.2 581.9,218.2 587.0,219.2 592.1,220.2 597.2,221.2 602.3,222.3 607.4,223.5 612.5,224.7 617.6,225.9 622.7,227.1 627.9,228.4 633.0,229.8 638.1,231.3 643.2,232.8 648.3,234.3 653.5,236.0 658.6,237.7 663.6,239.6 668.7,241.5 673.7,243.5 678.7,245.7 683.7,247.9 688.6,250.3 693.4,252.8 698.2,255.5 702.9,258.3 707.6,261.2 712.1,264.2 716.6,267.4 720.9,270.7 725.2,274.1 729.3,277.7 733.4,281.4 737.3,285.3 741.0,289.2 744.7,293.3 748.2,297.5 751.6,301.8 754.9,306.2 758.0,310.7 761.0,315.3 763.9,319.9 766.6,324.7 769.3,329.4 771.8,334.3 774.2,339.1 776.5,344.0 778.7,349.0 780.9,353.9 782.9,358.9 784.9,363.9 786.8,368.9 788.7,373.9 790.5,378.9 792.3,383.9 794.1,388.9 795.9,393.9 797.7,398.8 799.4,403.8 801.2,408.8 803.0,413.7 804.8,418.7 806.6,423.6 808.4,428.6 810.2,433.6 812.1,438.6 814.0,443.6 815.9,448.6 817.8,453.6 819.6,458.7 821.5,463.9 823.4,469.0 825.2,474.2 827.0,479.5 828.8,484.8 830.5,490.1 832.1,495.5 833.6,501.0 835.0,506.5 836.3,512.0 837.5,517.6 838.6,523.2 839.5,528.9 840.2,534.5 840.7,540.2 841.1,546.0 841.2,551.7 841.2,557.4 840.9,563.2 840.5,568.9 839.8,574.6 838.8,580.2 837.7,585.8 836.4,591.4 834.8,596.9 833.0,602.3 831.0,607.7 828.8,613.0 826.4,618.2 823.9,623.3 821.1,628.4 818.2,633.3 815.2,638.2 812.0,642.9 808.7,647.6 805.3,652.2 801.9,656.7 798.3,661.1 794.7,665.4 791.1,669.7 787.4,673.9 783.7,678.1 780.0,682.2 776.3,686.3 772.6,690.3 768.9,694.3 765.3,698.4 761.7,702.4 758.1,706.4 754.6,710.5 751.1,714.6 747.6,718.7 744.2,722.8 740.8,727.0 737.5,731.3 734.1,735.6 730.8,739.9 727.5,744.3 724.1,748.7 720.8,753.1 717.4,757.6 714.0,762.1 710.5,766.7 707.0,771.2 703.5,775.8 699.8,780.3 696.1,784.8 692.2,789.2 688.3,793.6 684.2,797.9 680.1,802.1 675.8,806.2 671.4,810.2 666.8,814.1 662.2,817.8 657.4,821.3 652.5,824.7 647.4,827.9 642.3,830.8 637.0,833.6 631.6,836.1 626.2,838.4 620.6,840.4 614.9,842.3 609.2,843.9 603.5,845.2 597.6,846.3 591.8,847.2 585.8,847.8 579.9,848.3 574.0,848.5 568.0,848.6 562.1,848.4 556.2,848.1 550.3,847.6 544.4,847.0 538.6,846.2 532.7,845.4 527.0,844.4 521.2,843.4 515.5,842.3 509.9,841.2 504.3,840.0 498.7,838.9 493.1,837.7 487.6,836.5 482.1,835.4 476.6,834.2 471.2,833.1 465.7,832.1 460.3,831.1 454.8,830.1 449.3,829.2 443.9,828.4 438.3,827.6 432.8,826.8 427.2,826.0 421.7,825.3 416.0,824.6 410.4,823.9 404.7,823.2 398.9,822.5 393.1,821.7 387.3,820.9 381.5,820.0 375.7,819.1 369.8,818.0 363.9,816.9 358.0,815.6 352.2,814.2 346.3,812.7 340.5,811.0 334.7,809.2 329.0,807.1 323.3,804.9 317.7,802.6 312.2,800.0 306.8,797.2 301.5,794.2 296.3,791.1 291.3,787.7 286.4,784.2 281.6,780.5 276.9,776.6 272.4,772.5 268.1,768.2 263.9,763.8 259.9,759.3 256.1,754.6 252.4,749.8 248.8,744.8 245.4,739.8 242.2,734.7 239.1,729.5 236.1,724.2 233.3,718.9 230.6,713.5 228.0,708.1 225.5,702.7 223.0,697.2 220.7,691.8 218.4,686.3 216.2,680.8 214.0,675.3 211.9,669.9 209.8,664.4 207.7,659.0 205.6,653.6 203.6,648.2 201.5,642.8 199.5,637.4 197.4,632.0 195.3,626.6 193.2,621.2 191.1,615.8 189.0,610.4 186.9,605.0 184.8,599.5 182.7,594.1 180.7,588.6 178.6,583.1 176.6,577.5 174.6,571.9 172.6,566.3 170.7,560.6 168.9,554.9 167.2,549.1 165.5,543.3 163.9,537.4 162.5,531.5 161.2,525.5 160.0,519.5 159.0,513.5 158.1,507.4 157.3,501.4 156.8,495.2 156.4,489.1 156.2,483.0 156.1,476.8 156.3,470.7 156.6,464.5 157.2,458.4 157.9,452.2 158.8,446.2 159.9,440.1 161.1,434.1 162.6,428.1 164.2,422.1 166.0,416.2 167.9,410.4 170.0,404.6 172.2,398.9 174.6,393.2 177.1,387.6 179.7,382.0 182.4,376.5 185.3,371.1 188.2,365.7 191.2,360.4 194.3,355.1 197.5,349.9 200.7,344.8 204.0,339.7 207.3,334.6 210.7,329.6 214.1,324.7 217.6,319.7 221.1,314.8 224.7,309.9 228.3,305.1 231.9,300.3 235.5,295.5 239.2,290.8 243.0,286.0 246.7,281.3 250.5,276.6 254.4,272.0 258.3,267.4 262.2,262.8 266.2,258.2 270.3,253.7 274.4,249.2 278.6,244.7 282.8,240.3 287.1,236.0 291.5,231.7 296.0,227.5 300.5,223.3 305.2,219.2 309.9,215.2 314.7,211.3 319.5,207.4 324.5,203.7 329.5,200.0 334.6,196.5 339.8,193.1 345.1,189.8 350.5,186.6 355.9,183.5 361.4,180.6 367.0,177.7 372.6,175.1 378.4,172.5 384.1,170.1 390.0,167.8 395.8,165.6 401.8,163.6 407.7,161.7 413.8,160.0 419.8,158.3 425.9,156.9 432.0,155.5 438.1,154.2 444.3,153.1 450.5,152.1 456.7,151.2 462.9,150.5 469.1,149.8 475.3,149.2 481.6,148.8 487.8,148.4 494.1,148.2 500.3,148.0 506.5,148.0 512.8,148.0 519.0,148.1 525.3,148.3 531.5,148.6 537.7,149.0 543.9,149.4 550.2,149.9 556.4,150.6 562.6,151.3 568.8,152.0 575.0,152.9 581.1,153.9 587.3,154.9 593.5,156.0 599.6,157.2 605.8,158.5 611.9,159.9 618.0,161.4 624.1,163.0 630.1,164.7 636.2,166.4 642.2,168.3 648.2,170.3 654.2,172.4 660.1,174.5 666.0,176.8 671.9,179.2 677.7,181.7 683.5,184.3 689.3,187.0 695.0,189.8 700.6,192.7 706.3,195.7 711.9,198.7 717.4,201.9 722.9,205.2 728.3,208.6 733.6,212.1 738.9,215.7 744.2,219.4 749.3,223.2 754.4,227.1 759.4,231.2 764.3,235.3 769.1,239.5 773.9,243.9 778.5,248.3 783.1,252.9 787.5,257.5 791.9,262.2 796.1,267.1 800.3,272.0 804.3,277.0 808.2,282.1 812.0,287.3 815.7,292.5 819.3,297.9 822.8,303.3 826.2,308.7 829.4,314.2 832.6,319.8 835.6,325.5 838.6,331.1 841.5,336.9 844.2,342.6 846.9,348.4 849.5,354.3 852.0,360.1 854.5,366.0 856.8,372.0 859.1,377.9 861.4,383.9 863.5,389.9 865.7,395.9 867.7,402.0 869.7,408.0 871.7,414.1 873.6,420.2 875.5,426.3 877.3,432.5 879.0,438.7 880.7,444.9 882.4,451.1 884.0,457.4 885.5,463.7 887.0,470.0 888.4,476.4 889.7,482.8 891.0,489.2 892.2,495.7 893.2,502.2 894.2,508.7 895.0,515.3 895.7,521.9 896.3,528.5 896.8,535.1 897.1,541.8 897.2,548.4 897.2,555.1 897.0,561.8 896.6,568.4 896.1,575.1 895.3,581.8 894.4,588.4 893.2,595.0 891.9,601.5 890.4,608.0 888.6,614.5 886.7,620.9 884.5,627.2 882.2,633.5 879.7,639.7 877.0,645.8 874.1,651.9 871.1,657.8 867.9,663.7 864.6,669.5 861.1,675.1 857.5,680.7 853.8,686.2 850.0,691.7 846.1,697.0 842.1,702.3 838.0,707.4 833.9,712.6 829.8,717.6 825.6,722.6 821.4,727.6 817.2,732.5 813.0,737.4 808.7,742.3 804.5,747.2 800.3,752.0 796.1,756.9 791.9,761.8 787.7,766.6 783.5,771.6 779.3,776.5 775.2,781.4 771.0,786.4 766.8,791.4 762.6,796.5 758.4,801.5 754.1,806.6 749.8,811.7 745.4,816.8 741.0,821.9 736.5,826.9 731.9,832.0 727.3,837.0 722.5,842.0 717.6,846.9 712.7,851.7 707.6,856.4 702.3,861.0 697.0,865.4 691.5,869.7 685.9,873.9 680.1,877.9 674.2,881.6 668.2,885.2 662.1,888.5 655.8,891.6 649.5,894.5 643.0,897.0 636.4,899.4 629.7,901.4 623.0,903.2 616.2,904.8 609.3,906.0 602.4,907.0 595.5,907.8 588.5,908.3 581.5,908.5 574.5,908.5 567.6,908.3 560.6,907.9 553.7,907.4 546.8,906.6 539.9,905.7 533.1,904.7 526.3,903.5 519.5,902.3 512.8,901.0 506.2,899.6 499.6,898.2 493.0,896.8 486.5,895.4 480.0,894.0 473.5,892.6 467.1,891.2 460.7,889.9 454.3,888.6 447.8,887.4 441.4,886.2 435.0,885.1 428.5,884.0 422.0,883.1 415.5,882.1 409.0,881.2 402.4,880.3 395.7,879.5 389.1,878.6 382.3,877.7 375.6,876.9 368.7,875.9 361.9,874.9 355.0,873.9 348.1,872.7 341.2,871.5 334.3,870.1 327.3,868.5 320.4,866.8 313.5,865.0 306.7,862.9 299.9,860.7 293.2,858.2 286.6,855.5 280.0,852.6 273.6,849.5 267.3,846.1 261.1,842.5 255.0,838.7 249.2,834.6 243.5,830.3 237.9,825.8 232.6,821.1 227.4,816.1 222.4,811.0 217.7,805.7 213.1,800.2 208.7,794.6 204.5,788.8 200.5,782.9 196.7,776.9 193.0,770.7 189.5,764.5 186.2,758.3 183.0,751.9 179.9,745.5 177.0,739.1 174.1,732.7 171.4,726.2 168.8,719.8 166.2,713.3 163.7,706.9 161.2,700.4 158.7,694.0 156.3,687.6 153.9,681.2 151.5,674.9 149.1,668.5 146.7,662.2 144.3,655.8 141.9,649.5 139.4,643.2 137.0,636.9 134.5,630.6 132.0,624.2 129.6,617.8 127.1,611.5 124.7,605.0 122.2,598.6 119.8,592.1 117.5,585.5 115.2,579.0 113.0,572.3 110.8,565.6 108.8,558.9 106.8,552.1 105.0,545.2 103.3,538.3 101.8,531.4 100.4,524.4 99.2,517.3 98.1,510.2 97.3,503.1 96.6,496.0 96.1,488.8 95.9,481.6 95.8,474.4 96.0,467.3 96.3,460.1 96.9,452.9 97.7,445.8 98.8,438.6 100.0,431.5 101.4,424.5 103.0,417.5 104.9,410.5 106.9,403.6 109.0,396.7 111.4,389.9 113.9,383.2 116.6,376.5 119.4,369.9 122.3,363.4 125.4,356.9 128.6,350.5 131.9,344.2 135.2,337.9 138.7,331.7 142.3,325.5 145.9,319.4 149.6,313.4 153.4,307.4 157.3,301.4 161.2,295.5 165.1,289.7 169.2,283.8 173.2,278.1 177.3,272.3 181.5,266.7 185.7,261.0 190.0,255.4 194.3,249.8 198.7,244.3 203.2,238.8 207.7,233.3 212.3,227.9 216.9,222.6 221.6,217.2 226.4,212.0 231.3,206.8 236.2,201.6 241.3,196.6 246.4,191.6 251.6,186.7 256.9,181.8 262.2,177.1 267.7,172.4 273.3,167.8 278.9,163.4 284.6,159.0 290.5,154.7 296.4,150.6 302.4,146.6 308.5,142.7 314.7,138.9 321.0,135.3 327.3,131.8 333.7,128.4 340.2,125.2 346.8,122.1 353.4,119.1 360.1,116.3 366.9,113.6 373.7,111.0 380.6,108.6 387.5,106.4 394.4,104.2 401.4,102.2 408.5,100.4 415.5,98.7 422.6,97.1 429.8,95.6 436.9,94.3 444.1,93.1 451.3,92.0 458.5,91.0 465.7,90.2 473.0,89.4 480.2,88.8 487.5,88.3 494.7,88.0 502.0,87.7 509.3,87.6 516.5,87.5 523.8,87.6 531.1,87.8 538.4,88.1 545.6,88.5 552.9,89.0 560.2,89.7 567.4,90.4 574.7,91.3 581.9,92.2 589.1,93.3 596.3,94.5 603.5,95.8 610.7,97.2 617.8,98.8 625.0,100.4 632.1,102.2 639.1,104.1 646.2,106.1 653.2,108.3 660.2,110.6 667.1,112.9 674.0,115.4 680.9,118.1 687.7,120.8 694.5,123.6 701.2,126.6 707.9,129.7 714.6,132.9 721.2,136.2 727.7,139.6 734.2,143.2 740.6,146.8 746.9,150.6 753.2,154.5 759.4,158.5 765.6,162.7 771.7,166.9 777.7,171.2 783.6,175.7 789.4,180.3 795.2,184.9 800.8,189.7 806.4,194.6 811.9,199.6 817.3,204.7 822.7,209.9 827.9,215.2 833.0,220.5 838.0,226.0 843.0,231.6 847.8,237.2 852.5,243.0 857.2,248.8 861.7,254.7 866.1,260.7 870.4,266.8 874.7,272.9 878.8,279.1 882.8,285.4 886.7,291.7 890.5,298.1 894.2,304.6 897.8,311.2 901.2,317.7 904.6,324.4 907.9,331.1 911.0,337.9 914.1,344.7 917.0,351.6 919.8,358.5 922.6,365.4 925.2,372.5 927.7,379.5 930.0,386.6 932.3,393.7 934.5,400.9 936.5,408.1 938.4,415.4 940.2,422.6 941.9,430.0 943.5,437.3 944.9,444.7 946.2,452.1 947.4,459.5 948.5,466.9 949.5,474.4 950.3,481.9 951.0,489.4 951.6,496.9 952.0,504.5 952.3,512.0" fill="none" stroke="#FBB83D" stroke-width="18" stroke-linecap="round" stroke-linejoin="round"/>
  </g>
  <g id="center-dot">
    <circle cx="512" cy="512" r="22" fill="#FBB83D"/>
  </g>
</svg>
