<svg xmlns="http://www.w3.org/2000/svg" viewBox="0 0 1024 1024">
  <g id="background">
    <rect x="0" y="0" width="1024" height="1024" rx="180" ry="180" fill="#1F5F66"/>
  </g>
  <g id="frame">
    <rect x="20" y="20" width="984" height="984" rx="162" ry="162" fill="none" stroke="#D2E7E8" stroke-width="14" stroke-opacity="0.32"/>
  </g>
  <g id="spiral">
    <polyline points="592.5,512.0 592.8,513.3 593.2,514.6 593.4,515.8 593.7,517.1 593.9,518.5 594.1,519.8 594.3,521.1 594.4,522.4 594.5,523.7 594.5,525.1 594.5,526.4 594.5,527.7 594.4,529.1 594.3,530.4 594.2,531.7 594.0,533.1 593.8,534.4 593.6,535.7 593.3,537.0 593.0,538.3 592.7,539.6 592.3,540.9 591.9,542.2 591.5,543.5 591.1,544.8 590.6,546.1 590.2,547.3 589.7,548.6 589.2,549.8 588.7,551.1 588.2,552.4 587.6,553.6 587.1,554.8 586.5,556.1 585.9,557.3 585.4,558.6 584.8,559.8 584.2,561.1 583.6,562.3 583.0,563.6 582.3,564.9 581.7,566.1 581.1,567.4 580.4,568.6 579.7,569.9 579.0,571.2 578.4,572.4 577.6,573.7 576.9,575.0 576.2,576.2 575.4,577.5 574.6,578.7 573.8,580.0 573.0,581.2 572.1,582.4 571.2,583.7 570.3,584.9 569.4,586.1 568.5,587.3 567.5,588.5 566.5,589.7 565.5,590.8 564.4,591.9 563.4,593.1 562.3,594.1 561.1,595.2 560.0,596.2 558.8,597.2 557.6,598.2 556.3,599.1 555.0,600.0 553.7,600.8 552.4,601.6 551.0,602.4 549.6,603.1 548.2,603.7 546.8,604.3 545.3,604.9 543.9,605.4 542.4,605.8 540.9,606.2 539.4,606.6 537.9,606.9 536.4,607.2 534.8,607.4 533.3,607.7 531.8,607.9 530.2,608.0 528.7,608.2 527.2,608.3 525.6,608.5 524.1,608.6 522.6,608.8 521.1,608.9 519.5,609.1 518.0,609.3 516.5,609.5 515.0,609.7 513.4,610.0 511.9,610.3 510.4,610.6 508.8,611.0 507.2,611.4 505.6,611.8 504.0,612.3 502.4,612.8 500.7,613.4 499.0,613.9 497.3,614.5 495.6,615.1 493.8,615.7 492.0,616.3 490.2,616.8 488.3,617.4 486.4,617.9 484.6,618.4 482.6,618.8 480.7,619.2 478.8,619.5 476.9,619.7 474.9,619.9 473.0,619.9 471.1,619.9 469.2,619.7 467.4,619.4 465.5,619.0 463.8,618.4 462.1,617.8 460.4,617.0 458.8,616.1 457.3,615.1 455.8,613.9 454.4,612.6 453.1,611.3 451.9,609.8 450.8,608.2 449.7,606.6 448.7,604.9 447.8,603.1 446.9,601.3 446.2,599.4 445.4,597.6 444.7,595.7 444.1,593.9 443.4,592.1 442.8,590.3 442.1,588.5 441.5,586.9 440.8,585.3 440.1,583.7 439.3,582.3 438.4,580.9 437.4,579.7 436.4,578.5 435.2,577.4 433.9,576.4 432.5,575.5 430.9,574.7 429.2,574.0 427.3,573.3 425.4,572.7 423.2,572.1 421.0,571.6 418.6,571.0 416.1,570.5 413.5,570.0 410.9,569.5 408.1,568.9 405.3,568.2 402.5,567.5 399.7,566.8 396.9,565.9 394.2,565.0 391.5,563.9 389.0,562.7 386.5,561.4 384.2,560.0 382.1,558.5 380.2,556.9 378.5,555.1 377.1,553.2 375.9,551.3 374.9,549.2 374.3,547.1 374.0,544.9 373.9,542.6 374.1,540.3 374.7,537.9 375.5,535.6 376.5,533.2 377.8,530.8 379.4,528.5 381.2,526.2 383.1,523.9 385.2,521.7 387.5,519.6 389.8,517.5 392.2,515.5 394.6,513.6 397.0,511.8 399.4,510.0 401.6,508.3 403.8,506.7 405.8,505.1 407.6,503.6 409.2,502.1 410.5,500.6 411.6,499.1 412.5,497.6 413.0,496.1 413.2,494.6 413.2,492.9 412.8,491.2 412.1,489.5 411.2,487.6 410.0,485.6 408.5,483.4 406.7,481.2 404.8,478.8 402.7,476.2 400.5,473.5 398.1,470.7 395.7,467.8 393.2,464.7 390.8,461.5 388.4,458.2 386.1,454.8 383.9,451.4 381.9,447.9 380.1,444.4 378.5,440.9 377.2,437.5 376.2,434.1 375.5,430.8 375.1,427.7 375.1,424.7 375.4,421.8 376.1,419.2 377.2,416.8 378.6,414.6 380.3,412.6 382.4,410.9 384.7,409.5 387.4,408.4 390.3,407.6 393.5,407.0 396.8,406.7 400.4,406.6 404.0,406.8 407.8,407.3 411.6,407.9 415.4,408.6 419.3,409.6 423.0,410.6 426.8,411.7 430.4,412.8 433.9,414.0 437.2,415.1 440.4,416.1 443.4,417.0 446.2,417.8 448.7,418.4 451.1,418.8 453.2,418.9 455.2,418.8 456.9,418.3 458.5,417.6 459.9,416.6 461.1,415.2 462.2,413.5 463.1,411.5 464.0,409.2 464.7,406.6 465.5,403.7 466.2,400.5 466.9,397.1 467.6,393.5 468.4,389.8 469.2,385.9 470.1,381.9 471.1,377.8 472.3,373.8 473.5,369.8 474.9,365.8 476.4,362.0 478.1,358.3 479.9,354.9 481.9,351.6 484.0,348.7 486.2,346.0 488.5,343.7 491.0,341.7 493.5,340.1 496.1,338.9 498.8,338.0 501.5,337.5 504.3,337.5 507.0,337.8 509.8,338.4 512.5,339.5 515.2,340.8 517.8,342.5 520.4,344.4 522.9,346.6 525.3,349.0 527.7,351.5 529.9,354.3 532.0,357.1 534.1,360.0 536.1,362.9 538.0,365.8 539.8,368.6 541.6,371.4 543.3,374.1 544.9,376.6 546.6,379.0 548.2,381.2 549.9,383.2 551.5,385.0 553.2,386.5 554.9,387.9 556.7,388.9 558.6,389.8 560.6,390.4 562.6,390.8 564.8,391.0 567.1,391.0 569.5,390.9 572.0,390.5 574.6,390.1 577.3,389.5 580.2,388.9 583.1,388.2 586.2,387.5 589.3,386.8 592.5,386.1 595.7,385.5 599.0,384.9 602.3,384.4 605.6,384.1 608.9,383.8 612.2,383.8 615.4,383.9 618.5,384.1 621.6,384.6 624.5,385.2 627.4,386.0 630.1,387.1 632.7,388.3 635.1,389.7 637.4,391.3 639.5,393.1 641.5,395.0 643.3,397.1 644.9,399.3 646.4,401.6 647.7,404.1 648.8,406.6 649.8,409.3 650.7,412.0 651.4,414.7 652.1,417.5 652.6,420.3 653.1,423.2 653.5,426.0 653.9,428.8 654.2,431.6 654.5,434.3 654.8,437.1 655.1,439.7 655.4,442.4 655.8,445.0 656.2,447.5 656.7,450.0 657.2,452.5 657.8,454.9 658.4,457.3 659.2,459.6 660.0,461.9 660.9,464.2 661.9,466.5 663.0,468.8 664.1,471.0 665.3,473.3 666.5,475.5 667.8,477.8 669.1,480.1 670.4,482.4 671.8,484.7 673.2,487.1 674.5,489.5 675.8,491.9 677.2,494.4 678.4,496.9 679.6,499.5 680.8,502.0 681.9,504.7 682.9,507.3 683.8,510.0 684.6,512.7 685.3,515.4 685.9,518.2 686.4,520.9 686.8,523.7 687.1,526.5 687.2,529.3 687.3,532.1 687.2,534.9 687.1,537.6 686.8,540.4 686.4,543.2 686.0,545.9 685.4,548.6 684.8,551.4 684.1,554.1 683.3,556.7 682.4,559.4 681.5,562.0 680.5,564.6 679.5,567.2 678.5,569.8 677.4,572.3 676.2,574.8 675.1,577.4 673.9,579.9 672.7,582.4 671.5,584.8 670.3,587.3 669.0,589.8 667.8,592.2 666.5,594.7 665.3,597.1 664.0,599.6 662.7,602.0 661.4,604.4 660.1,606.9 658.8,609.3 657.4,611.8 656.1,614.2 654.7,616.6 653.3,619.0 651.9,621.5 650.4,623.9 648.9,626.3 647.4,628.7 645.9,631.1 644.3,633.4 642.6,635.8 641.0,638.1 639.3,640.4 637.5,642.7 635.7,644.9 633.9,647.1 632.0,649.3 630.0,651.5 628.1,653.6 626.0,655.6 624.0,657.7 621.9,659.7 619.7,661.7 617.6,663.6 615.3,665.5 613.1,667.4 610.8,669.2 608.4,671.0 606.0,672.7 603.6,674.4 601.2,676.0 598.7,677.5 596.1,679.1 593.6,680.5 591.0,681.9 588.4,683.3 585.7,684.6 583.1,685.9 580.4,687.1 577.7,688.3 574.9,689.4 572.2,690.4 569.4,691.4 566.6,692.4 563.7,693.2 560.9,694.0 558.0,694.8 555.1,695.5 552.2,696.2 549.3,696.7 546.4,697.3 543.5,697.8 540.6,698.3 537.7,698.7 534.7,699.1 531.8,699.4 528.8,699.8 525.9,700.1 522.9,700.4 520.0,700.7 517.0,701.0 514.0,701.2 511.1,701.5 508.1,701.7 505.1,702.0 502.1,702.3 499.1,702.5 496.0,702.8 493.0,703.1 489.9,703.3 486.8,703.6 483.7,703.9 480.6,704.1 477.4,704.3 474.3,704.5 471.1,704.7 467.9,704.8 464.7,704.9 461.4,704.9 458.2,704.9 454.9,704.8 451.7,704.6 448.4,704.3 445.2,703.9 442.0,703.5 438.8,702.9 435.6,702.1 432.4,701.3 429.3,700.3 426.3,699.2 423.3,698.0 420.4,696.6 417.5,695.1 414.7,693.4 412.0,691.7 409.4,689.8 406.8,687.7 404.4,685.6 402.0,683.3 399.7,681.0 397.5,678.5 395.4,676.0 393.4,673.4 391.4,670.8 389.5,668.2 387.7,665.5 385.9,662.8 384.1,660.1 382.4,657.4 380.6,654.8 378.9,652.2 377.2,649.7 375.4,647.2 373.5,644.7 371.6,642.4 369.7,640.1 367.7,637.9 365.5,635.7 363.3,633.7 361.0,631.7 358.5,629.7 355.9,627.8 353.3,626.0 350.5,624.2 347.6,622.4 344.6,620.7 341.5,618.9 338.3,617.1 335.0,615.3 331.7,613.5 328.4,611.6 325.0,609.7 321.7,607.6 318.4,605.5 315.1,603.3 312.0,601.0 308.9,598.5 306.0,596.0 303.2,593.3 300.6,590.5 298.2,587.6 296.0,584.6 294.1,581.4 292.4,578.2 291.0,574.8 289.8,571.4 289.0,567.9 288.4,564.3 288.1,560.7 288.1,557.0 288.3,553.3 288.8,549.6 289.6,545.9 290.6,542.2 291.8,538.5 293.2,534.9 294.7,531.3 296.4,527.7 298.2,524.2 300.0,520.8 301.9,517.4 303.8,514.0 305.7,510.8 307.6,507.6 309.3,504.4 311.0,501.3 312.5,498.3 313.9,495.2 315.1,492.2 316.1,489.2 317.0,486.2 317.6,483.1 318.0,480.1 318.3,477.0 318.3,473.8 318.1,470.6 317.8,467.4 317.3,464.0 316.6,460.6 315.8,457.0 314.9,453.4 313.9,449.7 312.8,445.9 311.7,442.1 310.7,438.1 309.6,434.1 308.6,430.0 307.7,425.9 306.9,421.7 306.2,417.6 305.7,413.4 305.4,409.2 305.3,405.1 305.4,401.0 305.8,397.0 306.4,393.0 307.2,389.1 308.3,385.4 309.6,381.8 311.2,378.3 313.1,375.0 315.1,371.8 317.4,368.8 320.0,365.9 322.7,363.2 325.6,360.7 328.6,358.3 331.8,356.1 335.2,354.1 338.6,352.2 342.1,350.4 345.7,348.8 349.3,347.2 352.9,345.7 356.6,344.3 360.2,343.0 363.8,341.7 367.3,340.4 370.9,339.1 374.3,337.8 377.7,336.5 381.0,335.2 384.3,333.8 387.4,332.3 390.5,330.8 393.6,329.1 396.5,327.4 399.5,325.6 402.3,323.7 405.1,321.8 407.9,319.7 410.7,317.5 413.4,315.3 416.2,313.0 418.9,310.7 421.6,308.3 424.4,305.9 427.2,303.4 430.1,301.0 433.0,298.5 435.9,296.1 438.9,293.7 442.0,291.4 445.1,289.2 448.3,287.0 451.5,284.9 454.8,282.9 458.2,281.0 461.6,279.3 465.1,277.7 468.7,276.2 472.3,274.8 475.9,273.7 479.6,272.6 483.3,271.7 487.0,271.0 490.8,270.4 494.6,269.9 498.4,269.6 502.2,269.4 506.0,269.3 509.9,269.3 513.7,269.5 517.5,269.7 521.3,270.1 525.1,270.5 528.8,271.0 532.6,271.6 536.3,272.2 540.1,272.9 543.8,273.7 547.5,274.5 551.2,275.3 554.9,276.1 558.5,277.0 562.2,277.9 565.8,278.8 569.5,279.8 573.1,280.7 576.8,281.7 580.4,282.7 584.0,283.7 587.6,284.7 591.3,285.7 594.9,286.8 598.5,287.9 602.1,289.0 605.7,290.2 609.4,291.4 613.0,292.6 616.6,293.9 620.2,295.2 623.7,296.5 627.3,298.0 630.9,299.4 634.4,301.0 637.9,302.5 641.4,304.2 644.9,305.9 648.3,307.7 651.8,309.5 655.2,311.4 658.5,313.4 661.9,315.4 665.2,317.5 668.5,319.6 671.7,321.8 674.9,324.0 678.1,326.3 681.3,328.7 684.4,331.1 687.5,333.6 690.5,336.1 693.5,338.7 696.4,341.4 699.3,344.1 702.1,346.9 704.8,349.8 707.5,352.7 710.1,355.7 712.7,358.7 715.2,361.8 717.6,365.0 719.9,368.2 722.2,371.4 724.4,374.7 726.5,378.1 728.6,381.5 730.6,384.9 732.5,388.4 734.4,391.9 736.1,395.5 737.9,399.1 739.5,402.7 741.1,406.3 742.7,409.9 744.2,413.6 745.6,417.3 747.1,421.0 748.4,424.7 749.8,428.4 751.1,432.2 752.4,435.9 753.7,439.7 754.9,443.4 756.1,447.2 757.4,451.0 758.6,454.8 759.8,458.6 761.0,462.4 762.1,466.3 763.3,470.1 764.4,474.0 765.6,477.9 766.7,481.8 767.8,485.8 768.9,489.7 769.9,493.7 770.9,497.7 771.8,501.8 772.8,505.9 773.6,509.9 774.4,514.1 775.1,518.2 775.7,522.4 776.3,526.6 776.7,530.8 777.0,535.0 777.3,539.2 777.4,543.4 777.4,547.7 777.2,551.9 776.9,556.1 776.5,560.3 775.9,564.5 775.2,568.7 774.4,572.9 773.4,577.0 772.2,581.0 770.9,585.1 769.5,589.1 767.9,593.0 766.3,596.9 764.5,600.7 762.5,604.5 760.5,608.2 758.4,611.9 756.2,615.5 753.9,619.0 751.6,622.5 749.2,626.0 746.8,629.4 744.4,632.8 741.9,636.1 739.4,639.5 737.0,642.8 734.5,646.1 732.1,649.4 729.7,652.7 727.3,656.0 725.0,659.3 722.7,662.7 720.4,666.1 718.2,669.5 716.0,673.0 713.9,676.5 711.8,680.1 709.8,683.8 707.7,687.5 705.7,691.2 703.7,695.0 701.7,698.9 699.7,702.8 697.6,706.8 695.5,710.8 693.4,714.8 691.2,718.8 689.0,722.8 686.7,726.8 684.2,730.7 681.7,734.6 679.1,738.5 676.3,742.2 673.4,745.9 670.4,749.4 667.3,752.8 664.0,756.1 660.6,759.2 657.0,762.1 653.3,764.8 649.5,767.3 645.6,769.6 641.5,771.6 637.3,773.4 633.0,775.0 628.7,776.4 624.2,777.5 619.7,778.5 615.1,779.1 610.5,779.6 605.8,779.9 601.2,780.0 596.5,779.9 591.8,779.7 587.2,779.3 582.5,778.9 577.9,778.3 573.3,777.7 568.8,777.0 564.4,776.4 559.9,775.7 555.6,775.1 551.2,774.6 547.0,774.1 542.7,773.8 538.6,773.6 534.4,773.5 530.3,773.5 526.2,773.8 522.0,774.2 517.9,774.7 513.8,775.5 509.7,776.4 505.5,777.5 501.2,778.8 497.0,780.2 492.6,781.8 488.2,783.5 483.7,785.2 479.1,787.1 474.5,789.0 469.8,790.9 465.0,792.8 460.1,794.6 455.1,796.4 450.1,798.1 445.0,799.6 439.9,801.0 434.7,802.1 429.5,803.1 424.4,803.7 419.2,804.2 414.1,804.3 409.0,804.1 404.1,803.5 399.1,802.7 394.4,801.4 389.7,799.9 385.2,797.9 380.8,795.7 376.6,793.1 372.6,790.1 368.7,786.9 365.1,783.4 361.7,779.6 358.4,775.6 355.4,771.3 352.6,766.9 349.9,762.3 347.4,757.6 345.1,752.8 342.9,748.0 340.8,743.1 338.8,738.3 336.9,733.4 335.1,728.7 333.2,724.0 331.4,719.5 329.5,715.1 327.6,710.9 325.6,706.8 323.5,702.9 321.2,699.2 318.8,695.8 316.2,692.4 313.4,689.3 310.4,686.4 307.2,683.6 303.7,681.0 300.0,678.6 296.1,676.2 291.9,674.0 287.6,671.8 283.0,669.7 278.2,667.7 273.3,665.6 268.3,663.5 263.1,661.3 257.8,659.1 252.5,656.7 247.2,654.3 242.0,651.7 236.7,649.0 231.6,646.0 226.7,642.9 221.9,639.6 217.4,636.2 213.1,632.5 209.1,628.6 205.5,624.5 202.2,620.2 199.3,615.7 196.7,611.1 194.6,606.3 193.0,601.4 191.7,596.3 190.9,591.1 190.5,585.9 190.6,580.6 191.0,575.2 191.9,569.9 193.1,564.5 194.6,559.1 196.5,553.8 198.6,548.5 201.0,543.3 203.5,538.1 206.2,533.1 209.1,528.1 211.9,523.2 214.8,518.4 217.7,513.7 220.6,509.1 223.3,504.6 225.9,500.2 228.3,495.8 230.5,491.5 232.5,487.2 234.2,483.0 235.7,478.7 236.9,474.5 237.8,470.2 238.4,465.9 238.7,461.5 238.7,457.0 238.5,452.5 238.0,447.9 237.2,443.1 236.3,438.3 235.2,433.3 233.9,428.2 232.5,423.0 231.1,417.6 229.6,412.1 228.1,406.6 226.7,400.9 225.3,395.1 224.0,389.3 222.9,383.4 222.0,377.5 221.4,371.6 221.0,365.8 220.8,359.9 221.0,354.1 221.5,348.4 222.3,342.9 223.5,337.4 225.1,332.1 227.0,327.0 229.3,322.1 231.9,317.5 234.9,313.0 238.2,308.8 241.9,304.8 245.8,301.1 250.1,297.7 254.5,294.5 259.2,291.6 264.1,288.9 269.2,286.4 274.4,284.2 279.7,282.2 285.0,280.3 290.5,278.6 295.9,277.1 301.3,275.6 306.7,274.2 312.1,272.9 317.3,271.6 322.5,270.4 327.6,269.1 332.5,267.7 337.3,266.3 342.0,264.7 346.6,263.0 351.0,261.2 355.3,259.3 359.5,257.1 363.5,254.8 367.5,252.3 371.3,249.7 375.1,246.8 378.9,243.8 382.5,240.5 386.2,237.2 389.8,233.6 393.5,230.0 397.2,226.2 400.9,222.4 404.6,218.5 408.5,214.5 412.4,210.6 416.4,206.7 420.5,202.8 424.7,199.0 429.0,195.3 433.4,191.8 438.0,188.4 442.6,185.2 447.4,182.2 452.3,179.5 457.2,177.0 462.3,174.8 467.4,172.9 472.7,171.3 477.9,169.9 483.3,168.9 488.7,168.2 494.1,167.8 499.5,167.7 504.9,167.9 510.3,168.3 515.7,169.1 521.1,170.1 526.4,171.3 531.7,172.7 536.9,174.3 542.1,176.1 547.2,178.1 552.3,180.1 557.3,182.3 562.3,184.5 567.1,186.8 572.0,189.1 576.8,191.5 581.5,193.8 586.2,196.1 590.9,198.4 595.6,200.6 600.2,202.8 604.9,204.9 609.5,206.9 614.2,208.8 618.9,210.7 623.6,212.4 628.3,214.1 633.1,215.7 637.9,217.3 642.8,218.8 647.7,220.2 652.6,221.6 657.6,223.0 662.6,224.3 667.7,225.7 672.8,227.1 677.9,228.5 683.1,229.9 688.2,231.5 693.4,233.1 698.6,234.8 703.7,236.6 708.9,238.5 713.9,240.5 719.0,242.7 724.0,245.0 728.9,247.4 733.7,250.1 738.4,252.8 743.1,255.8 747.6,258.9 752.0,262.1 756.3,265.5 760.5,269.1 764.5,272.8 768.4,276.6 772.2,280.6 775.8,284.7 779.3,288.9 782.6,293.3 785.8,297.7 788.9,302.2 791.8,306.8 794.7,311.5 797.4,316.2 800.0,321.0 802.5,325.9 804.9,330.8 807.2,335.7 809.5,340.6 811.7,345.6 813.8,350.6 815.9,355.5 817.9,360.5 819.9,365.5 821.8,370.5 823.8,375.5 825.7,380.5 827.6,385.5 829.4,390.5 831.3,395.5 833.2,400.6 835.0,405.6 836.8,410.6 838.6,415.7 840.4,420.7 842.2,425.8 843.9,430.9 845.7,436.0 847.4,441.1 849.0,446.3 850.6,451.5 852.2,456.7 853.7,462.0 855.1,467.3 856.4,472.6 857.7,477.9 858.9,483.3 860.0,488.7 861.0,494.2 861.9,499.6 862.7,505.1 863.3,510.6 863.9,516.1 864.3,521.7 864.6,527.3 864.8,532.8 864.8,538.4 864.7,544.0 864.5,549.5 864.2,555.1 863.7,560.7 863.1,566.2 862.4,571.8 861.5,577.3 860.6,582.8 859.5,588.3 858.3,593.8 857.0,599.2 855.6,604.6 854.1,610.0 852.5,615.4 850.8,620.7 849.0,626.0 847.1,631.2 845.2,636.5 843.1,641.7 841.0,646.9 838.9,652.0 836.6,657.1 834.3,662.2 831.9,667.3 829.5,672.3 827.0,677.3 824.5,682.3 821.8,687.2 819.1,692.1 816.2,696.9 813.4,701.7 810.4,706.5 807.4,711.2 804.4,715.9 801.2,720.6 798.1,725.2 794.9,729.8 791.6,734.4 788.3,738.9 784.9,743.5 781.5,747.9 778.1,752.4 774.6,756.9 771.0,761.3 767.4,765.7 763.7,770.0 760.0,774.3 756.3,778.6 752.5,782.9 748.6,787.1 744.6,791.3 740.6,795.4 736.5,799.5 732.4,803.5 728.1,807.4 723.8,811.3 719.4,815.1 715.0,818.8 710.4,822.4 705.8,825.9 701.1,829.3 696.3,832.6 691.4,835.8 686.4,838.9 681.4,841.8 676.3,844.6 671.1,847.2 665.8,849.7 660.5,852.1 655.1,854.3 649.6,856.3 644.1,858.3 638.5,860.0 632.9,861.6 627.3,863.1 621.6,864.4 615.9,865.6 610.2,866.7 604.5,867.7 598.8,868.6 593.0,869.3 587.3,870.0 581.5,870.6 575.8,871.2 570.1,871.6 564.4,872.1 558.6,872.5 552.9,872.9 547.2,873.3 541.6,873.6 535.9,874.0 530.2,874.4 524.5,874.8 518.8,875.3 513.1,875.7 507.3,876.2 501.6,876.8 495.8,877.3 490.0,877.9 484.2,878.5 478.4,879.0 472.5,879.6 466.6,880.2 460.6,880.8 454.6,881.3 448.6,881.7 442.5,882.1 436.4,882.4 430.2,882.7 424.1,882.7 417.9,882.7 411.7,882.5 405.6,882.2 399.4,881.6 393.3,880.9 387.1,880.0 381.1,878.8 375.1,877.4 369.1,875.8 363.2,873.9 357.4,871.8 351.7,869.5 346.1,866.9 340.7,864.1 335.3,861.0 330.1,857.7 325.0,854.3 320.1,850.6 315.3,846.7 310.6,842.6 306.1,838.4 301.7,834.0 297.4,829.6 293.2,825.0 289.2,820.3 285.2,815.6 281.4,810.9 277.6,806.1 273.9,801.3 270.2,796.5 266.6,791.8 262.9,787.1 259.3,782.5 255.6,777.9 251.9,773.3 248.2,768.9 244.4,764.5 240.5,760.2 236.6,756.0 232.6,751.8 228.4,747.7 224.2,743.7 219.8,739.7 215.4,735.8 210.9,731.9 206.3,728.0 201.6,724.0 196.8,720.1 192.0,716.1 187.1,712.1 182.2,708.0 177.4,703.9 172.5,699.6 167.7,695.3 163.0,690.8 158.3,686.2 153.8,681.5 149.5,676.7 145.2,671.7 141.2,666.5 137.4,661.3 133.9,655.8 130.5,650.3 127.5,644.6 124.7,638.8 122.2,632.8 120.0,626.8 118.1,620.7 116.5,614.4 115.3,608.1 114.3,601.8 113.6,595.4 113.1,588.9 113.0,582.5 113.1,576.0 113.4,569.6 114.0,563.1 114.7,556.7 115.6,550.3 116.7,543.9 117.9,537.6 119.1,531.3 120.5,525.1 121.8,518.9 123.3,512.8 124.7,506.7 126.1,500.6 127.4,494.6 128.7,488.6 130.0,482.7 131.1,476.7 132.2,470.8 133.2,464.9 134.1,458.9 134.8,453.0 135.5,447.0 136.1,441.0 136.6,435.0 137.1,428.9 137.5,422.8 137.8,416.6 138.1,410.4 138.4,404.2 138.7,397.9 139.0,391.5 139.4,385.2 139.8,378.7 140.3,372.3 140.9,365.8 141.7,359.4 142.6,352.9 143.6,346.4 144.8,340.0 146.2,333.6 147.8,327.2 149.6,320.9 151.6,314.7 153.9,308.5 156.3,302.4 159.0,296.5 161.9,290.6 165.0,284.9 168.4,279.3 171.9,273.8 175.7,268.5 179.6,263.3 183.7,258.2 188.0,253.3 192.5,248.5 197.1,243.8 201.8,239.3 206.6,235.0 211.6,230.7 216.6,226.6 221.7,222.5 226.8,218.6 232.0,214.8 237.3,211.0 242.6,207.3 247.9,203.7 253.2,200.1 258.6,196.6 263.9,193.1 269.2,189.6 274.6,186.2 279.9,182.7 285.2,179.3 290.6,175.9 295.9,172.5 301.2,169.1 306.6,165.7 311.9,162.3 317.3,158.9 322.7,155.5 328.1,152.1 333.5,148.8 338.9,145.4 344.4,142.1 350.0,138.9 355.6,135.7 361.2,132.5 366.9,129.4 372.6,126.4 378.5,123.4 384.3,120.6 390.2,117.8 396.2,115.2 402.3,112.7 408.4,110.3 414.5,108.0 420.7,105.8 427.0,103.8 433.3,102.0 439.7,100.3 446.1,98.7 452.5,97.3 459.0,96.1 465.5,95.0 472.0,94.0 478.6,93.2 485.2,92.6 491.8,92.1 498.4,91.7 505.0,91.5 511.6,91.4 518.2,91.5 524.8,91.7 531.4,92.0 538.0,92.4 544.6,93.0 551.2,93.6 557.7,94.3 564.3,95.2 570.8,96.1 577.3,97.2 583.8,98.3 590.3,99.5 596.8,100.8 603.2,102.2 609.7,103.6 616.1,105.2 622.5,106.8 628.9,108.5 635.2,110.2 641.6,112.1 647.9,114.0 654.2,116.0 660.5,118.1 666.8,120.2 673.0,122.4 679.2,124.8 685.4,127.2 691.6,129.6 697.7,132.2 703.8,134.9 709.9,137.6 715.9,140.5 721.9,143.5 727.8,146.5 733.7,149.7 739.6,152.9 745.4,156.2 751.2,159.6 756.9,163.1 762.5,166.7 768.2,170.4 773.7,174.2 779.2,178.1 784.7,182.0 790.0,186.1 795.3,190.3 800.6,194.5 805.7,198.9 810.8,203.3 815.9,207.8 820.8,212.5 825.6,217.2 830.4,222.0 835.1,226.9 839.7,231.9 844.2,236.9 848.6,242.1 853.0,247.3 857.2,252.6 861.4,258.0 865.4,263.4 869.4,268.9 873.2,274.5 877.0,280.2 880.7,285.9 884.3,291.7 887.8,297.5 891.2,303.4 894.5,309.3 897.7,315.3 900.8,321.4 903.9,327.5 906.8,333.6 909.7,339.8 912.4,346.0 915.1,352.3 917.7,358.6 920.2,364.9 922.6,371.3 925.0,377.7 927.2,384.2 929.4,390.7 931.5,397.2 933.5,403.7 935.4,410.3 937.2,416.9 938.9,423.5 940.5,430.2 942.1,436.9 943.5,443.6 944.9,450.4 946.2,457.1 947.3,463.9 948.4,470.7 949.3,477.6 950.2,484.4 950.9,491.3 951.6,498.2 952.1,505.1 952.5,512.0" fill="none" stroke="#FBB83D" stroke-width="24" stroke-linecap="round" stroke-linejoin="round"/>
  </g>
  <g id="center-dot">
    <circle cx="512" cy="512" r="22" fill="#FBB83D"/>
  </g>
</svg>
