<svg xmlns="http://www.w3.org/2000/svg" viewBox="0 0 1024 1024">
  <defs>
    <clipPath id="face-clip">
      <ellipse cx="130" cy="512" rx="70" ry="350"/>
    </clipPath>
  </defs>
  <rect x="0" y="0" width="1024" height="1024" rx="180" ry="180" fill="#1F5F66"/>
  <path d="M 130 162 L 894 162 A 70 350 0 0 1 894 862 L 130 862 Z" fill="#D5DCE0"/>
  <g clip-path="url(#face-clip)">
    <rect x="60" y="162" width="140" height="350" fill="#0F4046"/>
    <rect x="60" y="512" width="140" height="350" fill="#1F5F66"/>
  </g>
  <g>
    <rect x="275" y="442.0000" width="44" height="140.0000" rx="22" ry="22" fill="#0F4046"/>
    <rect x="333" y="402.0000" width="44" height="220.0000" rx="22" ry="22" fill="#0F4046"/>
    <rect x="391" y="352.0000" width="44" height="320.0000" rx="22" ry="22" fill="#0F4046"/>
    <rect x="449" y="287.0000" width="44" height="450.0000" rx="22" ry="22" fill="#0F4046"/>
    <rect x="507" y="352.0000" width="44" height="320.0000" rx="22" ry="22" fill="#0F4046"/>
    <rect x="565" y="242.0000" width="44" height="540.0000" rx="22" ry="22" fill="#0F4046"/>
    <rect x="623" y="217.4000" width="44" height="589.2000" rx="22" ry="22" fill="#FBB83D"/>
    <rect x="681" y="289.2800" width="44" height="445.4400" rx="22" ry="22" fill="#0F4046"/>
    <rect x="739" y="365.3500" width="44" height="293.3000" rx="22" ry="22" fill="#0F4046"/>
    <rect x="797" y="433.6800" width="44" height="156.6400" rx="22" ry="22" fill="#0F4046"/>
    <rect x="855" y="479.0000" width="44" height="66.0000" rx="22" ry="22" fill="#0F4046"/>
  </g>
</svg>
