<svg xmlns="http://www.w3.org/2000/svg" viewBox="0 0 1024 1024">
  <g id="background">
    <rect x="0" y="0" width="1024" height="1024" rx="180" ry="180" fill="#1A1F4E"/>
  </g>
  <g id="disc">
    <circle cx="512" cy="512" r="380" fill="#2A2F6A" stroke="#5EEAD4" stroke-width="18"/>
  </g>
  <g id="grooves" stroke="#5EEAD4" stroke-width="6" stroke-opacity="0.32" stroke-linecap="round">
    <line x1="622" y1="512" x2="872" y2="512"/>
    <line x1="620.33" y1="531.10" x2="866.20" y2="574.46"/>
    <line x1="615.35" y1="549.68" x2="849.06" y2="635.00"/>
    <line x1="607.26" y1="567.00" x2="820.78" y2="692.00"/>
    <line x1="596.27" y1="582.39" x2="781.78" y2="743.92"/>
    <line x1="582.69" y1="595.27" x2="732.92" y2="789.78"/>
    <line x1="566.93" y1="605.13" x2="675.00" y2="828.78"/>
    <line x1="549.46" y1="611.56" x2="610.46" y2="858.06"/>
    <line x1="530.85" y1="614.26" x2="542.00" y2="867.99"/>
    <line x1="512" y1="613" x2="512" y2="872"/>
    <line x1="493.15" y1="614.26" x2="482.00" y2="867.99"/>
    <line x1="474.54" y1="611.56" x2="413.54" y2="858.06"/>
    <line x1="457.07" y1="605.13" x2="349.00" y2="828.78"/>
    <line x1="441.31" y1="595.27" x2="291.08" y2="789.78"/>
    <line x1="427.73" y1="582.39" x2="242.22" y2="743.92"/>
    <line x1="416.74" y1="567.00" x2="203.22" y2="692.00"/>
    <line x1="408.65" y1="549.68" x2="174.94" y2="635.00"/>
    <line x1="403.67" y1="531.10" x2="157.80" y2="574.46"/>
    <line x1="402" y1="512" x2="152" y2="512"/>
    <line x1="403.67" y1="492.90" x2="157.80" y2="449.54"/>
    <line x1="408.65" y1="474.32" x2="174.94" y2="389.00"/>
    <line x1="416.74" y1="457.00" x2="203.22" y2="332.00"/>
    <line x1="427.73" y1="441.61" x2="242.22" y2="280.08"/>
    <line x1="441.31" y1="428.73" x2="291.08" y2="234.22"/>
    <line x1="457.07" y1="418.87" x2="349.00" y2="195.22"/>
    <line x1="474.54" y1="412.44" x2="413.54" y2="165.94"/>
    <line x1="493.15" y1="409.74" x2="482.00" y2="156.01"/>
    <line x1="512" y1="411" x2="512" y2="152"/>
    <line x1="530.85" y1="409.74" x2="542.00" y2="156.01"/>
    <line x1="549.46" y1="412.44" x2="610.46" y2="165.94"/>
    <line x1="566.93" y1="418.87" x2="675.00" y2="195.22"/>
    <line x1="582.69" y1="428.73" x2="732.92" y2="234.22"/>
    <line x1="596.27" y1="441.61" x2="781.78" y2="280.08"/>
    <line x1="607.26" y1="457.00" x2="820.78" y2="332.00"/>
    <line x1="615.35" y1="474.32" x2="849.06" y2="389.00"/>
    <line x1="620.33" y1="492.90" x2="866.20" y2="449.54"/>
  </g>
  <g id="pulse-glow">
    <line x1="236" y1="720" x2="788" y2="304" stroke="#5EEAD4" stroke-width="92" stroke-linecap="round" stroke-opacity="0.18" fill="none"/>
  </g>
  <g id="pulse">
    <line x1="236" y1="720" x2="788" y2="304" stroke="#5EEAD4" stroke-width="42" stroke-linecap="round" fill="none"/>
  </g>
  <g id="center-pin">
    <circle cx="512" cy="512" r="46" fill="#5EEAD4"/>
  </g>
</svg>
