<svg width="640" height="360" viewBox="0 0 640 360" fill="none" xmlns="http://www.w3.org/2000/svg">
  <rect width="640" height="360" rx="32" fill="#101827"/>
  <rect x="92" y="76" width="484" height="212" rx="28" fill="#f8fafc"/>
  <path d="M142 238c36-66 76-98 120-98 42 0 64 48 104 48 34 0 54-58 92-58 28 0 48 26 68 70" stroke="#ef4444" stroke-width="18" stroke-linecap="round"/>
  <path d="M142 246h386" stroke="#111827" stroke-width="8" stroke-linecap="round"/>
  <path d="M174 116v132m104-132v132m104-132v132m104-132v132" stroke="#cbd5e1" stroke-width="6" stroke-linecap="round"/>
  <circle cx="262" cy="140" r="18" fill="#2563eb"/>
  <circle cx="366" cy="188" r="18" fill="#f97316"/>
  <circle cx="458" cy="130" r="18" fill="#16a34a"/>
  <text x="320" y="326" text-anchor="middle" fill="#e2e8f0" font-family="Arial, sans-serif" font-size="36" font-weight="700">debtisfun</text>
</svg>
