<svg width="640" height="360" viewBox="0 0 640 360" fill="none" xmlns="http://www.w3.org/2000/svg">
  <rect width="640" height="360" rx="32" fill="#0f172a"/>
  <path d="M174 92h252c28 0 50 22 50 50v62c0 28-22 50-50 50H174c-28 0-50-22-50-50v-62c0-28 22-50 50-50Z" fill="#f8fafc"/>
  <path d="M216 190c22-74 60-74 82 0s60 74 82 0" stroke="#0ea5e9" stroke-width="20" stroke-linecap="round"/>
  <path d="M408 136v72" stroke="#111827" stroke-width="18" stroke-linecap="round"/>
  <path d="M384 208c0 24 16 40 40 40s40-16 40-40" stroke="#111827" stroke-width="14" stroke-linecap="round"/>
  <path d="M424 248v34" stroke="#f8fafc" stroke-width="14" stroke-linecap="round"/>
  <path d="M386 282h76" stroke="#f8fafc" stroke-width="14" stroke-linecap="round"/>
  <text x="320" y="326" text-anchor="middle" fill="#e0f2fe" font-family="Arial, sans-serif" font-size="38" font-weight="700">Foil</text>
</svg>
